<svg xmlns="http://www.w3.org/2000/svg" width="585.599" height="486.477" viewBox="0 0 585.599 486.477">
  <g id="Grupo_28054" data-name="Grupo 28054" transform="translate(-693.412 -140.5)">
    <g id="Grupo_28053" data-name="Grupo 28053">
      <g id="Grupo_28052" data-name="Grupo 28052">
        <g id="Grupo_28051" data-name="Grupo 28051">
          <g id="Grupo_27862" data-name="Grupo 27862" transform="translate(-1539.641 -753.54)">
            <path id="Trazado_8985" data-name="Trazado 8985" d="M2492.034,1149.946a29.432,29.432,0,1,1-29.432-29.432A29.433,29.433,0,0,1,2492.034,1149.946Z" transform="translate(-68.506 -38.675)" fill="#fff"/>
            <path id="Trazado_8986" data-name="Trazado 8986" d="M2982.608,1232.746l-.434,10.986s-6.456,3.39-6.374,3.925,4.543,6.051,4.543,6.051.2,11.915,8.69,12.978c0,0,5.563.469,6.872,0l.4,11.956s8.766-5.292,11.947-5.518c0,0-1.092-7.76.248-12.912a32.516,32.516,0,0,1,2.565-7.276s5.393-2.279,4.75-7.036-4.609-6.681-6.283-6.665-5.824,1.868-5.824,1.868a30.484,30.484,0,0,1-4.138-7.609c-1.135-3.63-.508-9.1-.508-9.1a41.863,41.863,0,0,0-10.3,3.052c-5.471,2.419-6.116,4.162-6.116,4.162Z" transform="translate(-254.265 -74.235)" fill="#fff"/>
            <path id="Trazado_8987" data-name="Trazado 8987" d="M2547.568,1521.784c-11.219.11-12.876,2.268-12.876,2.268l-.167.907s-8.742.272-10.968,6.665.853,12.616,3.053,14.47,7.79,3.187,7.79,3.187l.292,4.548s4.355,2.27,13.98,2.082,12.392-1.552,12.392-1.552v-30.086S2558.786,1521.675,2547.568,1521.784Zm-20.72,14.026c.306-6.682,3.523-5.64,7.677-6.284l.17,15.6S2526.536,1542.586,2526.847,1535.81Z" transform="translate(-99.184 -176.04)" fill="#1a1a1a"/>
            <path id="Trazado_8988" data-name="Trazado 8988" d="M2284.373,1308.367s-11.374,7.2-13.27,9.281-11.066,14.792-18.685,27.827-15.222,35.352-16.576,44.562-3.689,25.723,3.043,37.8,13.6,13.733,13.6,13.733v30.253l104.709.137s-2.316-20.96-1.28-26.255l15.257,23.64s9.745-1.291,17.656-5.886a121.561,121.561,0,0,0,12.117-7.847l-24.635-93.492s-9.688-31.635-15.505-39.448-12.247-15.5-34.452-19.992Z" transform="translate(-0.436 -101.037)" fill="#1a1a1a"/>
            <rect id="Rect치ngulo_6007" data-name="Rect치ngulo 6007" width="134.379" height="90.112" rx="12.988" transform="translate(2474.703 1280.815)" fill="#1a1a1a"/>
            <path id="Trazado_8990" data-name="Trazado 8990" d="M2371.539,1227.557s.04,18.246.111,21.569-1.3,13.477-10.064,13.443l-1.09,10.477-2.47,14.421-14.142-10.977a11.571,11.571,0,0,0,8.413-11.09c.461-9.274-8.776-16.275-8.776-16.275s-8.343,1.649-9.443-6.465c0,0,.116-5.151,4.78-6.183s5.028.177,5.028.177,6.385-3.067,9.616-7.664,6.234-9.576,6.792-12.882a78.287,78.287,0,0,1,7.029,6.12C2369.223,1224.351,2371.539,1227.557,2371.539,1227.557Z" transform="translate(-34.584 -71.4)" fill="#fff"/>
            <path id="Trazado_8991" data-name="Trazado 8991" d="M2678.32,1274.009s-.446,17.983-.333,22.027-1.318,13.882,9.275,16.036l-.023,10.4,12.6,18.656,12.787-18.656-1.254-24.873s10.769,3.593,10.978-8.242c0,0,.617-5.456-7.8-6.765a7.8,7.8,0,0,0-5.721,2.68s-3.731-1.443-6.974-7.988-2.775-9.657-2.775-9.657-4.354,5.414-9.972,6.183A49.545,49.545,0,0,1,2678.32,1274.009Z" transform="translate(-152.309 -89.035)" fill="#fff"/>
            <path id="Trazado_8995" data-name="Trazado 8995" d="M2705.644,1310.649a7.9,7.9,0,0,0-3.265,3.4c-.865,2.08.228,4.792.228,4.792s-1.029,1.572-3.678.841-4.208-1.237-4-2.877.266-1.959,2.107-2.061,3.561.345,3.97-1.33.483-3.957,2.242-4.083A2.413,2.413,0,0,1,2705.644,1310.649Z" transform="translate(-158.109 -103.311)" fill="#1a1a1a"/>
            <path id="Trazado_8996" data-name="Trazado 8996" d="M2877.266,1256.487c.033.1.985,4.064.985,4.064s-5.434.467-5.672-.513S2877.266,1256.487,2877.266,1256.487Z" transform="translate(-218.927 -85.222)" fill="#1a1a1a"/>
            <path id="Trazado_8997" data-name="Trazado 8997" d="M2912.453,1245.769l1.159,3.537s4.836-2.22,3.813-3.266S2912.453,1245.769,2912.453,1245.769Z" transform="translate(-232.58 -81.459)" fill="#1a1a1a"/>
            <path id="Trazado_8998" data-name="Trazado 8998" d="M2555.08,1524.745c-6.216,0-11.256.951-11.256,2.124l11.256.907,11.256-.907C2566.336,1525.7,2561.3,1524.745,2555.08,1524.745Z" transform="translate(-106.387 -177.055)" fill="#fff"/>
            <path id="Trazado_8999" data-name="Trazado 8999" d="M2490.633,1252.417s-1.1-11.81-3.143-15.714-2.881-6.09-4.921-5.209-4.864,2.577-4.672,6.028,2.213,13.852,2.213,13.852-3.107-3.663-6.447-2.658-4.059,6.323-4.059,6.323-3.45-4.693-7.209-4.026-3.761,7.6-2.9,11.642.759,6.616,2.549,7.589l3.45,13.686,2.258,12.55a75.89,75.89,0,0,0,12.969-1c5.165-1.078,13.462-3.828,13.462-3.828l-.608-13.518s3.57-13.084,3.417-16.4S2498.765,1256.5,2490.633,1252.417Z" transform="translate(-77.359 -76.6)" fill="#fff"/>
            <path id="Trazado_9000" data-name="Trazado 9000" d="M2473.1,1537.852a25.632,25.632,0,0,0,8.627,5.459c4.827,1.648,16.189,3.436,16.189,3.436l3.446,4.848-50.236.736-2.087-3.083s9.345-2.65,15.153-6.281A102.575,102.575,0,0,1,2473.1,1537.852Z" transform="translate(-73.94 -181.542)" fill="#fff"/>
            <path id="Trazado_9001" data-name="Trazado 9001" d="M2889.612,1237.875s-2.436-7.622-2.383-9.645,2.484-4.7,4.371-6.352,6.281-5.473,3.587-8.3-8.1.9-11.775,3.852-5.6,6.007-6.442,5.459-13.967-8.653-15.775-9.433-7.649-2.935-9.356.646c0,0-3.972.387-4.188,2.382,0,0-3.8-.1-5.072,2.237s2.746,8.185,9.542,11.438,9.2,3.63,10.369,4.424,4.548,4.41,5.413,10.43a46.413,46.413,0,0,0,10.857-2.417A110.611,110.611,0,0,0,2889.612,1237.875Z" transform="translate(-208.58 -70.027)" fill="#fff"/>
            <path id="Trazado_9002" data-name="Trazado 9002" d="M2876.573,1376.174c-.486-.666-1.211-1.889-2.121-3.242l19.767-21.268-20.749-19.554-30.734,32.613,4.75,4.834c-.627.631-2.513,3.008-.508,7.217,0,0-3.517,2.763-1.065,7.913s9.568,14.128,13.571,15.974c0,0,3.335,3.576,6.7,3.576s7.215,2.7,7.653,4.043a63.342,63.342,0,0,1,6.3-10.984,99.482,99.482,0,0,1,8.515-9.376S2878.365,1378.625,2876.573,1376.174Zm-10.138,9.641a8.707,8.707,0,0,1-2.533-1.533l4.054-4.362a3.455,3.455,0,0,1,.522,1.119C2868.964,1383.652,2867.637,1386.047,2866.435,1385.815Z" transform="translate(-208.714 -111.11)" fill="#fff"/>
            <path id="Trazado_9003" data-name="Trazado 9003" d="M2699.28,1370.145l-12.921-19.125-10.961,9.488,7.8,37.891h10.285l1.31-5.421-3.464-6.939Z" transform="translate(-151.429 -117.584)" fill="#fff"/>
            <path id="Trazado_9004" data-name="Trazado 9004" d="M2724.182,1351.02l-12.47,19.125,8.053,16.213-2.814,6.6,1.634,5.44h8.716l7.983-38.984Z" transform="translate(-163.86 -117.584)" fill="#fff"/>
            <path id="Trazado_9006" data-name="Trazado 9006" d="M2713.9,1492.171a9.482,9.482,0,1,1-9.481-9.482A9.481,9.481,0,0,1,2713.9,1492.171Z" transform="translate(-158.119 -162.658)" fill="#fff"/>
            <path id="Trazado_9008" data-name="Trazado 9008" d="M2578.417,1416.067s-3.9,1.043-4.008,6.123,2.915,6.358,4.008,6.122a5.683,5.683,0,0,0,4.007-6.122C2582.153,1417.952,2580.2,1416.39,2578.417,1416.067Z" transform="translate(-116.856 -139.852)" fill="#fff"/>
            <path id="Trazado_9009" data-name="Trazado 9009" d="M2559.588,1438.453s-7.546.618-9.658,6.221,1.629,9.4,1.013,13.208-.551,3.43-3,6.25-4.3,14.585,2.007,16.306,9.67,2.574,14.315,0,6.527-7.47,6.567-12.746-1.715-6.535-1.423-10.18,2.883-5.8.579-11.358S2564.737,1438.4,2559.588,1438.453Z" transform="translate(-107.014 -147.514)" fill="#fff"/>
            <path id="Trazado_9010" data-name="Trazado 9010" d="M2378.252,1361.949l6.889-22.528h46.981s-8.011,25.07-8.749,39.893-2.563,36.573-2.563,36.573h-42.153l1.29-2.132-2.708-5.3-2.118-36.494Z" transform="translate(-48.635 -113.613)" fill="#fff"/>
            <g id="Grupo_27862-2" data-name="Grupo 27862" transform="translate(2377.846 1103.318)">
              <path id="Trazado_9013" data-name="Trazado 9013" d="M2453.214,1163.245l3.2-.884c.579-.16,1.159-.315,1.736-.479a.314.314,0,0,1,.4.134,37,37,0,0,0,6.911,6.957,2.932,2.932,0,0,0,2.681.556,9.194,9.194,0,0,0,2.74-1.251,34.859,34.859,0,0,0,5.7-4.728,104.98,104.98,0,0,0,8.952-10.156.446.446,0,0,1,.564-.19c1.732.5,3.469.969,5.2,1.45.087.024.172.057.276.091-.043.09-.076.172-.12.247a123.691,123.691,0,0,1-11.315,16.388,40.762,40.762,0,0,1-7.16,7.052,22.07,22.07,0,0,1-2.779,1.7,6.9,6.9,0,0,1-6.353.089,13.412,13.412,0,0,1-5.122-4.266,29.012,29.012,0,0,1-4.332-8.654C2453.96,1165.981,2453.614,1164.631,2453.214,1163.245Z" transform="translate(-2453.214 -1153.173)" fill="#fff"/>
            </g>
            <path id="Trazado_9016" data-name="Trazado 9016" d="M3007.02,1234.4a19.291,19.291,0,0,1-4.924-16.71s-12.032,1.969-16.414,7.214c0,0-2.706-4.337.625-11.009s8.113-7.763,14.121-8.811,16.062,1.34,16.062,1.34,11.465,1.63,14.989,10.1.048,21.449-.516,26.07-1.476,13.284,5.586,18.852,15.121,11.23,18.216,17.731,9.423,17.914-1.062,38.635l-.88-10.365s-4.622-17.3-12.179-21.391c0,0-2.523-2.33-10.948-5.027s-15.462-6.561-17.522-13.212-1.2-13.353-.466-14.742a58.077,58.077,0,0,0,2.14-6.749s5.6-1.884,5-7.131a7.451,7.451,0,0,0-6.675-6.921C3010.48,1232.316,3007.02,1234.4,3007.02,1234.4Z" transform="translate(-257.294 -67.534)" fill="#fff"/>
            <path id="Trazado_9017" data-name="Trazado 9017" d="M2359.388,1400.795s2.318-1.652,2.789-6.674,1.1-16.751,10.689-20.446l-2.023,10.179s-.682,6.493,2.427,7.222,14.479-7.159,17.262-9.234,6.817-6.525,10.4-4.013.467,6.615.467,6.615,3.167-1.161,4.889.8-1.88,6.7-1.88,6.7a6.117,6.117,0,0,1-.687,7.526c-3.362,3.555-31.507,20.709-31.507,20.709Z" transform="translate(-43.249 -125.339)" fill="#fff"/>
            <path id="Trazado_9018" data-name="Trazado 9018" d="M2995.183,1320.374s.2-12.551,7.763-16.593,12.226-5.954,12.226-5.954,2.6,7.855,8.522,10.96a48.345,48.345,0,0,0-15.573,4.331C3001.092,1316.715,2995.183,1320.374,2995.183,1320.374Z" transform="translate(-260.901 -99.374)" fill="#fff"/>
            <path id="Trazado_9019" data-name="Trazado 9019" d="M3031.511,1472.137s-4.046,26.851-32.426,32.614c-24.161,4.906-32.427-.21-32.427-.21l.6-11.478s19.388,7.6,31.764,4.37S3024.155,1488.648,3031.511,1472.137Z" transform="translate(-251.136 -159.046)" fill="#1a1a1a"/>
            <rect id="Rect치ngulo_6009" data-name="Rect치ngulo 6009" width="18.762" height="18.762" rx="4.681" transform="translate(2491.182 1132.692)" fill="#1a1a1a"/>
            <path id="Trazado_9020" data-name="Trazado 9020" d="M2338.768,1457.409s-30.9,58.852-76.983,48.185l.1-11.053s10.923,6.271,28.824-2.311,28.935-16.523,37.15-24.323S2338.768,1457.409,2338.768,1457.409Z" transform="translate(-9.836 -154.004)" fill="#1a1a1a"/>
            <path id="Trazado_9021" data-name="Trazado 9021" d="M2334.79,1317.464s7.227-1.53,8.126-4.41a15.594,15.594,0,0,0,.849-4.588l14.518,11.6s.163,12.745-7.6,12.663S2337.583,1327.4,2334.79,1317.464Z" transform="translate(-34.828 -103.016)" fill="#fff"/>
            <path id="Trazado_9022" data-name="Trazado 9022" d="M2373.205,1297.959v3.959l-2.942,14.112s3.372,5.321,7.479,6.3,7.234-1.042,8.031-3.127,1.288-4.35-.674-7.877S2373.205,1297.959,2373.205,1297.959Z" transform="translate(-46.971 -99.419)" fill="#fff"/>
            <path id="Trazado_9023" data-name="Trazado 9023" d="M2369.8,1330.736s4.607,4.278,10.516,2.235c0,0-7.663-1.062-10.049-6.859Z" transform="translate(-46.813 -109.057)" fill="#3a3a3a"/>
            <path id="Trazado_9024" data-name="Trazado 9024" d="M3011.256,1477.473c-10.7,3.261-17.411,12.819-15.882,22.016,0,0,13.273.17,22.107-3.017,7.928-2.861,17.189-12.934,17.189-12.934C3029.765,1477.359,3020.434,1474.675,3011.256,1477.473Z" transform="translate(-260.892 -160.494)" fill="#fff"/>
            <path id="Trazado_9025" data-name="Trazado 9025" d="M2463.387,1551.378s-6.571,4.531-13.223,2.189c-.263-.093-.893.672-.893.672l1.936,2.723,17.216-.108S2462.846,1553.55,2463.387,1551.378Z" transform="translate(-74.019 -186.173)" fill="#b5b5b5"/>
            <path id="Trazado_9026" data-name="Trazado 9026" d="M2679.246,1259.375c-7.019-4.283-2.175-16.894-1.881-17.64a15.764,15.764,0,0,0-2.112,1.54,13.138,13.138,0,0,0-2.263,15.939s-2.98.794-3.21,5.088,4.431,9.29,5.473,9.306l.26-8.463s6.138,1.359,10.242,0a42.949,42.949,0,0,0,8.171-4.309l.512-.6S2686.48,1263.789,2679.246,1259.375Z" transform="translate(-149.503 -80.172)" fill="#fff"/>
            <path id="Trazado_9027" data-name="Trazado 9027" d="M2723.338,1282.561c-8-2.293-13.191-15.309-13.191-15.309l-.172.8c.107-.074,1.806,13.07,9.816,17.09a5.593,5.593,0,0,1,3.55-2.581Z" transform="translate(-163.265 -88.907)" fill="#fff"/>
            <path id="Trazado_9028" data-name="Trazado 9028" d="M2361.673,1203.754a47.033,47.033,0,0,0-10.559-.24c4.95,1.353,9.12,3.8,8.483,8.218-1.477,10.259-17.009,19.808-17.009,19.808a9.262,9.262,0,0,1,4.561.561c14.529-9.511,16.057-20.369,16.057-20.369,6.8,3.224,11.246,11.448,11.246,11.448,1.207-2.984-.307-11.892-2.092-14.357S2368.423,1204.587,2361.673,1203.754Z" transform="translate(-37.497 -67.023)" fill="#fff"/>
            <g id="Grupo_27863" data-name="Grupo 27863" transform="translate(2283.669 1177.921)">
              <path id="Trazado_9029" data-name="Trazado 9029" d="M2334.813,1266.608l-3.375.083s6.759,2.725,7.269,12.54c.674,13-11.725,13.346-11.725,13.346s-1.824,10.01-16.965,4.493c1.424,2.925,7.828,6.87,16.293,6.065,8.672-.825,8.975-9,8.975-9,3.106-1.673,7.683-3.722,8.775-12.78C2345.04,1273.218,2336.552,1267.656,2334.813,1266.608Z" transform="translate(-2310.016 -1266.608)" fill="#fff"/>
            </g>
            <path id="Trazado_9030" data-name="Trazado 9030" d="M2381.666,1297.844a6.648,6.648,0,0,0,1.894-6.461,13.246,13.246,0,0,0-2.786-6.34l-2.055.414.408.107s3.446,8.316-1.52,9.787a3.408,3.408,0,0,0-2.3,1.791Z" transform="translate(-48.698 -94.998)" fill="#fff"/>
            <path id="Trazado_9031" data-name="Trazado 9031" d="M2709.841,1384.665l-5.56,9.048,3.477,9.2-.133,5.44h-5.847l1.31-5.421-3.465-7.562,7.951-15.27Z" transform="translate(-159.721 -127.539)" fill="#fff"/>
            <g id="Grupo_27867" data-name="Grupo 27867" transform="translate(2477.459 1195.32)">
              <g id="Grupo_27864" data-name="Grupo 27864" transform="translate(13.75 21.93)">
                <path id="Trazado_9032" data-name="Trazado 9032" d="M2626.233,1334.685a.647.647,0,0,1-.239-1.25l17.5-6.985a.665.665,0,0,1,.843.364.653.653,0,0,1-.364.843l-17.5,6.985A.654.654,0,0,1,2626.233,1334.685Z" transform="translate(-2625.586 -1326.409)"/>
              </g>
              <g id="Grupo_27865" data-name="Grupo 27865" transform="translate(0 13.591)">
                <path id="Trazado_9033" data-name="Trazado 9033" d="M2634.864,1315.788l-29.557-.766a.646.646,0,0,1-.629-.663.721.721,0,0,1,.663-.63l29.54.766a.646.646,0,0,1-.017,1.292Z" transform="translate(-2604.677 -1313.73)"/>
              </g>
              <g id="Grupo_27866" data-name="Grupo 27866" transform="translate(15.386)">
                <path id="Trazado_9034" data-name="Trazado 9034" d="M2644.036,1301.424a.6.6,0,0,1-.27-.06l-15.317-7.067a.643.643,0,0,1-.317-.855.637.637,0,0,1,.856-.316l15.316,7.067a.643.643,0,0,1,.317.855A.637.637,0,0,1,2644.036,1301.424Z" transform="translate(-2628.073 -1293.064)"/>
              </g>
            </g>
            <g id="Grupo_27868" data-name="Grupo 27868" transform="translate(2272.222 1194.154)">
              <path id="Trazado_9035" data-name="Trazado 9035" d="M2295.89,1310.463a.63.63,0,0,1-.325-.085c-3.769-2.19-3.294-8.465-2.053-12.147,1.3-3.859,3.554-6.122,6.912-6.917a.631.631,0,0,1,.779.479.649.649,0,0,1-.479.779c-2.887.684-4.846,2.673-5.988,6.07-1.061,3.156-1.6,8.828,1.48,10.617a.646.646,0,0,1-.325,1.206Z" transform="translate(-2292.611 -1291.291)"/>
            </g>
            <g id="Grupo_27869" data-name="Grupo 27869" transform="translate(2286.284 1135.558)">
              <path id="Trazado_9036" data-name="Trazado 9036" d="M2319.963,1251.3a.645.645,0,0,1-.642-.56c-2.648-19.667-5.3-30.2-5.33-30.309a15.76,15.76,0,0,1,7.319-12.935c10.582-7.122,30.5-5.7,36.324-3.538.265.022,9.654,1.557,7.669,18.915a.654.654,0,0,1-.714.569.643.643,0,0,1-.569-.715c1.83-16.036-6.356-17.469-6.707-17.52-4.655-1.711-24.445-3.931-35.285,3.366a14.5,14.5,0,0,0-6.758,11.639,307.516,307.516,0,0,1,5.334,30.357.648.648,0,0,1-.556.728A.614.614,0,0,1,2319.963,1251.3Z" transform="translate(-2313.992 -1202.194)"/>
            </g>
            <g id="Grupo_27870" data-name="Grupo 27870" transform="translate(2282.707 1204.806)">
              <path id="Trazado_9037" data-name="Trazado 9037" d="M2322.717,1317.954c-5.98,0-9.748-1.853-14-6.746a.646.646,0,1,1,.976-.846c4.294,4.936,7.942,6.458,14.2,6.275,6.613-.252,9.967-3.046,10.253-8.538a.718.718,0,0,1,.68-.612.646.646,0,0,1,.612.68c-.325,6.2-4.192,9.483-11.493,9.761Q2323.308,1317.954,2322.717,1317.954Z" transform="translate(-2308.554 -1307.487)"/>
            </g>
            <g id="Grupo_27871" data-name="Grupo 27871" transform="translate(2421.716 1209.455)">
              <path id="Trazado_9038" data-name="Trazado 9038" d="M2563.335,1360.308a43.808,43.808,0,0,1-7.665-.654c-19.9-3.551-33.27-20.143-35.747-44.384a.639.639,0,0,1,.578-.706.631.631,0,0,1,.71.577c2.417,23.629,15.385,39.793,34.69,43.236,10.9,1.947,21.947-.958,32.641-3.76,3.448-.907,7.011-1.839,10.471-2.579,6.276-1.343,14.565-3.084,23.043-4.649a.677.677,0,0,1,.753.522.646.646,0,0,1-.522.753c-8.46,1.561-16.737,3.3-23,4.64-3.435.736-6.98,1.664-10.415,2.562C2580.518,1358.058,2571.941,1360.308,2563.335,1360.308Z" transform="translate(-2519.919 -1314.557)"/>
            </g>
            <g id="Grupo_27872" data-name="Grupo 27872" transform="translate(2608.634 1035.976)">
              <path id="Trazado_9039" data-name="Trazado 9039" d="M2861.548,1154.163c-3.007-.068-6.185-.068-9.825,0a2.134,2.134,0,0,1-2.344-1.677c-1.2-3.649-2.234-6.618-3.251-9.329a2.257,2.257,0,0,0-1.052-1.091c-1.2-.568-2.421-1.1-3.636-1.629-1.523-.664-3.093-1.348-4.611-2.1a1.863,1.863,0,0,0-1.942-.064c-1.429.71-2.87,1.39-4.316,2.074-1.386.659-2.776,1.313-4.153,2a2.209,2.209,0,0,1-2.956-.453c-2.121-2.238-4.371-4.487-6.873-6.879a2.217,2.217,0,0,1-.48-2.956c.638-1.3,1.258-2.609,1.874-3.918.672-1.42,1.343-2.844,2.044-4.252a2.179,2.179,0,0,0-.064-2.262c-.731-1.454-1.386-2.969-2.014-4.431-.509-1.177-1.014-2.353-1.566-3.508a2.744,2.744,0,0,0-1.249-1.347c-3.238-1.236-6.54-2.327-9.338-3.23a2.11,2.11,0,0,1-1.659-2.327c.06-3.635.06-6.818,0-9.731a2.24,2.24,0,0,1,1.8-2.425c2.921-.949,6.056-1.993,9.171-3.174a2.891,2.891,0,0,0,1.3-1.313c1.343-2.694,2.617-5.44,3.79-8.17a2.3,2.3,0,0,0,.051-1.595c-1.4-3.2-2.909-6.293-4.069-8.633a2.222,2.222,0,0,1,.437-2.969c2.16-2.049,4.414-4.295,6.882-6.873a2.113,2.113,0,0,1,2.818-.488c1.369.685,2.751,1.344,4.133,2.006,1.5.714,2.994,1.429,4.474,2.177a1.916,1.916,0,0,0,1.955.013c2.524-1.159,5.21-2.233,7.978-3.191a1.89,1.89,0,0,0,1.42-1.339c.5-1.463,1.026-2.913,1.561-4.358.509-1.386,1.014-2.768,1.492-4.162a2.259,2.259,0,0,1,2.348-1.78c3.589.077,6.767.072,9.821,0a2.26,2.26,0,0,1,2.412,1.792c1.194,3.5,2.173,6.163,3.166,8.623a2.524,2.524,0,0,0,1.24,1.117c2.673,1.134,5.492,2.237,8.38,3.281a2.438,2.438,0,0,0,1.526-.077c2.674-1.2,5.544-2.562,8.774-4.162a2,2,0,0,1,2.664.445c1,1.04,2.02,2.066,3.033,3.093,1.352,1.369,2.708,2.733,4.021,4.141a2.531,2.531,0,0,1,.346,2.408c-.71,1.6-1.463,3.174-2.212,4.752-.693,1.459-1.385,2.913-2.049,4.385a2.067,2.067,0,0,0,.017,1.351c1.228,3.332,2.229,5.864,3.243,8.212a2.72,2.72,0,0,0,1.249,1.327c3.02,1.24,6.1,2.327,8.448,3.135a2.264,2.264,0,0,1,1.766,2.446c-.064,3.054-.064,6.241,0,9.732a2.157,2.157,0,0,1-1.634,2.357c-3.4,1.176-6.138,2.19-8.619,3.191a2.422,2.422,0,0,0-1.164,1.2c-1.087,2.648-2.139,5.454-3.225,8.581a2.144,2.144,0,0,0,.107,1.395c.629,1.39,1.287,2.768,1.942,4.145.744,1.553,1.484,3.109,2.185,4.679a2.561,2.561,0,0,1-.274,2.438c-1.955,2.075-4,4.137-5.971,6.13l-1.959,1.98a.624.624,0,0,1-.74.133l-2.489-1.181c-2.532-1.2-5-2.378-7.5-3.49a2.148,2.148,0,0,0-1.484.047c-3.029,1.227-5.783,2.42-8.418,3.653a2.58,2.58,0,0,0-1.207,1.189c-1.091,2.866-2.134,5.861-3.2,9.158A2.169,2.169,0,0,1,2861.548,1154.163Zm-4.795-1.343c1.664,0,3.234.017,4.727.051.633,0,.911-.137,1.155-.885,1.065-3.32,2.122-6.339,3.22-9.227a3.808,3.808,0,0,1,1.865-1.9c2.656-1.245,5.428-2.447,8.478-3.678a3.478,3.478,0,0,1,2.5-.03c2.506,1.116,4.991,2.293,7.527,3.5l2.079.984,1.638-1.655c1.968-1.985,4.008-4.042,5.95-6.109a1.491,1.491,0,0,0,.034-1.017c-.7-1.566-1.433-3.11-2.172-4.654-.658-1.386-1.322-2.771-1.955-4.17a3.4,3.4,0,0,1-.15-2.352c1.095-3.148,2.156-5.976,3.251-8.641a3.707,3.707,0,0,1,1.874-1.908c2.5-1.01,5.261-2.031,8.687-3.217.629-.218.77-.423.762-1.111-.065-3.508-.065-6.708,0-9.779.013-.718-.154-.94-.9-1.2-2.361-.813-5.462-1.912-8.516-3.161a4,4,0,0,1-1.946-2.011c-1.023-2.37-2.032-4.923-3.269-8.281a3.325,3.325,0,0,1,.018-2.326c.667-1.48,1.364-2.943,2.061-4.41.744-1.57,1.489-3.14,2.2-4.727a1.361,1.361,0,0,0-.107-.993c-1.31-1.4-2.652-2.755-4-4.115-1.022-1.031-2.041-2.062-3.046-3.109-.411-.432-.59-.458-1.159-.18-3.242,1.608-6.125,2.977-8.82,4.183a3.619,3.619,0,0,1-2.49.115c-2.913-1.056-5.757-2.168-8.448-3.311a3.748,3.748,0,0,1-1.937-1.822c-1-2.481-1.985-5.163-3.187-8.688-.27-.778-.517-.941-1.155-.92-3.072.077-6.275.081-9.787,0-.757,0-.933.15-1.194.9-.478,1.4-.992,2.8-1.5,4.187-.53,1.437-1.056,2.875-1.552,4.329a3.135,3.135,0,0,1-2.22,2.147c-2.729.946-5.372,2-7.862,3.144a3.183,3.183,0,0,1-3.075-.034c-1.476-.744-2.964-1.454-4.453-2.164-1.386-.664-2.776-1.331-4.153-2.02-.608-.308-.83-.265-1.305.232-2.48,2.588-4.748,4.85-6.925,6.917-.5.475-.53.718-.163,1.454,1.163,2.348,2.682,5.462,4.094,8.683a3.58,3.58,0,0,1-.052,2.626c-1.181,2.754-2.468,5.522-3.824,8.239a4.1,4.1,0,0,1-1.989,1.942c-3.145,1.194-6.3,2.242-9.231,3.2-.752.244-.924.462-.907,1.163.069,2.931.069,6.13,0,9.787-.013.68.115.864.761,1.069,2.82.907,6.138,2.007,9.4,3.251a4.057,4.057,0,0,1,1.964,2c.556,1.168,1.069,2.357,1.582,3.55.624,1.446,1.266,2.943,1.98,4.363a3.414,3.414,0,0,1,.064,3.418c-.7,1.4-1.365,2.815-2.028,4.23-.62,1.318-1.245,2.635-1.886,3.939-.342.685-.3.959.209,1.45,2.52,2.4,4.787,4.667,6.925,6.921.479.514.719.544,1.442.18,1.382-.685,2.78-1.344,4.175-2.006,1.432-.676,2.87-1.356,4.294-2.062a3.146,3.146,0,0,1,3.088.059c1.489.74,3.046,1.417,4.552,2.075,1.232.535,2.459,1.069,3.674,1.643a3.525,3.525,0,0,1,1.716,1.809c1.022,2.729,2.062,5.711,3.267,9.38.214.65.45.775,1.087.787C2853.485,1152.837,2855.166,1152.82,2856.753,1152.82Zm-.163-31.26a19.7,19.7,0,0,1-13.91-33.573,19.676,19.676,0,1,1,13.919,33.573Zm.163-38.026a18.476,18.476,0,0,0-13.157,5.368,18.376,18.376,0,0,0,12.995,31.366,18.368,18.368,0,0,0,.206-36.735Z" transform="translate(-2804.131 -1050.778)"/>
            </g>
            <g id="Grupo_27873" data-name="Grupo 27873" transform="translate(2570.779 1241.176)">
              <path id="Trazado_9040" data-name="Trazado 9040" d="M2795.216,1493.054c-.911,0-1.844-.039-2.805-.112a.646.646,0,0,1,.046-1.291c11,.821,18.4-3.294,22.123-12.276,11.006-26.537-13.607-88.547-25.549-98.817-14.124-12.144-27.294-14.193-38.911-16-1.014-.159-2.015-.313-3-.475a.641.641,0,0,1-.535-.74.621.621,0,0,1,.739-.534c.989.158,1.985.312,2.994.47,11.793,1.835,25.156,3.914,39.562,16.3,12.452,10.711,37.351,72.686,25.9,100.3C2812.142,1488.627,2805.234,1493.054,2795.216,1493.054Z" transform="translate(-2746.573 -1362.788)"/>
            </g>
            <g id="Grupo_27874" data-name="Grupo 27874" transform="translate(2523.321 1232.786)">
              <path id="Trazado_9041" data-name="Trazado 9041" d="M2714.531,1398.706a.669.669,0,0,1-.633-.774l7.9-38.587-10.227-7.729-12.088,18.547a.651.651,0,0,1-1.078.009l-12.516-18.525-10.125,8.764,7.725,37.517a.646.646,0,1,1-1.265.265l-7.8-37.89a.649.649,0,0,1,.21-.62l10.963-9.491a.628.628,0,0,1,.509-.154.638.638,0,0,1,.449.278l12.379,18.32,11.933-18.312a.65.65,0,0,1,.433-.282.608.608,0,0,1,.5.119l11.1,8.4a.64.64,0,0,1,.243.646l-7.985,38.984A.642.642,0,0,1,2714.531,1398.706Z" transform="translate(-2674.412 -1350.031)"/>
            </g>
            <g id="Grupo_27875" data-name="Grupo 27875" transform="translate(2533.073 1251.917)">
              <path id="Trazado_9042" data-name="Trazado 9042" d="M2718.054,1408.665a.633.633,0,0,1-.577-.359l-13.457-27.089-13.555,27.093a.639.639,0,0,1-.869.286.646.646,0,0,1-.287-.868l14.132-28.252a.643.643,0,0,1,.578-.355.635.635,0,0,1,.578.359l14.034,28.252a.639.639,0,0,1-.291.864A.611.611,0,0,1,2718.054,1408.665Z" transform="translate(-2689.24 -1379.121)"/>
            </g>
            <g id="Grupo_27876" data-name="Grupo 27876" transform="translate(2539.565 1267.184)">
              <path id="Trazado_9043" data-name="Trazado 9043" d="M2702.911,1411.192a.648.648,0,0,1-.6-.4l-3.152-7.563a.648.648,0,0,1,1.2-.5l2.986,7.161,8.863-.017,2.6-6.3a.648.648,0,1,1,1.2.5l-2.767,6.694a.654.654,0,0,1-.6.4l-9.727.022Z" transform="translate(-2699.111 -1402.335)"/>
            </g>
            <g id="Grupo_27877" data-name="Grupo 27877" transform="translate(2524.991 1184.325)">
              <path id="Trazado_9044" data-name="Trazado 9044" d="M2692.682,1316.4c-6.92,0-13.893-2.643-15.227-9.063a56.093,56.093,0,0,1-.436-7.246l-.056-2.113c-.086-2.729.342-20.254.364-21a.646.646,0,0,1,1.292.034c0,.18-.445,18.231-.364,20.921l.056,2.125a56.929,56.929,0,0,0,.411,7.011c1.385,6.66,9.851,8.738,17.122,7.845a28.21,28.21,0,0,0,5.993-1.275.648.648,0,1,1,.427,1.223,29.593,29.593,0,0,1-6.266,1.335A27.419,27.419,0,0,1,2692.682,1316.4Z" transform="translate(-2676.952 -1276.346)"/>
            </g>
            <g id="Grupo_27878" data-name="Grupo 27878" transform="translate(2558.421 1207.915)">
              <path id="Trazado_9045" data-name="Trazado 9045" d="M2729.682,1338.38a.646.646,0,0,1-.645-.611l-1.254-24.874a.647.647,0,0,1,.612-.68.657.657,0,0,1,.68.612l1.253,24.873a.646.646,0,0,1-.611.679Z" transform="translate(-2727.782 -1312.215)"/>
            </g>
            <g id="Grupo_27879" data-name="Grupo 27879" transform="translate(2554.375 1193.013)">
              <path id="Trazado_9046" data-name="Trazado 9046" d="M2729.579,1306.481a8.416,8.416,0,0,1-5.142-1.758.647.647,0,0,1,.787-1.026,7.165,7.165,0,0,0,9.894-10.236,7.167,7.167,0,0,0-12.238,2.006.646.646,0,1,1-1.206-.461,8.452,8.452,0,1,1,7.905,11.475Z" transform="translate(-2721.631 -1289.556)"/>
            </g>
            <g id="Grupo_27880" data-name="Grupo 27880" transform="translate(2233.052 1207.13)">
              <path id="Trazado_9047" data-name="Trazado 9047" d="M2262.686,1447a24.037,24.037,0,0,1-12.7-3.3c-8.029-4.872-13.268-12.268-15.574-21.982-6.437-27.114,11.455-65.671,23.043-84.179a133.331,133.331,0,0,1,11.181-15.8c3.944-4.628,9.363-7.674,15.035-10.642a.647.647,0,1,1,.6,1.146c-5.556,2.9-10.856,5.885-14.65,10.334a132.391,132.391,0,0,0-11.07,15.647c-11.476,18.338-29.215,56.5-22.88,83.2,2.224,9.363,7.268,16.49,14.989,21.178,19.509,11.84,55.029-11.6,79.915-38.471a60.331,60.331,0,0,0-7.858-14.531c-6.151-8.264-10.4-12.293-11.6-13.375-3.435,2.207-27.722,17.969-41.273,31.216a.647.647,0,1,1-.907-.924c14.633-14.3,41.623-31.477,41.893-31.648a.63.63,0,0,1,.757.047c.193.158,4.766,3.965,12.17,13.915a60.967,60.967,0,0,1,8.178,15.253.655.655,0,0,1-.141.642C2311.218,1427.019,2283.256,1447,2262.686,1447Z" transform="translate(-2233.052 -1311.022)"/>
            </g>
            <g id="Grupo_27881" data-name="Grupo 27881" transform="translate(2354.229 1258.843)">
              <path id="Trazado_9048" data-name="Trazado 9048" d="M2433.808,1499.765a.65.65,0,0,1-.517-.257,250.253,250.253,0,0,1-15.9-24.766.647.647,0,0,1,.249-.881.654.654,0,0,1,.881.248,251.674,251.674,0,0,0,15.6,24.343c11.929-.774,26.344-11.485,28.718-13.307-2-7.151-23.526-84.226-24.787-94.766a.644.644,0,0,1,.564-.718.631.631,0,0,1,.719.564c1.283,10.719,24.634,94.147,24.869,94.989a.646.646,0,0,1-.223.68c-.671.539-16.682,13.213-30.143,13.872Z" transform="translate(-2417.304 -1389.651)"/>
            </g>
            <g id="Grupo_27882" data-name="Grupo 27882" transform="translate(2330.664 1202.394)">
              <path id="Trazado_9049" data-name="Trazado 9049" d="M2414.048,1327.88a.655.655,0,0,1-.548-.3c-7.614-12.067-17.926-19.42-31.52-22.483a.651.651,0,0,1-.492-.774.662.662,0,0,1,.774-.492c13.949,3.144,24.527,10.685,32.333,23.055a.65.65,0,0,1-.2.895A.639.639,0,0,1,2414.048,1327.88Z" transform="translate(-2381.473 -1303.82)"/>
            </g>
            <g id="Grupo_27883" data-name="Grupo 27883" transform="translate(2316.914 1155.855)">
              <path id="Trazado_9050" data-name="Trazado 9050" d="M2370.554,1268.863c-.6,0-1.227-.03-1.9-.086-2.173-.184-5.36-.573-7.566-1.018a.646.646,0,1,1,.256-1.266c2.156.432,5.282.813,7.421.992a13.249,13.249,0,0,0,5.215-.385c2.3-.723,3.875-2.468,4.811-5.326,1.566-4.77,1.485-9.945,1.4-14.95l-.008-.688c-.042-2.665-.128-5.338-.218-8.007l-.133-4.256a.663.663,0,0,1,.466-.8.653.653,0,0,1,.779.458,1.2,1.2,0,0,1,.047.321l.138,4.234c.085,2.677.175,5.355.214,8.033l.012.685c.081,5.112.167,10.4-1.467,15.373-1.083,3.285-2.93,5.3-5.655,6.155A12.469,12.469,0,0,1,2370.554,1268.863Z" transform="translate(-2360.566 -1233.056)"/>
            </g>
            <g id="Grupo_27884" data-name="Grupo 27884" transform="translate(2308.653 1143.88)">
              <path id="Trazado_9051" data-name="Trazado 9051" d="M2348.653,1236.871a.646.646,0,0,1-.3-1.219,30.719,30.719,0,0,0,15.832-20.258.634.634,0,0,1,.393-.492.61.61,0,0,1,.624.077c.4.291,9.809,7.224,11.558,12.264a.649.649,0,0,1-.4.825.637.637,0,0,1-.826-.4c-1.339-3.858-8-9.261-10.308-11.048a32.376,32.376,0,0,1-16.276,20.176A.619.619,0,0,1,2348.653,1236.871Z" transform="translate(-2348.005 -1214.848)"/>
            </g>
            <g id="Grupo_27885" data-name="Grupo 27885" transform="translate(2714.761 1334.044)">
              <path id="Trazado_9052" data-name="Trazado 9052" d="M2966.182,1541.526a.644.644,0,0,1-.646-.638c-.137-10.68.145-25.6.684-36.281a.647.647,0,0,1,1.292.068c-.54,10.655-.817,25.536-.685,36.2A.655.655,0,0,1,2966.182,1541.526Z" transform="translate(-2965.501 -1503.996)"/>
            </g>
            <g id="Grupo_27886" data-name="Grupo 27886" transform="translate(2715.119 1208.595)">
              <path id="Trazado_9053" data-name="Trazado 9053" d="M2967.342,1391.484a.646.646,0,0,1-.645-.591c-2.4-27.2,1.428-41.093,17.789-64.645.77-.624,15.7-11.78,29.172-13a.623.623,0,0,1,.706.586.65.65,0,0,1-.586.706c-12.605,1.138-27.072,11.631-28.291,12.533-16.1,23.2-19.864,36.91-17.5,63.708a.651.651,0,0,1-.59.7Z" transform="translate(-2966.045 -1313.249)"/>
            </g>
            <g id="Grupo_27887" data-name="Grupo 27887" transform="translate(2794.756 1239.266)">
              <path id="Trazado_9054" data-name="Trazado 9054" d="M3092.646,1492.192a.647.647,0,0,1-.646-.62c-.03-.808-3.036-80.822-4.05-100.609-.291-5.595-.278-10.745-.269-15.287a121.254,121.254,0,0,0-.539-15.061.647.647,0,1,1,1.283-.163,122.112,122.112,0,0,1,.552,15.228c-.012,4.526-.021,9.659.265,15.215,1.014,19.8,4.021,99.822,4.051,100.626a.646.646,0,0,1-.62.672Z" transform="translate(-3087.136 -1359.885)"/>
            </g>
            <g id="Grupo_27888" data-name="Grupo 27888" transform="translate(2663.406 1245.629)">
              <path id="Trazado_9055" data-name="Trazado 9055" d="M2964.515,1463.573c-13.978,0-27.41-5.663-38.8-11.279-13.062-6.446-25.548-14.372-37.624-22.042l-.3-.188a.645.645,0,0,1-.291-.437c-.06-.329-1.326-8.268,8.242-21.036,8.683-11.583,15.98-11.48,16.216-11.48a.6.6,0,0,1,.244.055l5.355,2.366q18.441,8.155,36.868,16.323c5.325,2.361,9.034,1.822,11.335-1.668,1.634-2.481,2.062-5.676,2.438-8.495l.727-5.484c1.313-9.868,2.665-20.069,4.1-30.091a.664.664,0,0,1,.731-.552.649.649,0,0,1,.552.732c-1.433,10.018-2.789,20.219-4.1,30.083l-.728,5.484c-.393,2.956-.842,6.3-2.643,9.034-2.669,4.055-7.028,4.769-12.935,2.139q-18.427-8.181-36.867-16.319l-5.222-2.309c-.92.051-7.4.77-15.035,10.963-8.23,10.98-8.149,18.3-8.034,19.766,12.084,7.674,24.544,15.583,37.543,22,11.254,5.552,24.518,11.147,38.231,11.147.693,0,1.386-.013,2.088-.043,22.495-.953,37.513-19.932,42.415-38.322a299.455,299.455,0,0,0,7.622-41,.622.622,0,0,1,.718-.564.645.645,0,0,1,.565.718,300.6,300.6,0,0,1-7.656,41.179c-5.022,18.847-20.459,38.3-43.613,39.28C2965.945,1463.556,2965.23,1463.573,2964.515,1463.573Z" transform="translate(-2887.415 -1369.56)"/>
            </g>
            <g id="Grupo_27889" data-name="Grupo 27889" transform="translate(2236.362 1370.282)">
              <path id="Trazado_9056" data-name="Trazado 9056" d="M2430.163,1560.389H2238.731a.646.646,0,0,1,0-1.292h191.432a.646.646,0,1,1,0,1.292Z" transform="translate(-2238.085 -1559.097)"/>
            </g>
            <g id="Grupo_27890" data-name="Grupo 27890" transform="translate(2600.73 1370.282)">
              <path id="Trazado_9057" data-name="Trazado 9057" d="M3009.39,1560.389H2792.76a.646.646,0,1,1,0-1.292h216.63a.646.646,0,0,1,0,1.292Z" transform="translate(-2792.114 -1559.097)"/>
            </g>
            <g id="Grupo_27891" data-name="Grupo 27891" transform="translate(2461.235 1370.282)">
              <path id="Trazado_9058" data-name="Trazado 9058" d="M2602.73,1560.389h-22.076a.646.646,0,0,1,0-1.292h22.076a.646.646,0,1,1,0,1.292Z" transform="translate(-2580.009 -1559.097)"/>
            </g>
            <g id="Grupo_27892" data-name="Grupo 27892" transform="translate(2474.058 1280.169)">
              <path id="Trazado_9059" data-name="Trazado 9059" d="M2725.991,1513.483H2608.7a9.2,9.2,0,0,1-9.188-9.188v-73.029a9.2,9.2,0,0,1,9.188-9.188h117.3a9.2,9.2,0,0,1,9.188,9.188V1504.3A9.2,9.2,0,0,1,2725.991,1513.483Zm-117.3-90.113a7.905,7.905,0,0,0-7.9,7.9V1504.3a7.905,7.905,0,0,0,7.9,7.9h117.3a7.9,7.9,0,0,0,7.9-7.9v-73.029a7.9,7.9,0,0,0-7.9-7.9Z" transform="translate(-2599.507 -1422.079)"/>
            </g>
            <g id="Grupo_27893" data-name="Grupo 27893" transform="translate(2531.927 1316.335)">
              <path id="Trazado_9060" data-name="Trazado 9060" d="M2697.627,1497.323a10.127,10.127,0,1,1,10.129-10.129A10.14,10.14,0,0,1,2697.627,1497.323Zm0-18.963a8.835,8.835,0,1,0,8.837,8.834A8.848,8.848,0,0,0,2697.627,1478.361Z" transform="translate(-2687.498 -1477.069)"/>
            </g>
            <g id="Grupo_27894" data-name="Grupo 27894" transform="translate(2731.159 1158.611)">
              <path id="Trazado_9061" data-name="Trazado 9061" d="M2997.007,1239.824a.622.622,0,0,1-.428-.163,4.1,4.1,0,0,0-5.12-.41.647.647,0,0,1-.753-1.052,5.385,5.385,0,0,1,6.728.5.646.646,0,0,1-.428,1.129Z" transform="translate(-2990.435 -1237.247)"/>
            </g>
            <g id="Grupo_27895" data-name="Grupo 27895" transform="translate(2720.885 1136.905)">
              <path id="Trazado_9062" data-name="Trazado 9062" d="M3050.336,1318.262a.635.635,0,0,1-.321-.085.65.65,0,0,1-.244-.881c16.212-28.5-4.555-46.222-11.3-50.974-14.068-9.906-12.918-16.292-11.01-26.866a94.4,94.4,0,0,0,1.656-12.888c.372-7.853-2.207-13.547-7.666-16.931a19.551,19.551,0,0,0-8.353-2.763,26.154,26.154,0,0,0-6.583-1.159c-14.954-1.095-22.47,2.815-24.45,12.721a8.375,8.375,0,0,0,.8,5.911.673.673,0,0,1,.106.385l-.479,12.127a.644.644,0,0,1-.411.577c-3.071,1.2-5.86,2.806-5.971,3.43-.069.612,1.963,3.037,4.346,5.189a.64.64,0,0,1,.214.521c0,.072-.423,7.015,4.033,10.651,3.1,2.519,7.815,2.921,14.039,1.184a.644.644,0,0,1,.8.449.652.652,0,0,1-.448.8c-6.665,1.853-11.776,1.373-15.215-1.437-4.453-3.636-4.556-9.91-4.512-11.417-1.617-1.476-4.791-4.6-4.53-6.155.26-1.6,4.277-3.418,6.381-4.264l.454-11.51a9.78,9.78,0,0,1-.868-6.7c2.1-10.534,10.321-14.915,25.809-13.756a26.545,26.545,0,0,1,6.643,1.163,20.742,20.742,0,0,1,8.88,2.947c4.046,2.511,8.769,7.687,8.277,18.094a95.206,95.206,0,0,1-1.672,13.055c-1.878,10.415-2.913,16.151,10.479,25.579,6.978,4.915,28.437,23.231,11.686,52.677A.64.64,0,0,1,3050.336,1318.262Z" transform="translate(-2974.812 -1204.242)"/>
            </g>
            <g id="Grupo_27896" data-name="Grupo 27896" transform="translate(2525.481 1188.535)">
              <path id="Trazado_9063" data-name="Trazado 9063" d="M2678.343,1286a.622.622,0,0,1-.273-.061.646.646,0,0,1-.312-.859c.017-.03,1.592-3.273,6.168-2.066a.639.639,0,0,1,.461.787.63.63,0,0,1-.787.462c-3.576-.933-4.663,1.338-4.671,1.365A.642.642,0,0,1,2678.343,1286Z" transform="translate(-2677.696 -1282.747)"/>
            </g>
            <g id="Grupo_27897" data-name="Grupo 27897" transform="translate(2540.794 1188.177)">
              <path id="Trazado_9064" data-name="Trazado 9064" d="M2708.621,1286.183a.648.648,0,0,1-.509-.248c-3.032-3.867-6.01-2.032-6.133-1.955a.64.64,0,0,1-.895-.192.647.647,0,0,1,.193-.894c.039-.034,4.1-2.554,7.854,2.245a.643.643,0,0,1-.111.907A.625.625,0,0,1,2708.621,1286.183Z" transform="translate(-2700.981 -1282.203)"/>
            </g>
            <path id="Trazado_9065" data-name="Trazado 9065" d="M2364.87,1244.551c.516-.081.863.14,1.011,2,.166,2.076-.372,2.442-.838,2.424s-.933-.66-.91-2.142S2364.194,1244.658,2364.87,1244.551Z" transform="translate(-44.873 -81.131)"/>
            <path id="Trazado_9066" data-name="Trazado 9066" d="M2387.568,1243.728c.514-.1.867.111,1.078,1.966.236,2.068-.289,2.453-.755,2.45s-.954-.627-.982-2.11S2386.895,1243.857,2387.568,1243.728Z" transform="translate(-52.667 -80.848)"/>
            <g id="Grupo_27898" data-name="Grupo 27898" transform="translate(2331.779 1156.904)">
              <path id="Trazado_9067" data-name="Trazado 9067" d="M2388.186,1236.891a.647.647,0,0,1-.424-.158c-.68-.586-1.655-1.1-3.785-.557a.631.631,0,0,1-.787-.462.644.644,0,0,1,.462-.787c2.746-.727,4.145.129,4.957.83a.645.645,0,0,1,.064.911A.631.631,0,0,1,2388.186,1236.891Z" transform="translate(-2383.168 -1234.651)"/>
            </g>
            <g id="Grupo_27899" data-name="Grupo 27899" transform="translate(2317.089 1156.941)">
              <path id="Trazado_9068" data-name="Trazado 9068" d="M2361.479,1237.326a.646.646,0,0,1-.42-1.138,7.185,7.185,0,0,1,6.309-1.219.647.647,0,1,1-.368,1.24,5.953,5.953,0,0,0-5.1.962A.643.643,0,0,1,2361.479,1237.326Z" transform="translate(-2360.832 -1234.707)"/>
            </g>
            <g id="Grupo_27900" data-name="Grupo 27900" transform="translate(2534.284 1222.39)">
              <path id="Trazado_9069" data-name="Trazado 9069" d="M2691.729,1345.914a.645.645,0,0,1-.646-.645l.021-10.4a.646.646,0,0,1,1.292,0l-.022,10.4A.645.645,0,0,1,2691.729,1345.914Z" transform="translate(-2691.082 -1334.224)"/>
            </g>
            <g id="Grupo_27901" data-name="Grupo 27901" transform="translate(2541.409 1274.747)">
              <path id="Trazado_9070" data-name="Trazado 9070" d="M2702.563,1420.548c-.5-.1-.715-.448-.629-.8l1.309-5.419a.647.647,0,1,1,1.257.308l-1.309,5.419A.647.647,0,0,1,2702.563,1420.548Z" transform="translate(-2701.916 -1413.834)"/>
            </g>
            <g id="Grupo_27902" data-name="Grupo 27902" transform="translate(2552.445 1274.725)">
              <path id="Trazado_9071" data-name="Trazado 9071" d="M2720.977,1420.537a.65.65,0,0,1-.62-.458l-1.634-5.441a.648.648,0,1,1,1.24-.376l1.634,5.441a.648.648,0,0,1-.432.809A.729.729,0,0,1,2720.977,1420.537Z" transform="translate(-2718.695 -1413.801)"/>
            </g>
            <g id="Grupo_27903" data-name="Grupo 27903" transform="translate(2525.366 1177.935)">
              <path id="Trazado_9072" data-name="Trazado 9072" d="M2708.678,1285.578a.653.653,0,0,1-.359-.107c-7.588-5.1-9.436-13.272-9.885-16.652-2.476,2.52-9.4,8.068-20.412,5.475a.645.645,0,0,1,.292-1.258c13.2,3.058,20.035-6.052,20.1-6.143a.661.661,0,0,1,.714-.24.653.653,0,0,1,.454.6c0,.112.475,11.109,9.453,17.14a.646.646,0,0,1-.359,1.185Z" transform="translate(-2677.522 -1266.63)"/>
            </g>
            <g id="Grupo_27904" data-name="Grupo 27904" transform="translate(2519.62 1158.151)">
              <path id="Trazado_9073" data-name="Trazado 9073" d="M2717.048,1274.557a.646.646,0,0,1-.235-1.249c-.017,0,1.963-1.373,3.135-11.762.724-6.455-3.161-10.091-5.945-10.964-5.322-1.647-12.135-.9-12.208-.9a.609.609,0,0,1-.65-.35c-3.666-7.25-8.414-9.941-11.746-10.916a13.923,13.923,0,0,0-11.066,1.386c-3.546,2.087-5.74,4.74-6.518,7.887-1.258,5.061,1.565,9.727,1.594,9.774a.643.643,0,0,1-.064.761.653.653,0,0,1-.749.171c-.886-.42-1.63.868-1.835,1.27-1.424,2.862-.992,8.533,4.47,11.6a.647.647,0,1,1-.633,1.129c-6.194-3.482-6.643-10-5-13.307a3.537,3.537,0,0,1,2.148-2.007,14.94,14.94,0,0,1-1.194-9.706c.868-3.494,3.264-6.42,7.117-8.687a15.135,15.135,0,0,1,12.088-1.514c3.516,1.031,8.482,3.807,12.336,11.177,1.643-.141,7.439-.509,12.289,1,3.952,1.232,7.571,5.869,6.844,12.34-1.266,11.232-3.512,12.652-3.948,12.823A.643.643,0,0,1,2717.048,1274.557Z" transform="translate(-2668.784 -1236.547)"/>
            </g>
            <g id="Grupo_27905" data-name="Grupo 27905" transform="translate(2399.782 1173.461)">
              <path id="Trazado_9074" data-name="Trazado 9074" d="M2503.724,1301.651a.647.647,0,0,1-.646-.608c-.162-2.741-.8-12.767-.8-12.767.017-.193,2.469-10.5,2.469-10.5.141-.513.269-1.01.389-1.5.756-3.114,1.441-6.66-.052-9.252a8.094,8.094,0,0,0-3.606-2.9,33.186,33.186,0,0,0-6.275-2.485,11.4,11.4,0,0,0-3.024-.526c-1.968,0-4.123,1.223-4.3,3.5a5.308,5.308,0,0,0,1.514,3.832,18.585,18.585,0,0,0,4.675,3.465,17.532,17.532,0,0,0,8.311,2.289.646.646,0,0,1,0,1.292,18.81,18.81,0,0,1-8.94-2.45,19.709,19.709,0,0,1-5.01-3.73,6.537,6.537,0,0,1-1.839-4.8c.244-3.054,3.045-4.692,5.574-4.692a12.8,12.8,0,0,1,3.4.569,34.9,34.9,0,0,1,6.523,2.588,9.12,9.12,0,0,1,4.128,3.4c1.728,3.007,1.006,6.844.189,10.21-.128.505-.257,1.01-.394,1.51l-2.426,10.189c.068,1.035.642,10.095.8,12.678a.65.65,0,0,1-.608.684Z" transform="translate(-2486.569 -1259.826)"/>
            </g>
            <g id="Grupo_27906" data-name="Grupo 27906" transform="translate(2384.04 1192.997)">
              <path id="Trazado_9075" data-name="Trazado 9075" d="M2468.984,1317.009a.649.649,0,0,1-.636-.536l-2.007-11.689a146.822,146.822,0,0,1-3.7-14.475.646.646,0,0,1,1.266-.257c1.617,7.986,3.662,14.36,3.683,14.424l2.027,11.776a.646.646,0,0,1-.526.748A.476.476,0,0,1,2468.984,1317.009Z" transform="translate(-2462.632 -1289.531)"/>
            </g>
            <g id="Grupo_27907" data-name="Grupo 27907" transform="translate(2380.974 1173.759)">
              <path id="Trazado_9076" data-name="Trazado 9076" d="M2464.852,1281.955a5.352,5.352,0,0,1-3.606-1.309,4.906,4.906,0,0,1-.911-1.142,7.58,7.58,0,0,1-.838-2.178c-.877-3.755-1.839-7.886-1.428-11.677a6.547,6.547,0,0,1,1.664-3.871,5.122,5.122,0,0,1,5.492-1.142c1.981.792,3.221,2.93,3.914,4.59a21.324,21.324,0,0,1,.873,2.66c.085.316.167.638.239.963a22.475,22.475,0,0,1,.723,6.69,7.57,7.57,0,0,1-2.027,4.8A5.833,5.833,0,0,1,2464.852,1281.955Zm-1.467-20.373a3.854,3.854,0,0,0-2.729,1.095,5.354,5.354,0,0,0-1.3,3.114c-.385,3.567.552,7.583,1.377,11.13a6.681,6.681,0,0,0,.719,1.92,3.6,3.6,0,0,0,.671.851,4.488,4.488,0,0,0,5.92-.274,6.3,6.3,0,0,0,1.643-3.982,21.484,21.484,0,0,0-.688-6.3c-.072-.308-.146-.612-.232-.915a19.73,19.73,0,0,0-.821-2.5c-.488-1.167-1.549-3.229-3.2-3.888A3.687,3.687,0,0,0,2463.385,1261.582Z" transform="translate(-2457.971 -1260.28)"/>
            </g>
            <g id="Grupo_27908" data-name="Grupo 27908" transform="translate(2399.852 1154.206)">
              <path id="Trazado_9077" data-name="Trazado 9077" d="M2500.142,1253.145a.647.647,0,0,1-.642-.565c-.672-5.38-1.664-11.664-3.931-17.435a6.749,6.749,0,0,0-1.634-2.691c-1.446-1.244-3.161-.359-4.2.774-2.464,2.7-1.835,5.993-1.176,9.483l.141.736q.648,3.517,1.258,7.037a.647.647,0,0,1-.526.748.616.616,0,0,1-.749-.527q-.6-3.516-1.258-7.023l-.137-.727c-.693-3.653-1.407-7.425,1.489-10.6,1.548-1.686,4-2.614,6-.877a7.833,7.833,0,0,1,1.993,3.191,73.735,73.735,0,0,1,4.008,17.747.646.646,0,0,1-.56.723A.515.515,0,0,1,2500.142,1253.145Z" transform="translate(-2486.675 -1230.549)"/>
            </g>
            <g id="Grupo_27909" data-name="Grupo 27909" transform="translate(2391.586 1171.211)">
              <path id="Trazado_9078" data-name="Trazado 9078" d="M2482.7,1277.878a7.57,7.57,0,0,1-3.533-.89,7.335,7.335,0,0,1-3.208-4.414c-.36-1.168-.616-2.387-.86-3.563-.137-.672-.278-1.338-.437-2a11.428,11.428,0,0,1-.183-6.249c.856-2.609,3.935-4.97,7.023-4.209,2.207.556,3.606,1.908,3.829,3.713a.647.647,0,0,1-.561.723.627.627,0,0,1-.722-.56c-.214-1.707-1.882-2.374-2.862-2.618-2.332-.586-4.8,1.292-5.475,3.354a10.291,10.291,0,0,0,.21,5.547c.162.671.3,1.351.445,2.036.24,1.146.487,2.335.834,3.448a6.072,6.072,0,0,0,2.583,3.657,5.5,5.5,0,0,0,5.407.046c1.489-.97,2.164-2.891,1.946-5.556a.647.647,0,0,1,.6-.7.677.677,0,0,1,.7.594c.324,3.995-1.2,5.872-2.533,6.746A5.816,5.816,0,0,1,2482.7,1277.878Z" transform="translate(-2474.107 -1256.406)"/>
            </g>
            <g id="Grupo_27910" data-name="Grupo 27910" transform="translate(2461.6 1296)">
              <path id="Trazado_9079" data-name="Trazado 9079" d="M2591.53,1447.848c-3.559,0-7.041-.137-10.368-.406a.647.647,0,0,1-.594-.7.681.681,0,0,1,.7-.595c3.957.321,8.114.441,12.4.389a.646.646,0,1,1,.017,1.292C2592.959,1447.844,2592.244,1447.848,2591.53,1447.848Z" transform="translate(-2580.565 -1446.15)"/>
            </g>
            <g id="Grupo_27911" data-name="Grupo 27911" transform="translate(2381.896 1216.406)">
              <path id="Trazado_9080" data-name="Trazado 9080" d="M2522.41,1403.18a76.861,76.861,0,0,1-36-20.134c-14.817-14.826-20.668-35.1-26.327-54.717l-.685-2.378a.646.646,0,0,1,1.241-.36l.688,2.379c5.612,19.453,11.417,39.57,26,54.16a75.635,75.635,0,0,0,35.246,19.775.647.647,0,0,1-.162,1.274Z" transform="translate(-2459.372 -1325.126)"/>
            </g>
            <g id="Grupo_27912" data-name="Grupo 27912" transform="translate(2381.851 1206.682)">
              <path id="Trazado_9081" data-name="Trazado 9081" d="M2469.932,1324.175c-5.719,0-10.172-1.019-10.591-3.452-.364-2.117,1.882-4.093,6.861-6.049a.648.648,0,0,1,.471,1.207c-4.077,1.6-6.283,3.285-6.057,4.619.337,1.972,8.139,3.452,20.087,1.4,11.364-1.958,18.854-5.8,18.474-8.024-.2-1.167-2.031-1.942-5.3-2.241a.654.654,0,0,1-.586-.706.611.611,0,0,1,.706-.586c4.026.372,6.139,1.455,6.455,3.316.667,3.879-9.56,7.8-19.526,9.517A66.638,66.638,0,0,1,2469.932,1324.175Z" transform="translate(-2459.303 -1310.339)"/>
            </g>
            <g id="Grupo_27913" data-name="Grupo 27913" transform="translate(2553.301 1160.739)">
              <path id="Trazado_9082" data-name="Trazado 9082" d="M2720.644,1250.925a.675.675,0,0,1-.308-.077.646.646,0,0,1-.261-.877c.184-.342,4.572-8.426,8.619-9.466a.64.64,0,0,1,.791.466.653.653,0,0,1-.466.791c-2.909.745-6.621,6.621-7.807,8.825A.646.646,0,0,1,2720.644,1250.925Z" transform="translate(-2719.997 -1240.482)"/>
            </g>
            <g id="Grupo_27914" data-name="Grupo 27914" transform="translate(2550.849 1163.08)">
              <path id="Trazado_9083" data-name="Trazado 9083" d="M2716.917,1250.329a.675.675,0,0,1-.283-.064.644.644,0,0,1-.3-.864,26.136,26.136,0,0,0,1.783-4.838.648.648,0,1,1,1.274.24,26.611,26.611,0,0,1-1.9,5.163A.644.644,0,0,1,2716.917,1250.329Z" transform="translate(-2716.269 -1244.041)"/>
            </g>
            <g id="Grupo_27915" data-name="Grupo 27915" transform="translate(2530.902 1194.281)">
              <path id="Trazado_9084" data-name="Trazado 9084" d="M2691.858,1304.849c-.423,0-4.179-.039-5.449-1.39a1.667,1.667,0,0,1-.466-1.262c.133-2.053,2.977-9.954,3.1-10.287a.646.646,0,0,1,1.216.437c-.8,2.237-2.926,8.383-3.025,9.936a.359.359,0,0,0,.12.291c.671.714,3.118.985,4.5.985a.646.646,0,0,1,0,1.292Z" transform="translate(-2685.939 -1291.484)"/>
            </g>
            <g id="Grupo_27917" data-name="Grupo 27917" transform="translate(2535.735 1205.31)">
              <g id="Grupo_27916" data-name="Grupo 27916" transform="translate(0 0)">
                <path id="Trazado_9085" data-name="Trazado 9085" d="M2698.779,1319.987a7.477,7.477,0,0,1-2.113-.312,4.752,4.752,0,0,1-3.191-2.485,2.515,2.515,0,0,1,.343-2.52,3.571,3.571,0,0,1,3.332-1.146c1.758.214,1.907.1,2.254-.162s.514-.377.822-2.1a3.668,3.668,0,0,1,2.08-2.844,2.552,2.552,0,0,1,2.51.419,4.511,4.511,0,0,1,1.3,3.627,7.573,7.573,0,0,1-2.921,6.049A7.446,7.446,0,0,1,2698.779,1319.987Zm-2.194-5.206a2.225,2.225,0,0,0-1.754.7,1.24,1.24,0,0,0-.141,1.266,3.608,3.608,0,0,0,2.348,1.69,6.044,6.044,0,0,0,5.39-.967,6.248,6.248,0,0,0,2.395-5.014,3.386,3.386,0,0,0-.8-2.592,1.231,1.231,0,0,0-1.253-.239,2.4,2.4,0,0,0-1.275,1.868c-.364,2.032-.655,2.413-1.326,2.914-.723.526-1.227.646-3.182.4A3.289,3.289,0,0,0,2696.585,1314.781Z" transform="translate(-2693.287 -1308.253)"/>
              </g>
            </g>
            <g id="Grupo_27918" data-name="Grupo 27918" transform="translate(2543.114 1206.69)">
              <path id="Trazado_9086" data-name="Trazado 9086" d="M2705.892,1319.842a.65.65,0,0,1-.564-.329c-2.426-4.333,1.087-7.832,3.281-9.077a.647.647,0,0,1,.641,1.125c-.213.124-5.193,3.033-2.793,7.318a.646.646,0,0,1-.565.963Z" transform="translate(-2704.507 -1310.352)"/>
            </g>
            <g id="Grupo_27919" data-name="Grupo 27919" transform="translate(2558.084 1196.237)">
              <path id="Trazado_9087" data-name="Trazado 9087" d="M2733.985,1304.4a.661.661,0,0,1-.286-.064l-6.07-3a.65.65,0,0,1-.175-1.035l5.518-5.642a.647.647,0,1,1,.923.907l-4.893,5,5.27,2.606a.646.646,0,0,1-.287,1.227Z" transform="translate(-2727.269 -1294.458)"/>
            </g>
            <g id="Grupo_27920" data-name="Grupo 27920" transform="translate(2588.492 1274.934)">
              <path id="Trazado_9088" data-name="Trazado 9088" d="M2774.152,1420.458a.643.643,0,0,1-.646-.646v-5.048a.646.646,0,0,1,1.292,0v5.048A.642.642,0,0,1,2774.152,1420.458Z" transform="translate(-2773.506 -1414.119)"/>
            </g>
            <g id="Grupo_27922" data-name="Grupo 27922" transform="translate(2377.199 1102.674)">
              <g id="Grupo_27921" data-name="Grupo 27921">
                <path id="Trazado_9089" data-name="Trazado 9089" d="M2466.664,1181.263a8.22,8.22,0,0,1-3.422-.787,13.948,13.948,0,0,1-5.364-4.465,29.085,29.085,0,0,1-4.436-8.842c-.308-.937-.573-1.886-.842-2.853l-.342-1.227a.629.629,0,0,1,.056-.5.654.654,0,0,1,.393-.308l4.927-1.361a.932.932,0,0,1,1.1.377,36.371,36.371,0,0,0,6.792,6.827,2.282,2.282,0,0,0,2.13.441,8.487,8.487,0,0,0,2.545-1.172,34.68,34.68,0,0,0,5.591-4.641,105.2,105.2,0,0,0,8.9-10.09,1.08,1.08,0,0,1,1.253-.416c1.39.4,2.789.783,4.184,1.169l1.009.277c.112.034.214.068.334.111a.654.654,0,0,1,.359.886c-.069.145-.107.222-.15.295a124.162,124.162,0,0,1-11.374,16.477,41.579,41.579,0,0,1-7.276,7.156,22.388,22.388,0,0,1-2.861,1.753A7.466,7.466,0,0,1,2466.664,1181.263Zm-12.986-17.906.172.612c.26.946.522,1.878.825,2.8a27.936,27.936,0,0,0,4.23,8.46,12.746,12.746,0,0,0,4.872,4.068,6.243,6.243,0,0,0,5.787-.068,21.879,21.879,0,0,0,2.7-1.651,40.368,40.368,0,0,0,7.045-6.942,121.931,121.931,0,0,0,10.972-15.83l-.505-.141c-1.368-.377-2.742-.753-4.111-1.146a107.018,107.018,0,0,1-8.969,10.163,35.775,35.775,0,0,1-5.8,4.812,10.158,10.158,0,0,1-2.934,1.334,3.593,3.593,0,0,1-3.238-.68,37.741,37.741,0,0,1-6.917-6.925Z" transform="translate(-2452.23 -1152.193)"/>
              </g>
            </g>
            <g id="Grupo_27923" data-name="Grupo 27923" transform="translate(2366.948 1086.869)">
              <path id="Trazado_9090" data-name="Trazado 9090" d="M2466.721,1188.315a30.055,30.055,0,1,1,28.325-19.937.648.648,0,0,1-.825.389.639.639,0,0,1-.389-.825,28.793,28.793,0,1,0-27.111,19.081.646.646,0,1,1,0,1.292Z" transform="translate(-2436.643 -1128.161)"/>
            </g>
            <g id="Grupo_27924" data-name="Grupo 27924" transform="translate(2347.215 1098.921)">
              <path id="Trazado_9091" data-name="Trazado 9091" d="M2422.41,1155.59a.616.616,0,0,1-.3-.072l-15.124-7.81a.645.645,0,1,1,.59-1.146l15.125,7.81a.645.645,0,0,1-.3,1.219Z" transform="translate(-2406.638 -1146.486)"/>
            </g>
            <g id="Grupo_27925" data-name="Grupo 27925" transform="translate(2423.207 1086.359)">
              <path id="Trazado_9092" data-name="Trazado 9092" d="M2522.834,1138.038a.646.646,0,0,1-.415-1.142l11.211-9.355a.647.647,0,0,1,.831.992l-11.212,9.355A.635.635,0,0,1,2522.834,1138.038Z" transform="translate(-2522.186 -1127.387)"/>
            </g>
            <g id="Grupo_27926" data-name="Grupo 27926" transform="translate(2421.047 1139.166)">
              <path id="Trazado_9093" data-name="Trazado 9093" d="M2536.736,1223.291a.64.64,0,0,1-.415-.15l-17.187-14.317a.647.647,0,0,1,.831-.992l17.187,14.316a.646.646,0,0,1-.415,1.142Z" transform="translate(-2518.902 -1207.68)"/>
            </g>
            <g id="Grupo_27927" data-name="Grupo 27927" transform="translate(2396.38 1067.09)">
              <path id="Trazado_9094" data-name="Trazado 9094" d="M2482.042,1115.2a.643.643,0,0,1-.646-.646v-15.818a.646.646,0,0,1,1.292,0v15.818A.643.643,0,0,1,2482.042,1115.2Z" transform="translate(-2481.396 -1098.087)"/>
            </g>
            <g id="Grupo_27928" data-name="Grupo 27928" transform="translate(2369.046 1143.372)">
              <path id="Trazado_9095" data-name="Trazado 9095" d="M2440.482,1220.861a.64.64,0,0,1-.441-.171.649.649,0,0,1-.034-.916l5.107-5.492a.648.648,0,0,1,.95.881l-5.106,5.492A.648.648,0,0,1,2440.482,1220.861Z" transform="translate(-2439.834 -1214.076)"/>
            </g>
            <g id="Grupo_27929" data-name="Grupo 27929" transform="translate(2298.84 1163.874)">
              <path id="Trazado_9096" data-name="Trazado 9096" d="M2340.486,1260.029c-.158,0-.316-.009-.475-.017a7.391,7.391,0,0,1-6.912-7.836,7.475,7.475,0,0,1,7.837-6.917,7.352,7.352,0,0,1,4.046,1.519.647.647,0,1,1-.787,1.027,6.1,6.1,0,1,0-.916,10.245.647.647,0,0,1,.6,1.146A7.329,7.329,0,0,1,2340.486,1260.029Z" transform="translate(-2333.084 -1245.249)"/>
            </g>
            <g id="Grupo_27930" data-name="Grupo 27930" transform="translate(2303.628 1166.798)">
              <path id="Trazado_9097" data-name="Trazado 9097" d="M2341.485,1258.227a.646.646,0,0,1-.393-1.159l3.872-2.99-4.338-3.213a.649.649,0,0,1,.77-1.044l5.026,3.722a.647.647,0,0,1,.261.513.64.64,0,0,1-.252.521l-4.551,3.517A.64.64,0,0,1,2341.485,1258.227Z" transform="translate(-2340.364 -1249.695)"/>
            </g>
            <g id="Grupo_27931" data-name="Grupo 27931" transform="translate(2308.289 1190.523)">
              <path id="Trazado_9098" data-name="Trazado 9098" d="M2362.511,1312.5a.674.674,0,0,1-.4-.133l-14.411-11.16a.649.649,0,0,1,.8-1.026l13.559,10.505,2.379-13.5.568-10.813a.664.664,0,0,1,.68-.612.65.65,0,0,1,.612.681l-.578,10.89-2.571,14.628a.644.644,0,0,1-.637.536Z" transform="translate(-2347.451 -1285.77)"/>
            </g>
            <g id="Grupo_27932" data-name="Grupo 27932" transform="translate(2278.126 1181.942)">
              <path id="Trazado_9099" data-name="Trazado 9099" d="M2305.182,1287.1a.634.634,0,0,1-.4-.136,8.091,8.091,0,0,1-3.165-7.259,6.83,6.83,0,0,1,2-4.162,10.567,10.567,0,0,1,7.93-2.81,7.878,7.878,0,0,1,5.958,2.9.647.647,0,0,1-1.027.787,6.64,6.64,0,0,0-5.013-2.391,9.008,9.008,0,0,0-6.925,2.425,5.508,5.508,0,0,0-1.63,3.358,6.841,6.841,0,0,0,2.669,6.137.646.646,0,0,1-.4,1.155Z" transform="translate(-2301.588 -1272.721)"/>
            </g>
            <g id="Grupo_27933" data-name="Grupo 27933" transform="translate(2331.239 1189.276)">
              <path id="Trazado_9100" data-name="Trazado 9100" d="M2384.486,1298.09a.655.655,0,0,1-.376-.12.645.645,0,0,1-.15-.9c4.294-6.057-1.374-12.036-1.433-12.1a.647.647,0,0,1,.932-.9c.064.069,6.467,6.823,1.553,13.748A.644.644,0,0,1,2384.486,1298.09Z" transform="translate(-2382.346 -1283.874)"/>
            </g>
            <g id="Grupo_27934" data-name="Grupo 27934" transform="translate(2304.104 1177.074)">
              <path id="Trazado_9101" data-name="Trazado 9101" d="M2343.3,1294.327a9.651,9.651,0,0,1-1.694-.124.641.641,0,0,1-.509-.757.671.671,0,0,1,.757-.513c.389.094,9.5,1.686,11.93-9.146,2.48-11-8.842-17.182-8.958-17.246a.645.645,0,0,1,.607-1.138c.124.064,12.31,6.72,9.616,18.667C2353,1293.193,2346.439,1294.327,2343.3,1294.327Z" transform="translate(-2341.089 -1265.321)"/>
            </g>
            <g id="Grupo_27935" data-name="Grupo 27935" transform="translate(2344.498 1257.691)">
              <path id="Trazado_9102" data-name="Trazado 9102" d="M2403.156,1408.274a.646.646,0,0,1-.394-1.159c.449-.347,1.5-.945,2.947-1.776,4.573-2.613,13.085-7.476,14.582-11.275.787-1.984.671-3.461-.325-4.264a3.086,3.086,0,0,0-3.285-.231.648.648,0,0,1-.719-1.078,4.333,4.333,0,0,1,4.817.3c.847.684,2.065,2.344.718,5.753-1.668,4.217-10.1,9.038-15.146,11.921-1.352.774-2.422,1.382-2.8,1.676A.643.643,0,0,1,2403.156,1408.274Z" transform="translate(-2402.507 -1387.899)"/>
            </g>
            <g id="Grupo_27936" data-name="Grupo 27936" transform="translate(2328.321 1265.956)">
              <path id="Trazado_9103" data-name="Trazado 9103" d="M2378.558,1429.994a.646.646,0,0,1-.338-1.2c.1-.064,10.642-6.523,24.121-14.4,4.867-2.845,7.8-5.95,8.482-8.987a5.2,5.2,0,0,0-.505-3.927.647.647,0,0,1,1.061-.74,6.485,6.485,0,0,1,.719,4.9c-.757,3.461-3.82,6.78-9.107,9.872-13.465,7.866-23.988,14.322-24.094,14.385A.656.656,0,0,1,2378.558,1429.994Z" transform="translate(-2377.91 -1400.468)"/>
            </g>
            <g id="Grupo_27937" data-name="Grupo 27937" transform="translate(2326.949 1225.162)">
              <path id="Trazado_9104" data-name="Trazado 9104" d="M2376.47,1372.436a.665.665,0,0,1-.637-.753c3.431-20.112,8.9-32.731,8.953-32.859a.652.652,0,0,1,.594-.385h26.734a.646.646,0,1,1,0,1.292h-26.306a158.9,158.9,0,0,0-8.7,32.167A.644.644,0,0,1,2376.47,1372.436Z" transform="translate(-2375.824 -1338.439)"/>
            </g>
            <g id="Grupo_27938" data-name="Grupo 27938" transform="translate(2329.375 1225.162)">
              <path id="Trazado_9105" data-name="Trazado 9105" d="M2422.313,1416.2h-42.155a.646.646,0,0,1,0-1.292h41.518c.684-43.052,9.273-70.077,11.036-75.176h-19.334a.646.646,0,1,1,0-1.292h20.25a.643.643,0,0,1,.6.877c-.1.278-10.6,28.364-11.271,76.245A.644.644,0,0,1,2422.313,1416.2Z" transform="translate(-2379.513 -1338.439)"/>
            </g>
            <g id="Grupo_27939" data-name="Grupo 27939" transform="translate(2353.546 1301.629)">
              <path id="Trazado_9106" data-name="Trazado 9106" d="M2419.487,1524.662a.659.659,0,0,1-.526-.261c-1.664-2.168-2.537-43.5-2.7-69.042a.646.646,0,0,1,1.292-.008c.218,35.066,1.338,66.338,2.442,68.281a.637.637,0,0,1-.124.9A.63.63,0,0,1,2419.487,1524.662Z" transform="translate(-2416.266 -1454.709)"/>
            </g>
            <g id="Grupo_27940" data-name="Grupo 27940" transform="translate(2251.209 1339.891)">
              <path id="Trazado_9107" data-name="Trazado 9107" d="M2261.5,1544.433a.649.649,0,0,1-.646-.615c-.432-8.937,0-30.084,0-30.3a.663.663,0,0,1,.659-.633.643.643,0,0,1,.633.658c0,.214-.427,21.319,0,30.211a.646.646,0,0,1-.616.676Z" transform="translate(-2260.66 -1512.887)"/>
            </g>
            <g id="Grupo_27941" data-name="Grupo 27941" transform="translate(2277.257 1239.166)">
              <path id="Trazado_9108" data-name="Trazado 9108" d="M2300.914,1416.7a.645.645,0,0,1-.577-.937c10.625-21.109,11.99-55.067,12-55.41a.6.6,0,0,1,.671-.62.646.646,0,0,1,.62.672c-.012.342-1.386,34.574-12.139,55.939A.642.642,0,0,1,2300.914,1416.7Z" transform="translate(-2300.266 -1359.733)"/>
            </g>
            <g id="Grupo_27942" data-name="Grupo 27942" transform="translate(2398.116 1355.244)">
              <path id="Trazado_9109" data-name="Trazado 9109" d="M2510.047,1547.253a.636.636,0,0,1-.248-.047,22.62,22.62,0,0,0-7.11-1.51c-11.9-1-18.229-8.088-18.5-8.388a.649.649,0,0,1,.976-.856,27.882,27.882,0,0,0,17.632,7.952,24,24,0,0,1,7.494,1.6.646.646,0,0,1-.248,1.244Z" transform="translate(-2484.036 -1536.232)"/>
            </g>
            <g id="Grupo_27943" data-name="Grupo 27943" transform="translate(2406.079 1360.776)">
              <path id="Trazado_9110" data-name="Trazado 9110" d="M2511.758,1555.2a.63.63,0,0,1-.389-.132.642.642,0,0,1-.128-.9,3.518,3.518,0,0,0,.658-2.8c-.321-.889-1.339-1.543-3.029-1.946-5.993-1.428-12.22-3.49-12.285-3.507a.65.65,0,0,1,.411-1.233c.06.022,6.237,2.066,12.173,3.483,2.147.509,3.474,1.445,3.949,2.776.7,1.954-.783,3.926-.847,4.012A.634.634,0,0,1,2511.758,1555.2Z" transform="translate(-2496.143 -1544.643)"/>
            </g>
            <g id="Grupo_27944" data-name="Grupo 27944" transform="translate(2388.716 1364.557)">
              <path id="Trazado_9111" data-name="Trazado 9111" d="M2477.419,1557.408c-8.157-1.685-7.691-6.254-7.665-6.446a.633.633,0,0,1,.718-.565.644.644,0,0,1,.565.715c-.012.17-.248,3.605,6.514,5.017a.646.646,0,0,1-.132,1.278Z" transform="translate(-2469.742 -1550.391)"/>
            </g>
            <g id="Grupo_27945" data-name="Grupo 27945" transform="translate(2374.454 1367.062)">
              <path id="Trazado_9112" data-name="Trazado 9112" d="M2450.79,1558.576a.637.637,0,0,1-.453-.184,9.5,9.5,0,0,1-2.246-3.336.647.647,0,0,1,1.223-.423,8.361,8.361,0,0,0,1.93,2.837.646.646,0,0,1-.454,1.108Z" transform="translate(-2448.056 -1554.201)"/>
            </g>
            <g id="Grupo_27946" data-name="Grupo 27946" transform="translate(2328.642 1162.756)">
              <path id="Trazado_9113" data-name="Trazado 9113" d="M2381.706,1257.257a.646.646,0,0,1-.368-1.181c.829-.569,2.468-2.455,2.622-3.64.043-.325-.051-.437-.085-.471-.325-.393-1.583.15-2.25.433-.74.32-1.223.526-1.646.316a.888.888,0,0,1-.411-.5c-.167-.612-1-6.715-1.164-7.935a.647.647,0,0,1,1.283-.17c.316,2.331.818,5.915,1.035,7.263.128-.051.27-.111.39-.162,1.112-.483,2.788-1.211,3.747-.09a1.822,1.822,0,0,1,.385,1.48c-.218,1.7-2.182,3.863-3.169,4.542A.65.65,0,0,1,2381.706,1257.257Z" transform="translate(-2378.398 -1243.55)"/>
            </g>
            <g id="Grupo_27947" data-name="Grupo 27947" transform="translate(2321.45 1175.643)">
              <path id="Trazado_9114" data-name="Trazado 9114" d="M2372.376,1268.751a4.559,4.559,0,0,1-2.648-.782,6.14,6.14,0,0,1-2.263-4.116.649.649,0,0,1,1.292-.124,4.855,4.855,0,0,0,1.711,3.179,4.161,4.161,0,0,0,3.52.308.647.647,0,1,1,.343,1.249A7.5,7.5,0,0,1,2372.376,1268.751Z" transform="translate(-2367.463 -1263.144)"/>
            </g>
            <path id="Trazado_9115" data-name="Trazado 9115" d="M2995.381,1247.8c-.521-.033-.847.218-.825,2.085.023,2.082.592,2.4,1.054,2.336s.868-.74.712-2.215S2996.065,1247.842,2995.381,1247.8Z" transform="translate(-260.686 -82.247)"/>
            <g id="Grupo_27948" data-name="Grupo 27948" transform="translate(2725.732 1179.139)">
              <path id="Trazado_9116" data-name="Trazado 9116" d="M2984.926,1273.779a7.09,7.09,0,0,1-2.31-.432.648.648,0,0,1,.427-1.224,4.115,4.115,0,0,0,3.542-.073,4.827,4.827,0,0,0,1.921-3.041.6.6,0,0,1,.744-.53.642.642,0,0,1,.53.744,6.1,6.1,0,0,1-2.537,3.939A4.437,4.437,0,0,1,2984.926,1273.779Z" transform="translate(-2982.182 -1268.459)"/>
            </g>
            <g id="Grupo_27951" data-name="Grupo 27951" transform="translate(2438.222 1275.584)">
              <g id="Grupo_27949" data-name="Grupo 27949" transform="translate(0 15.071)">
                <path id="Trazado_9117" data-name="Trazado 9117" d="M2556.563,1483.033c-.227,0-.458,0-.689-.013-6.326-.193-8.936-3.277-10.014-5.834-2.07-4.927-.051-11.408,3.1-14.834.055-.064,2.129-2.6.089-8.717-1.33-3.99-1.018-7.947.86-10.86,1.715-2.669,4.611-4.286,8.371-4.68a10.822,10.822,0,0,1,9.381,3.452,11.632,11.632,0,0,1,2.895,9.791l-.14.676c-1.01,4.824-1.313,6.283.128,11.027.972,3.187,1.122,10.06-2.613,14.941C2565.369,1481.334,2561.545,1483.033,2556.563,1483.033Zm3.079-43.719a12.242,12.242,0,0,0-1.227.064c-3.358.355-5.924,1.77-7.422,4.1-1.659,2.578-1.924,6.134-.718,9.748,2.318,6.964-.249,9.876-.355,10-2.818,3.058-4.709,9.073-2.866,13.465,1.33,3.161,4.393,4.906,8.863,5.043,4.894.09,8.572-1.382,10.985-4.53,3.255-4.261,3.362-10.625,2.4-13.782-1.536-5.06-1.159-6.861-.154-11.669l.141-.676a10.446,10.446,0,0,0-2.588-8.657A9.258,9.258,0,0,0,2559.642,1439.313Z" transform="translate(-2545.018 -1438.023)"/>
              </g>
              <g id="Grupo_27950" data-name="Grupo 27950" transform="translate(18.692)">
                <path id="Trazado_9118" data-name="Trazado 9118" d="M2578.093,1428.641c-2.609,0-4.654-2.973-4.654-6.767s2.045-6.767,4.654-6.767,4.655,2.973,4.655,6.767S2580.7,1428.641,2578.093,1428.641Zm0-12.242c-1.822,0-3.361,2.506-3.361,5.475s1.54,5.475,3.361,5.475,3.363-2.506,3.363-5.475S2579.916,1416.4,2578.093,1416.4Z" transform="translate(-2573.439 -1415.107)"/>
              </g>
            </g>
            <g id="Grupo_27952" data-name="Grupo 27952" transform="translate(2426.778 1352.807)">
              <path id="Trazado_9119" data-name="Trazado 9119" d="M2536.344,1549.441c-.222-.034-8.23-1.908-8.708-9.7a6.3,6.3,0,0,1,1.762-5.2c2.528-2.417,6.8-2,6.972-1.964a.645.645,0,0,1-.136,1.283c-.039,0-3.854-.376-5.946,1.621a5.085,5.085,0,0,0-1.36,4.183c.419,6.81,7.268,8.435,7.558,8.5a.648.648,0,0,1-.141,1.279Z" transform="translate(-2527.617 -1532.526)"/>
            </g>
            <g id="Grupo_27953" data-name="Grupo 27953" transform="translate(2422.695 1348.745)">
              <path id="Trazado_9120" data-name="Trazado 9120" d="M2533.928,1551.493c-.2-.017-13.363-1.455-12.478-13.876.273-3.841,1.6-6.771,3.957-8.713a12.462,12.462,0,0,1,8.722-2.5.646.646,0,0,1-.154,1.283,11.419,11.419,0,0,0-7.755,2.22c-2.061,1.707-3.229,4.333-3.478,7.8-.795,11.156,10.758,12.443,11.25,12.49a.648.648,0,0,1-.064,1.292Z" transform="translate(-2521.408 -1526.35)"/>
            </g>
            <g id="Grupo_27954" data-name="Grupo 27954" transform="translate(2434.873 1377.074)">
              <path id="Trazado_9121" data-name="Trazado 9121" d="M2553.823,1572.868c-2.323,0-13.9-.128-13.9-2.729a.646.646,0,0,1,1.292,0c.462.505,5.249,1.437,12.606,1.437,7.28,0,12.011-.932,12.5-1.573a.578.578,0,0,1,.628-.578.69.69,0,0,1,.629.714C2567.579,1572.74,2556.12,1572.868,2553.823,1572.868Z" transform="translate(-2539.925 -1569.425)"/>
            </g>
            <g id="Grupo_27955" data-name="Grupo 27955" transform="translate(2461.235 1347.586)">
              <path id="Trazado_9122" data-name="Trazado 9122" d="M2580.654,1555.436a.643.643,0,0,1-.645-.647v-29.556a.646.646,0,1,1,1.292,0v29.556A.643.643,0,0,1,2580.654,1555.436Z" transform="translate(-2580.009 -1524.587)"/>
            </g>
            <g id="Grupo_27956" data-name="Grupo 27956" transform="translate(2434.861 1347.368)">
              <path id="Trazado_9123" data-name="Trazado 9123" d="M2540.551,1555.323a.643.643,0,0,1-.645-.646V1524.9a.646.646,0,0,1,1.292,0v29.775A.644.644,0,0,1,2540.551,1555.323Z" transform="translate(-2539.906 -1524.256)"/>
            </g>
            <g id="Grupo_27957" data-name="Grupo 27957" transform="translate(2434.861 1345.096)">
              <path id="Trazado_9124" data-name="Trazado 9124" d="M2553.739,1527.073c-.564,0-13.833-.034-13.833-3.135s13.268-3.136,13.833-3.136,13.833.034,13.833,3.136S2554.3,1527.073,2553.739,1527.073Zm0-4.979c-7.729,0-12.212,1.215-12.55,1.9.338.577,4.82,1.792,12.55,1.792,7.532,0,11.981-1.155,12.516-1.844C2565.719,1523.249,2561.271,1522.094,2553.739,1522.094Z" transform="translate(-2539.906 -1520.802)"/>
            </g>
            <g id="Grupo_27958" data-name="Grupo 27958" transform="translate(2747.555 1164.348)">
              <path id="Trazado_9125" data-name="Trazado 9125" d="M3022.3,1261.366a7.613,7.613,0,0,1-3.79-1.005.641.641,0,0,1-.239-.881.633.633,0,0,1,.881-.239,6.255,6.255,0,0,0,3.743.8,6.4,6.4,0,1,0-6.305-9.252.647.647,0,0,1-1.155-.582,7.7,7.7,0,1,1,7.58,11.126C3022.775,1261.357,3022.534,1261.366,3022.3,1261.366Z" transform="translate(-3015.364 -1245.969)"/>
            </g>
            <g id="Grupo_27959" data-name="Grupo 27959" transform="translate(2750.773 1167.62)">
              <path id="Trazado_9126" data-name="Trazado 9126" d="M3026.037,1259.032a.648.648,0,0,1-.3-.073l-5.133-2.729a.651.651,0,0,1-.337-.5.642.642,0,0,1,.209-.557l4.513-4.068a.645.645,0,0,1,.864.958l-3.824,3.452,4.316,2.293a.647.647,0,0,1-.3,1.219Z" transform="translate(-3020.257 -1250.945)"/>
            </g>
            <g id="Grupo_27960" data-name="Grupo 27960" transform="translate(2733.443 1198.241)">
              <path id="Trazado_9127" data-name="Trazado 9127" d="M2994.556,1321.872a.655.655,0,0,1-.647-.693c.026-.351.681-8.628,4.491-14.411,2.794-4.243,12.007-7.866,15.835-9.226a.65.65,0,0,1,.437,1.224c-7.725,2.737-13.4,6-15.193,8.713-3.623,5.5-4.273,13.713-4.278,13.795A.645.645,0,0,1,2994.556,1321.872Z" transform="translate(-2993.907 -1297.505)"/>
            </g>
            <g id="Grupo_27961" data-name="Grupo 27961" transform="translate(2752.875 1178.264)">
              <path id="Trazado_9128" data-name="Trazado 9128" d="M3065.982,1329.426a.645.645,0,0,1-.615-.445,79.482,79.482,0,0,0-5.8-14.441,21.645,21.645,0,0,0-12.525-10.235c-1.107-.377-2.237-.715-3.366-1.053a54.844,54.844,0,0,1-6.643-2.322,30.732,30.732,0,0,1-7.866-5.309c-7.734-6.929-6.711-19.124-2.268-28.132a.649.649,0,0,1,1.163.573c-4.23,8.572-5.261,20.117,1.968,26.592a29.458,29.458,0,0,0,7.533,5.095,54.168,54.168,0,0,0,6.484,2.262c1.142.343,2.285.689,3.414,1.07a22.872,22.872,0,0,1,13.234,10.826,82.056,82.056,0,0,1,5.9,14.671.649.649,0,0,1-.415.818A.686.686,0,0,1,3065.982,1329.426Z" transform="translate(-3023.455 -1267.129)"/>
            </g>
            <g id="Grupo_27962" data-name="Grupo 27962" transform="translate(2727.742 1149.507)">
              <path id="Trazado_9129" data-name="Trazado 9129" d="M3007.222,1241.408a.65.65,0,0,1-.458-.188c-6-6.052-5.591-13.8-5.244-16.408-10.429,1.5-15.095,6.819-15.142,6.874a.654.654,0,0,1-.912.073.645.645,0,0,1-.072-.912c.209-.248,5.261-6.048,16.827-7.434a.622.622,0,0,1,.556.206.651.651,0,0,1,.154.573c-.021.094-1.921,9.389,4.748,16.113a.648.648,0,0,1,0,.916A.637.637,0,0,1,3007.222,1241.408Z" transform="translate(-2985.24 -1223.404)"/>
            </g>
            <g id="Grupo_27963" data-name="Grupo 27963" transform="translate(2741.183 1191.854)">
              <path id="Trazado_9130" data-name="Trazado 9130" d="M3006.754,1300.993a.647.647,0,0,1-.646-.625l-.432-11.908a.646.646,0,0,1,1.292-.042l.431,11.908a.645.645,0,0,1-.624.667Z" transform="translate(-3005.676 -1287.793)"/>
            </g>
            <g id="Grupo_27964" data-name="Grupo 27964" transform="translate(2684.288 1164.093)">
              <path id="Trazado_9131" data-name="Trazado 9131" d="M2969.645,1296.5c-34.472-9.966-50.281-49.63-50.435-50.028a.648.648,0,0,1,.368-.838.64.64,0,0,1,.838.367c.154.394,15.737,39.473,49.408,49.234a.645.645,0,0,1-.179,1.265Z" transform="translate(-2919.166 -1245.582)"/>
            </g>
            <g id="Grupo_27965" data-name="Grupo 27965" transform="translate(2653.003 1174.337)">
              <path id="Trazado_9132" data-name="Trazado 9132" d="M2936.157,1343.089a.579.579,0,0,1-.239-.047c-21.644-8.661-50.367-29.762-64.3-81.062a.65.65,0,0,1,.453-.8.63.63,0,0,1,.8.454c13.79,50.791,42.158,71.646,63.528,80.206a.646.646,0,0,1-.24,1.245Z" transform="translate(-2871.597 -1261.159)"/>
            </g>
            <g id="Grupo_27970" data-name="Grupo 27970" transform="translate(2633.192 1141.3)">
              <g id="Grupo_27966" data-name="Grupo 27966" transform="translate(23.108 0.46)">
                <path id="Trazado_9133" data-name="Trazado 9133" d="M2901.485,1238.359a.639.639,0,0,1-.594-.393c-.4-.932-3.842-9.218-2.07-12.08a21.7,21.7,0,0,1,4.752-5.235c.56-.484,1.1-.95,1.608-1.446,1.771-1.733,2.391-3.478,1.694-4.787a3.455,3.455,0,0,0-3.811-1.407c-3.529.727-8.273,5.373-11.742,8.765l-.346.342c-3.033,2.973-13.307,2.353-13.76,2.318a.647.647,0,0,1,.043-1.292c2.857.171,10.633.179,12.811-1.951l.35-.342c3.777-3.7,8.482-8.3,12.379-9.107a4.719,4.719,0,0,1,5.219,2.066c.466.877,1.21,3.247-1.93,6.318-.526.513-1.086,1-1.667,1.5a20.168,20.168,0,0,0-4.5,4.94c-1.073,1.728.753,7.6,2.156,10.89a.644.644,0,0,1-.342.847A.654.654,0,0,1,2901.485,1238.359Z" transform="translate(-2876.61 -1211.624)"/>
              </g>
              <g id="Grupo_27967" data-name="Grupo 27967" transform="translate(0 4.739)">
                <path id="Trazado_9134" data-name="Trazado 9134" d="M2867.6,1248.067a.648.648,0,0,1-.642-.547c-.406-2.648-2.215-9.7-5.667-10.51-4.217-.989-18.171-7.22-19.732-14.466a3.426,3.426,0,0,1,1-3.328,5.01,5.01,0,0,1,4.842-.813c2.832.864,12.187,6.227,13.67,7.083,1.647-.171,11.532-.967,16.387,4.282a.648.648,0,1,1-.95.881c-4.747-5.141-15.395-3.866-15.492-3.853a.6.6,0,0,1-.407-.082c-.106-.064-10.714-6.2-13.585-7.071a3.693,3.693,0,0,0-3.589.526,2.105,2.105,0,0,0-.612,2.1c1.335,6.215,13.914,12.344,18.765,13.482,5,1.176,6.583,11.147,6.652,11.571a.655.655,0,0,1-.543.74A.856.856,0,0,1,2867.6,1248.067Z" transform="translate(-2841.474 -1218.131)"/>
              </g>
              <g id="Grupo_27968" data-name="Grupo 27968" transform="translate(5.097 2.012)">
                <path id="Trazado_9135" data-name="Trazado 9135" d="M2872.952,1225.256a.638.638,0,0,1-.338-.094c-6.284-3.871-16.909-9.889-19.163-9.889a3.172,3.172,0,0,0-2.943,2.439.605.605,0,0,1-.745.53.643.643,0,0,1-.53-.745,4.393,4.393,0,0,1,3.961-3.5c3.131-.372,18.367,9,20.1,10.065a.646.646,0,0,1-.338,1.2Z" transform="translate(-2849.224 -1213.984)"/>
              </g>
              <g id="Grupo_27969" data-name="Grupo 27969" transform="translate(9.856 0)">
                <path id="Trazado_9136" data-name="Trazado 9136" d="M2881.8,1223.136a.637.637,0,0,1-.355-.107c-.064-.043-6.557-4.3-8.016-5.081-.736-.39-1.6-.9-2.55-1.467-2.935-1.737-6.955-4.12-9.577-4.252-2.977-.2-3.555,1.467-3.576,1.536a.669.669,0,0,1-.8.432.648.648,0,0,1-.441-.792c.03-.111.86-2.677,4.889-2.467,2.938.149,6.947,2.523,10.167,4.431.928.552,1.784,1.057,2.5,1.442,1.51.808,7.849,4.962,8.119,5.141a.646.646,0,0,1-.355,1.185Z" transform="translate(-2856.46 -1210.925)"/>
              </g>
            </g>
            <g id="Grupo_27971" data-name="Grupo 27971" transform="translate(2651.091 1254.482)">
              <path id="Trazado_9137" data-name="Trazado 9137" d="M2897.537,1405.992a.653.653,0,0,1-.4-.133c-.042-.033-1.1-.868-6.562-5.865a50.412,50.412,0,0,1-5.629-6c-.744-.945-1.437-1.933-2.125-2.921a42.306,42.306,0,0,0-3.123-4.11q-.533-.59-1.1-1.129a6.224,6.224,0,0,0-2.091-1.377,3.12,3.12,0,0,0-2.69.428,3.652,3.652,0,0,0-1.655,2.677c-.116,1.622.864,3.315,1.792,4.778.5.787,1.043,1.544,1.587,2.3.616.859,1.253,1.749,1.823,2.677.059.1.141.21.23.338.684.971,2.289,3.242-.7,5.651-2.429,1.959-5.5-1.313-7.331-3.277-.257-.274-.488-.521-.689-.727a.647.647,0,1,1,.923-.907c.21.21.45.466.71.753,1.523,1.634,4.063,4.38,5.574,3.148,2.04-1.643,1.159-2.892.448-3.9-.106-.15-.2-.287-.273-.406-.543-.885-1.167-1.758-1.771-2.6-.56-.774-1.117-1.553-1.63-2.361-1.039-1.635-2.134-3.546-1.989-5.565a4.91,4.91,0,0,1,2.233-3.662,4.349,4.349,0,0,1,3.824-.573,7.344,7.344,0,0,1,2.554,1.655c.415.39.809.792,1.186,1.211a44.318,44.318,0,0,1,3.22,4.231c.676.971,1.352,1.941,2.083,2.865a48.525,48.525,0,0,0,5.483,5.839c5.373,4.919,6.442,5.766,6.485,5.8a.646.646,0,0,1-.4,1.155Z" transform="translate(-2868.689 -1383.021)"/>
            </g>
            <g id="Grupo_27972" data-name="Grupo 27972" transform="translate(2636.553 1257.621)">
              <path id="Trazado_9138" data-name="Trazado 9138" d="M2848.95,1397.449a.647.647,0,0,1-.488-.218,8.668,8.668,0,0,1-1.878-5.333,4.1,4.1,0,0,1,2.083-4.017.648.648,0,1,1,.65,1.121c-.889.518-1.441,1.18-1.441,2.9a7.486,7.486,0,0,0,1.561,4.482.645.645,0,0,1-.487,1.069Z" transform="translate(-2846.584 -1387.793)"/>
            </g>
            <g id="Grupo_27973" data-name="Grupo 27973" transform="translate(2633.375 1220.351)">
              <path id="Trazado_9139" data-name="Trazado 9139" d="M2863.147,1384.586a.634.634,0,0,1-.445-.175l-20.75-19.556a.652.652,0,0,1-.027-.915l30.739-32.611a.645.645,0,0,1,.915-.026l20.745,19.552a.648.648,0,0,1,.025.915l-19.847,21.062a.647.647,0,1,1-.941-.889l19.4-20.592-19.8-18.662-29.847,31.67,19.809,18.667,3.271-3.478a.648.648,0,0,1,.942.89l-3.718,3.948a.633.633,0,0,1-.449.2Z" transform="translate(-2841.752 -1331.124)"/>
            </g>
            <g id="Grupo_27974" data-name="Grupo 27974" transform="translate(2646.586 1232.274)">
              <path id="Trazado_9140" data-name="Trazado 9140" d="M2862.488,1370.474a.638.638,0,0,1-.445-.175.648.648,0,0,1-.026-.916l18.821-19.929a.648.648,0,0,1,.941.89l-18.821,19.929A.656.656,0,0,1,2862.488,1370.474Z" transform="translate(-2861.841 -1349.253)"/>
            </g>
            <g id="Grupo_27975" data-name="Grupo 27975" transform="translate(2658.674 1239.125)">
              <path id="Trazado_9141" data-name="Trazado 9141" d="M2880.868,1375.957a.637.637,0,0,1-.446-.175.648.648,0,0,1-.025-.915l14.158-14.992a.648.648,0,0,1,.941.89l-14.159,14.992A.656.656,0,0,1,2880.868,1375.957Z" transform="translate(-2880.22 -1359.67)"/>
            </g>
            <g id="Grupo_27976" data-name="Grupo 27976" transform="translate(2638.271 1265.984)">
              <path id="Trazado_9142" data-name="Trazado 9142" d="M2860.906,1413.407a.645.645,0,0,1-.411-.145,87.194,87.194,0,0,1-11.16-11.707.646.646,0,1,1,1.019-.8,86.184,86.184,0,0,0,10.962,11.5.646.646,0,0,1-.41,1.146Z" transform="translate(-2849.197 -1400.51)"/>
            </g>
            <g id="Grupo_27977" data-name="Grupo 27977" transform="translate(2494.466 1097.918)">
              <path id="Trazado_9143" data-name="Trazado 9143" d="M2646.868,1165.014h-12.605a3.728,3.728,0,0,1-3.726-3.722v-12.6a3.731,3.731,0,0,1,3.726-3.726h12.605a3.732,3.732,0,0,1,3.726,3.726v12.6A3.728,3.728,0,0,1,2646.868,1165.014Zm-12.605-18.761a2.435,2.435,0,0,0-2.433,2.434v12.6a2.434,2.434,0,0,0,2.433,2.43h12.605a2.435,2.435,0,0,0,2.434-2.43v-12.6a2.436,2.436,0,0,0-2.434-2.434Z" transform="translate(-2630.537 -1144.961)"/>
            </g>
            <g id="Grupo_27978" data-name="Grupo 27978" transform="translate(2494.466 1128.894)">
              <path id="Trazado_9144" data-name="Trazado 9144" d="M2646.868,1212.114h-12.605a3.728,3.728,0,0,1-3.726-3.721v-12.605a3.731,3.731,0,0,1,3.726-3.726h12.605a3.732,3.732,0,0,1,3.726,3.726v12.605A3.728,3.728,0,0,1,2646.868,1212.114Zm-12.605-18.761a2.435,2.435,0,0,0-2.433,2.434v12.605a2.434,2.434,0,0,0,2.433,2.429h12.605a2.435,2.435,0,0,0,2.434-2.429v-12.605a2.435,2.435,0,0,0-2.434-2.434Z" transform="translate(-2630.537 -1192.062)"/>
            </g>
            <g id="Grupo_27979" data-name="Grupo 27979" transform="translate(2520.447 1101.934)">
              <path id="Trazado_9145" data-name="Trazado 9145" d="M2749.551,1152.36h-78.863a.646.646,0,0,1,0-1.292h78.863a.646.646,0,1,1,0,1.292Z" transform="translate(-2670.042 -1151.068)"/>
            </g>
            <g id="Grupo_27980" data-name="Grupo 27980" transform="translate(2520.447 1113.706)">
              <path id="Trazado_9146" data-name="Trazado 9146" d="M2749.551,1170.259h-78.863a.646.646,0,0,1,0-1.292h78.863a.646.646,0,1,1,0,1.292Z" transform="translate(-2670.042 -1168.967)"/>
            </g>
            <g id="Grupo_27981" data-name="Grupo 27981" transform="translate(2520.447 1132.911)">
              <path id="Trazado_9147" data-name="Trazado 9147" d="M2749.551,1199.461h-78.863a.646.646,0,0,1,0-1.292h78.863a.646.646,0,1,1,0,1.292Z" transform="translate(-2670.042 -1198.169)"/>
            </g>
            <g id="Grupo_27982" data-name="Grupo 27982" transform="translate(2520.447 1144.682)">
              <path id="Trazado_9148" data-name="Trazado 9148" d="M2749.551,1217.36h-78.863a.646.646,0,0,1,0-1.292h78.863a.646.646,0,1,1,0,1.292Z" transform="translate(-2670.042 -1216.068)"/>
            </g>
            <g id="Grupo_27983" data-name="Grupo 27983" transform="translate(2635.547 1265.014)">
              <path id="Trazado_9149" data-name="Trazado 9149" d="M2874.86,1432.242a.64.64,0,0,1-.582-.368c-.992-2.062-2.7-2.587-5.278-3.388a28.263,28.263,0,0,1-7.3-3.161,48.05,48.05,0,0,1-15.574-17.443c-3.011-6.2,1.283-8.734,1.326-8.756a.646.646,0,1,1,.641,1.121c-.163.1-3.255,2.019-.8,7.071a46.583,46.583,0,0,0,15.1,16.912,26.67,26.67,0,0,0,6.99,3.02c2.7.835,4.829,1.494,6.061,4.068a.638.638,0,0,1-.3.86A.588.588,0,0,1,2874.86,1432.242Z" transform="translate(-2845.054 -1399.035)"/>
            </g>
            <g id="Grupo_27984" data-name="Grupo 27984" transform="translate(2314.887 1247.342)">
              <path id="Trazado_9150" data-name="Trazado 9150" d="M2358.13,1401.348a.646.646,0,0,1-.23-1.249c.012-.009,2.759-1.309,3.254-9.453.916-15.03,10.455-18.315,10.86-18.448a.648.648,0,1,1,.4,1.232c-.372.124-9.111,3.182-9.971,17.293-.547,8.979-3.726,10.445-4.085,10.583A.638.638,0,0,1,2358.13,1401.348Z" transform="translate(-2357.484 -1372.165)"/>
            </g>
            <g id="Grupo_27985" data-name="Grupo 27985" transform="translate(2326.92 1251.074)">
              <path id="Trazado_9151" data-name="Trazado 9151" d="M2389.677,1399.68a.644.644,0,0,1-.59-.38.651.651,0,0,1,.325-.856c9.312-4.213,16.827-10.48,17.867-14.9a3.627,3.627,0,0,0-.693-3.328,2.692,2.692,0,0,0-2.049-1.082,7.231,7.231,0,0,0-3.588,1.458c-1.167.753-2.3,1.609-3.4,2.434-.462.347-.92.693-1.381,1.035-2.524,1.853-5.121,3.482-7.55,4.966-.607.372-1.215.775-1.827,1.177a26.055,26.055,0,0,1-4.928,2.776,4.541,4.541,0,0,1-2.528.33c-3.769-.762-3.606-5.685-3.525-8.05a.622.622,0,0,1,.667-.625.646.646,0,0,1,.625.667c-.1,3.063.116,6.258,2.49,6.742a3.368,3.368,0,0,0,1.813-.274,25.233,25.233,0,0,0,4.671-2.643c.625-.415,1.245-.821,1.865-1.2,2.409-1.471,4.975-3.084,7.456-4.906.462-.339.916-.681,1.373-1.023,1.117-.842,2.271-1.715,3.478-2.489a8.237,8.237,0,0,1,4.281-1.664,3.908,3.908,0,0,1,3.059,1.553,4.916,4.916,0,0,1,.953,4.445c-1.335,5.672-10.574,12.156-18.6,15.788A.649.649,0,0,1,2389.677,1399.68Z" transform="translate(-2375.781 -1377.839)"/>
            </g>
            <g id="Grupo_27986" data-name="Grupo 27986" transform="translate(2652.957 1163.365)">
              <path id="Trazado_9152" data-name="Trazado 9152" d="M2874.546,1257.4c-1.556,0-2.677-.3-2.943-1.1-.431-1.33.916-2.584,4.8-4.462a.652.652,0,0,1,.864.3.644.644,0,0,1-.3.864c-4.264,2.062-4.162,2.819-4.136,2.9.573.62,6.339.235,15.711-2.831s14.24-6.172,14.338-7.049c-.017,0-.428-.578-4.337.042a.625.625,0,0,1-.74-.534.642.642,0,0,1,.534-.74c3.709-.6,5.39-.337,5.78.873a1.317,1.317,0,0,1-.116,1.027c-1.112,2.207-8.585,5.492-15.057,7.614C2888.448,1254.46,2879.388,1257.4,2874.546,1257.4Z" transform="translate(-2871.526 -1244.475)"/>
            </g>
            <g id="Grupo_27990" data-name="Grupo 27990" transform="translate(2583.53 1176.494)">
              <g id="Grupo_27987" data-name="Grupo 27987">
                <path id="Trazado_9153" data-name="Trazado 9153" d="M2781.951,1313.371h-15.343a.643.643,0,0,1-.646-.646v-47.642a.642.642,0,0,1,.646-.645h15.343a.641.641,0,0,1,.645.645v15.305a.646.646,0,0,1-1.292,0V1265.73h-14.051v46.35H2781.3v-14.03a.646.646,0,1,1,1.292,0v14.676A.642.642,0,0,1,2781.951,1313.371Z" transform="translate(-2765.962 -1264.438)"/>
              </g>
              <g id="Grupo_27988" data-name="Grupo 27988" transform="translate(25.669 17.995)">
                <path id="Trazado_9154" data-name="Trazado 9154" d="M2820.977,1322.738h-15.339a.643.643,0,0,1-.646-.646v-29.647a.642.642,0,0,1,.646-.645h15.339a.642.642,0,0,1,.646.645v29.647A.643.643,0,0,1,2820.977,1322.738Zm-14.693-1.292h14.047v-28.355h-14.047Z" transform="translate(-2804.992 -1291.8)"/>
              </g>
              <g id="Grupo_27989" data-name="Grupo 27989" transform="translate(51.333 28.761)">
                <path id="Trazado_9155" data-name="Trazado 9155" d="M2860,1328.342h-15.339a.643.643,0,0,1-.646-.646v-11.738a.646.646,0,0,1,1.292,0v11.092h14.047v-17.589h-9.722a.646.646,0,0,1,0-1.292H2860a.643.643,0,0,1,.646.646v18.88A.643.643,0,0,1,2860,1328.342Z" transform="translate(-2844.015 -1308.17)"/>
              </g>
            </g>
            <g id="Grupo_27994" data-name="Grupo 27994" transform="translate(2306.054 1007.54)">
              <g id="Grupo_27991" data-name="Grupo 27991" transform="translate(0 113.672)">
                <path id="Trazado_9156" data-name="Trazado 9156" d="M2344.785,1185.4a.648.648,0,0,1-.646-.615q-.09-1.887-.085-3.76a.646.646,0,0,1,1.292.008c0,1.224.025,2.451.085,3.692a.646.646,0,0,1-.616.675Z" transform="translate(-2344.053 -1180.381)"/>
              </g>
              <g id="Grupo_27992" data-name="Grupo 27992" transform="translate(0.402)">
                <path id="Trazado_9157" data-name="Trazado 9157" d="M2345.311,1115a.656.656,0,0,1-.642-.714,75.472,75.472,0,0,1,1.177-7.481.647.647,0,1,1,1.266.265c-.509,2.451-.9,4.923-1.159,7.353A.641.641,0,0,1,2345.311,1115Zm3.066-14.68c-.535-.137-.723-.5-.616-.839.744-2.374,1.613-4.765,2.588-7.109a.657.657,0,0,1,.847-.351.65.65,0,0,1,.351.847c-.962,2.31-1.818,4.662-2.554,7A.644.644,0,0,1,2348.378,1100.321Zm5.761-13.85a.611.611,0,0,1-.3-.073.646.646,0,0,1-.274-.872c1.146-2.19,2.417-4.393,3.777-6.553a.648.648,0,1,1,1.095.693c-1.339,2.126-2.592,4.3-3.726,6.459A.643.643,0,0,1,2354.139,1086.471Zm8-12.7a.616.616,0,0,1-.385-.128.644.644,0,0,1-.133-.9c1.485-2,3.076-3.982,4.727-5.9a.662.662,0,0,1,.915-.069.654.654,0,0,1,.069.916c-1.634,1.895-3.208,3.854-4.675,5.822A.64.64,0,0,1,2362.143,1073.776Zm147.609-6.339c-.732,0-1.5-.039-2.353-.12a21.956,21.956,0,0,1-3.2-.531.647.647,0,0,1,.308-1.258,20.59,20.59,0,0,0,3.02.5,18.655,18.655,0,0,0,4.209,0,.66.66,0,0,1,.723.56.643.643,0,0,1-.561.722A17.072,17.072,0,0,1,2509.752,1067.437Zm8.319-3.786a.656.656,0,0,1-.338-.094.647.647,0,0,1-.214-.89,8.579,8.579,0,0,0,1.172-4.491,10.636,10.636,0,0,0-.244-2.3.647.647,0,0,1,1.267-.266,12.06,12.06,0,0,1,.269,2.571,9.861,9.861,0,0,1-1.36,5.163A.643.643,0,0,1,2518.072,1063.651Zm-20.156-.458a.635.635,0,0,1-.5-.244,7.6,7.6,0,0,1-1.219-2.178,8.226,8.226,0,0,1-.45-2.75,12.072,12.072,0,0,1,.346-2.763.626.626,0,0,1,.779-.479.645.645,0,0,1,.479.778,10.919,10.919,0,0,0-.312,2.464,6.847,6.847,0,0,0,.381,2.314,6.31,6.31,0,0,0,1.005,1.809.643.643,0,0,1-.1.907A.625.625,0,0,1,2497.916,1063.193Zm-125.965-.791a.64.64,0,0,1-.458-.189.648.648,0,0,1,0-.915c1.745-1.758,3.593-3.5,5.5-5.18a.634.634,0,0,1,.911.056.642.642,0,0,1-.055.912c-1.882,1.663-3.708,3.388-5.437,5.128A.65.65,0,0,1,2371.951,1062.4Zm11.259-9.941a.647.647,0,0,1-.4-1.159c2.011-1.553,4.072-3.041,6.122-4.423a.647.647,0,0,1,.727,1.07c-2.032,1.368-4.068,2.84-6.053,4.38A.662.662,0,0,1,2383.209,1052.461Zm132.365-2.635a.642.642,0,0,1-.5-.231,33.036,33.036,0,0,0-5.39-5,.649.649,0,0,1-.128-.908.657.657,0,0,1,.907-.128,34.214,34.214,0,0,1,5.6,5.2.646.646,0,0,1-.081.911A.633.633,0,0,1,2515.574,1049.826Zm-16.049-.718a.644.644,0,0,1-.573-.95,47.418,47.418,0,0,1,4.093-6.412.648.648,0,0,1,1.035.779,45.939,45.939,0,0,0-3.982,6.241A.649.649,0,0,1,2499.525,1049.108Zm-103.868-5.06a.647.647,0,0,1-.326-1.207c2.169-1.27,4.4-2.485,6.635-3.605a.646.646,0,1,1,.582,1.154c-2.207,1.112-4.418,2.314-6.565,3.572A.644.644,0,0,1,2395.656,1044.048Zm108.022-3.251a.65.65,0,0,1-.3-.073c-2.181-1.155-4.444-2.246-6.72-3.234a.648.648,0,0,1,.513-1.189c2.31,1.005,4.6,2.109,6.814,3.277a.647.647,0,0,1-.3,1.219Zm-94.6-3.482a.646.646,0,0,1-.252-1.241c2.275-.958,4.611-1.852,6.938-2.648a.705.705,0,0,1,.873.355.593.593,0,0,1-.278.8c-2.477.851-4.781,1.732-7.028,2.678A.644.644,0,0,1,2409.083,1037.315Zm99.421-.184a.636.636,0,0,1-.458-.189.648.648,0,0,1,0-.916,66.287,66.287,0,0,1,5.655-5.051.645.645,0,0,1,.8,1.01,65.74,65.74,0,0,0-5.544,4.957A.645.645,0,0,1,2508.5,1037.131Zm144.192-2.314a.637.637,0,0,1-.445-.176c-1.8-1.706-3.687-3.362-5.616-4.914a.65.65,0,0,1-.1-.912.663.663,0,0,1,.911-.1c1.955,1.578,3.871,3.255,5.694,4.983a.646.646,0,0,1-.445,1.116Zm-162.782-.013c-2.558-.851-4.958-1.591-7.345-2.237a.647.647,0,0,1-.458-.791.636.636,0,0,1,.792-.458c2.421.654,4.851,1.4,7.225,2.228a.647.647,0,0,1-.214,1.257Zm-66.621-2.335a.646.646,0,0,1-.166-1.27c2.45-.65,4.932-1.215,7.366-1.686a.649.649,0,0,1,.248,1.275c-2.408.463-4.859,1.023-7.28,1.66A.567.567,0,0,1,2423.292,1032.468Zm52.125-1.595c-2.554-.492-5.034-.9-7.5-1.224a.65.65,0,0,1-.557-.727.633.633,0,0,1,.727-.556c2.49.325,5,.74,7.451,1.228a.646.646,0,0,1-.124,1.279Zm-37.381-1.262a.646.646,0,0,1-.081-1.288c2.459-.312,4.988-.556,7.515-.714a.657.657,0,0,1,.688.6.647.647,0,0,1-.6.689c-2.5.159-5,.4-7.438.706A.48.48,0,0,1,2438.036,1029.611Zm22.5-.689c-2.494-.158-5-.244-7.507-.249a.646.646,0,1,1,0-1.292c2.532,0,5.073.085,7.549.248a.647.647,0,0,1-.042,1.292Zm59.648-1.2a.646.646,0,0,1-.354-1.185c2.057-1.36,4.242-2.669,6.485-3.9a.647.647,0,1,1,.624,1.133c-2.216,1.215-4.367,2.511-6.4,3.845A.626.626,0,0,1,2520.18,1027.721ZM2641,1025.389a.649.649,0,0,1-.367-.111c-2.045-1.4-4.17-2.737-6.314-3.964a.648.648,0,0,1,.642-1.125c2.173,1.247,4.329,2.6,6.407,4.02a.647.647,0,0,1-.369,1.181Zm-107.684-4.949a.648.648,0,0,1-.274-1.234c2.255-1.052,4.59-2.057,6.938-2.985a.647.647,0,1,1,.479,1.2c-2.327.921-4.636,1.914-6.87,2.956A.649.649,0,0,1,2533.32,1020.44Zm94.659-2.513a.649.649,0,0,1-.273-.062c-2.267-1.063-4.581-2.033-6.874-2.887a.648.648,0,1,1,.454-1.215c2.326.866,4.671,1.852,6.967,2.93a.647.647,0,0,1-.274,1.234Zm-80.694-3.037a.648.648,0,0,1-.205-1.261c2.378-.794,4.813-1.521,7.238-2.162a.659.659,0,0,1,.792.462.648.648,0,0,1-.458.791c-2.4.633-4.813,1.351-7.161,2.136A.628.628,0,0,1,2547.286,1014.89Zm66.63-2.19c-.975-.248-1.783-.457-2.593-.656-1.574-.389-3.2-.75-4.845-1.076a.647.647,0,0,1,.248-1.27c1.668.33,3.315.7,4.906,1.089q1.238.3,2.455.642a.647.647,0,0,1-.171,1.272Zm-52.112-1.642a.648.648,0,0,1-.124-1.283c2.454-.483,4.961-.9,7.451-1.225a.623.623,0,0,1,.727.556.647.647,0,0,1-.556.727c-2.464.327-4.945.733-7.374,1.213A.616.616,0,0,1,2561.8,1011.058Zm37.385-1.288q-3.81-.481-7.515-.714a.647.647,0,0,1-.607-.687.683.683,0,0,1,.685-.605c2.506.156,5.034.4,7.52.717a.647.647,0,0,1-.081,1.289Zm-22.495-.669a.648.648,0,0,1-.043-1.294c2.489-.169,5.031-.259,7.55-.267a.648.648,0,0,1,.008,1.3c-2.5.009-5.008.1-7.473.263Z" transform="translate(-2344.665 -1007.54)"/>
              </g>
              <g id="Grupo_27993" data-name="Grupo 27993" transform="translate(313.175 31.529)">
                <path id="Trazado_9158" data-name="Trazado 9158" d="M2823.305,1059.6a.649.649,0,0,1-.5-.235c-.783-.95-1.579-1.882-2.4-2.8a.652.652,0,0,1,.051-.915.645.645,0,0,1,.916.051c.829.933,1.642,1.873,2.433,2.84a.646.646,0,0,1-.5,1.057Z" transform="translate(-2820.243 -1055.481)"/>
              </g>
            </g>
            <g id="Grupo_27995" data-name="Grupo 27995" transform="translate(2298.614 1197.894)">
              <path id="Trazado_9159" data-name="Trazado 9159" d="M2349.33,1329.8a12.015,12.015,0,0,1-2.857-.372c-8.7-2.126-13.491-14.954-13.693-15.5a.645.645,0,0,1,.385-.83.652.652,0,0,1,.83.384c.047.128,4.761,12.721,12.785,14.685,2.733.676,4.944.32,6.565-1.031,3.824-3.179,3.431-10.891,3.427-10.967a.652.652,0,0,1,.432-.65.677.677,0,0,1,.74.235c.043.056,4.2,5.779,8.64,6.147a5.291,5.291,0,0,0,4.312-1.72,5.552,5.552,0,0,0,1.736-4.2c-.073-4.265-4.264-10.279-12.46-17.883a.648.648,0,1,1,.881-.95c8.584,7.965,12.794,14.12,12.871,18.812a6.841,6.841,0,0,1-2.117,5.141,6.76,6.76,0,0,1-5.33,2.1c-3.546-.3-6.763-3.366-8.417-5.244-.116,2.686-.775,7.6-3.884,10.185A7.336,7.336,0,0,1,2349.33,1329.8Z" transform="translate(-2332.74 -1296.977)"/>
            </g>
            <g id="Grupo_27996" data-name="Grupo 27996" transform="translate(2747.891 1140.055)">
              <path id="Trazado_9160" data-name="Trazado 9160" d="M3016.521,1214.861a.646.646,0,0,1-.47-.2.653.653,0,0,1,.025-.915c.154-.146,3.772-3.525,6.545-4.662a.647.647,0,0,1,.488,1.2c-2.55,1.048-6.109,4.371-6.143,4.406A.645.645,0,0,1,3016.521,1214.861Z" transform="translate(-3015.875 -1209.031)"/>
            </g>
            <g id="Grupo_27997" data-name="Grupo 27997" transform="translate(2548.733 1170.001)">
              <path id="Trazado_9161" data-name="Trazado 9161" d="M2713.7,1259.8a.661.661,0,0,1-.407-.141.651.651,0,0,1-.1-.911l3.178-3.944a.648.648,0,1,1,1.01.813l-3.178,3.943A.647.647,0,0,1,2713.7,1259.8Z" transform="translate(-2713.051 -1254.566)"/>
            </g>
            <g id="Grupo_27998" data-name="Grupo 27998" transform="translate(2315.612 1137.279)">
              <path id="Trazado_9162" data-name="Trazado 9162" d="M2366.416,1209.289a.622.622,0,0,1-.321-.086c-.047-.026-4.509-2.57-7-3.114a.647.647,0,0,1-.5-.77.655.655,0,0,1,.77-.5c2.686.59,7.178,3.148,7.365,3.26a.646.646,0,0,1-.32,1.206Z" transform="translate(-2358.586 -1204.811)"/>
            </g>
            <g id="Grupo_27999" data-name="Grupo 27999" transform="translate(2397.877 1191.386)">
              <path id="Trazado_9163" data-name="Trazado 9163" d="M2484.558,1297.986a.646.646,0,0,1-.637-.525,14.575,14.575,0,0,1,1.762-10.086.647.647,0,0,1,1.083.71,13.529,13.529,0,0,0-1.57,9.136.654.654,0,0,1-.518.758C2484.635,1297.983,2484.6,1297.986,2484.558,1297.986Z" transform="translate(-2483.672 -1287.083)"/>
            </g>
            <g id="Grupo_28000" data-name="Grupo 28000" transform="translate(2655.827 1270.969)">
              <path id="Trazado_9164" data-name="Trazado 9164" d="M2880.455,1409.381h-3.918a.646.646,0,1,1,0-1.292h3.918a.646.646,0,1,1,0,1.292Z" transform="translate(-2875.89 -1408.089)"/>
            </g>
            <g id="Grupo_28001" data-name="Grupo 28001" transform="translate(2673.467 1270.969)">
              <path id="Trazado_9165" data-name="Trazado 9165" d="M2945.021,1409.381h-41.662a.646.646,0,1,1,0-1.292h41.662a.646.646,0,1,1,0,1.292Z" transform="translate(-2902.713 -1408.089)"/>
            </g>
            <g id="Grupo_28002" data-name="Grupo 28002" transform="translate(2707.961 1076.919)">
              <path id="Trazado_9166" data-name="Trazado 9166" d="M3004.1,1169.863a.642.642,0,0,1-.646-.646V1129.21a14.9,14.9,0,0,0-14.881-14.885h-32.769a.646.646,0,0,1,0-1.292h32.769a16.192,16.192,0,0,1,16.173,16.177v40.007A.642.642,0,0,1,3004.1,1169.863Z" transform="translate(-2955.161 -1113.033)"/>
            </g>
            <g id="Grupo_28003" data-name="Grupo 28003" transform="translate(2474.058 1076.919)">
              <path id="Trazado_9167" data-name="Trazado 9167" d="M2600.153,1213.9a.643.643,0,0,1-.646-.647V1129.21a16.193,16.193,0,0,1,16.177-16.177h117.834a.646.646,0,1,1,0,1.292H2615.685a14.9,14.9,0,0,0-14.886,14.885v84.042A.643.643,0,0,1,2600.153,1213.9Z" transform="translate(-2599.507 -1113.033)"/>
            </g>
            <g id="Grupo_28004" data-name="Grupo 28004" transform="translate(2622.096 1270.969)">
              <path id="Trazado_9168" data-name="Trazado 9168" d="M2839.016,1409.381h-13.769a.646.646,0,1,1,0-1.292h13.769a.646.646,0,0,1,0,1.292Z" transform="translate(-2824.601 -1408.089)"/>
            </g>
            <g id="Grupo_28005" data-name="Grupo 28005" transform="translate(2526.518 1193.369)">
              <path id="Trazado_9169" data-name="Trazado 9169" d="M2681.561,1297.154a1.625,1.625,0,0,1-.287-.026c-2.72-.458-1.912-5.758-1.809-6.361a.611.611,0,0,1,.744-.53.647.647,0,0,1,.531.745c-.309,1.86-.287,4.7.749,4.872a.429.429,0,0,0,.381-.116c.906-.68,1.527-3.465,1.706-5.06a.584.584,0,0,1,.714-.569.641.641,0,0,1,.569.714c-.051.479-.569,4.71-2.207,5.95A1.794,1.794,0,0,1,2681.561,1297.154Z" transform="translate(-2679.273 -1290.096)"/>
            </g>
            <g id="Grupo_28006" data-name="Grupo 28006" transform="translate(2541.881 1193.856)">
              <path id="Trazado_9170" data-name="Trazado 9170" d="M2704.866,1297.822a1.709,1.709,0,0,1-.329-.03c-2.7-.526-1.771-5.8-1.656-6.408a.689.689,0,0,1,.758-.513.649.649,0,0,1,.517.757c-.355,1.857-.4,4.693.629,4.889a.405.405,0,0,0,.385-.1c.919-.663,1.609-3.431,1.822-5.017a.665.665,0,0,1,.727-.556.65.65,0,0,1,.557.727c-.064.479-.68,4.7-2.353,5.9A1.808,1.808,0,0,1,2704.866,1297.822Z" transform="translate(-2702.633 -1290.837)"/>
            </g>
            <g id="Grupo_28007" data-name="Grupo 28007" transform="translate(2733.615 1315.23)">
              <path id="Trazado_9171" data-name="Trazado 9171" d="M2994.927,1499.046a.643.643,0,0,1-.641-.569c-1.116-9.479,5.8-18.714,16.443-21.956,9.162-2.793,18.833-.3,24.051,6.211a.65.65,0,0,1-.1.911.658.658,0,0,1-.911-.1c-4.894-6.1-14.021-8.431-22.666-5.783-9.882,3.007-16.558,11.849-15.536,20.562a.642.642,0,0,1-.564.719A.425.425,0,0,1,2994.927,1499.046Z" transform="translate(-2994.168 -1475.39)"/>
            </g>
          </g>
          <g id="Grupo_27863-2" data-name="Grupo 27863" transform="translate(-25.879 -340.708)">
            <path id="Trazado_8978" data-name="Trazado 8978" d="M838.243,529.982a9.865,9.865,0,0,1-5.954,1.713,10.188,10.188,0,0,1-7.582-3,12.672,12.672,0,0,1-3.342-8.182h29.9l.043-2.27q0-10.323-5.312-16.15-5.355-5.868-14.565-5.868-9.125,0-14.651,6.04-5.483,6.127-5.483,16.022,0,9.982,5.655,16.022,5.655,6,14.994,6a25.251,25.251,0,0,0,6.04-.685,18.075,18.075,0,0,0,5.184-2.163,21.208,21.208,0,0,0,4.5-3.77,32.416,32.416,0,0,0,3.984-5.5l-8.14-4.541A24.379,24.379,0,0,1,838.243,529.982Zm-14.865-20.563a9.755,9.755,0,0,1,2.163-2.42,9.441,9.441,0,0,1,2.806-1.542,9.992,9.992,0,0,1,3.3-.535q7.711,0,9.724,7.711H822.008A11.24,11.24,0,0,1,823.378,509.419Z" transform="translate(-29.173 -7.373)" fill="#1a1a1a"/>
            <path id="Trazado_8979" data-name="Trazado 8979" d="M997.613,493.76a5.929,5.929,0,0,0,4.412-1.842,6.069,6.069,0,0,0,1.842-4.455,5.929,5.929,0,0,0-1.842-4.412,6.255,6.255,0,0,0-8.867,0,5.967,5.967,0,0,0-1.843,4.369,6.291,6.291,0,0,0,6.3,6.34Z" transform="translate(-117.56 0)" fill="#1a1a1a"/>
            <path id="Trazado_8980" data-name="Trazado 8980" d="M766.231,497.3a18.4,18.4,0,0,0-4.712,3.812v-3.727H751.88v41.725h9.639V517.473q0-11.909,7.883-11.909a9.209,9.209,0,0,1,5.355,1.971l4.412-8.825a15.575,15.575,0,0,0-7.968-2.484A10.807,10.807,0,0,0,766.231,497.3Z" transform="translate(0 -7.373)" fill="#1a1a1a"/>
            <path id="Trazado_8981" data-name="Trazado 8981" d="M928.976,524l-4.8,10.451L919.366,524H908.85L924.1,555.613,939.461,524Z" transform="translate(-77.07 -21.01)" fill="#1a1a1a"/>
            <path id="Trazado_8982" data-name="Trazado 8982" d="M1063.1,522.444q0,10.367-8.183,10.366t-8.182-10.366V498.5H1037.1v24.161a23.877,23.877,0,0,0,1.2,8.653,14.761,14.761,0,0,0,4.241,5.869,20.253,20.253,0,0,0,24.8,0,14.53,14.53,0,0,0,4.156-5.869,26.886,26.886,0,0,0,1.242-8.653V498.5H1063.1Z" transform="translate(-140.039 -8.489)" fill="#1a1a1a"/>
            <rect id="Rect치ngulo_5994" data-name="Rect치ngulo 5994" width="9.638" height="28.743" transform="translate(875.213 502.99)" fill="#1a1a1a"/>
            <path id="Trazado_8983" data-name="Trazado 8983" d="M1157.024,498.5v23.947q0,10.367-8.182,10.366t-8.182-10.366V498.5h-9.639v24.161a23.849,23.849,0,0,0,1.2,8.653,14.75,14.75,0,0,0,4.241,5.869,20.252,20.252,0,0,0,24.8,0,14.525,14.525,0,0,0,4.155-5.869,26.9,26.9,0,0,0,1.242-8.653V498.5Z" transform="translate(-186.153 -8.489)" fill="#1a1a1a"/>
          </g>
        </g>
      </g>
    </g>
  </g>
</svg>
