<svg xmlns="http://www.w3.org/2000/svg" width="624.174" height="481.747" viewBox="0 0 624.174 481.747">
  <g id="Grupo_28154" data-name="Grupo 28154" transform="translate(-1275.741 -223.725)">
    <path id="Trazado_30539" data-name="Trazado 30539" d="M2010.38,518.587V497.12L1991.547,489l-8.131-19.059,8.736-19.307-14.783-15.311-19.144,8.271-19.114-7.18-8.057-19.651h-21.628l-7.966,19.681-19.078,7.527-19.672-8.518-14.965,14.9,8.306,19.206-8.306,18.881-21.142,8.566v21.249l19.961,7.715,9.487,19.225-8.389,19.964,9.228,9.088,8.626-3.228,3.346,6.927,13.187-6.058,19.5,8.726,7.995,20H1930.7l7.434-19.935,19.352-8.795,20.061,9.047,14.794-16.065-8.077-19.92,7.677-18.722Zm-90.231,23.554a34.3,34.3,0,1,1,34.3-34.3A34.3,34.3,0,0,1,1920.148,542.141Z" transform="translate(-110.465 -38.709)" fill="#19b6ce"/>
    <path id="Trazado_30540" data-name="Trazado 30540" d="M1894.542,554.255H1674.66l-2.908,32.627V703.209s-1.563,14.271-16.722,14.892h-50.936a16.881,16.881,0,0,0,16.814,16.305h273.634a16.891,16.891,0,0,0,16.841-16.842V571.1A16.891,16.891,0,0,0,1894.542,554.255Z" transform="translate(-65.845 -66.281)" fill="#1a1a1a"/>
    <path id="Trazado_30541" data-name="Trazado 30541" d="M1753.307,522.776s-20.194,3.412-37.1.191-24.105-11.114-27.127-21.1-5.96-19.653-5.055-31.319,1.444-15.219,1.444-15.219-6.747,3.611-21.787.574-20.407-6.939-20.407-6.939a187.173,187.173,0,0,0-1.214,31.378c.863,16.312,5.756,50.187,18.069,65.869s21.974,28.714,59.166,27.518c0,0-4.156,50.392-4.9,80.176s0,59.385,0,59.385h151.371s1-25.641,0-50.742c-1.2-29.917-2.526-60.764-5.584-80.576-2.729-17.676-5.175-31.254-24.361-44.414s-41.345-13.882-41.345-13.882Z" transform="translate(-73.416 -45.168)" fill="#19b6ce"/>
    <path id="Trazado_30542" data-name="Trazado 30542" d="M1462.031,561.331s-6.135,4.571-5.682,12.46,12.438,12.057,20.007,11.081l.6-9.94s-6.771-5.324-7.345-14.047C1469.608,560.885,1464.07,563.417,1462.031,561.331Z" transform="translate(-36.213 -67.611)" fill="#19b6ce"/>
    <path id="Trazado_30543" data-name="Trazado 30543" d="M1517.071,561.836s-2.577,11.544-6.876,12.959l.434,10.2s14.658.217,19.766-8.984-5.938-14.57-5.938-14.57A10.346,10.346,0,0,1,1517.071,561.836Z" transform="translate(-47.015 -67.723)" fill="#19b6ce"/>
    <path id="Trazado_30544" data-name="Trazado 30544" d="M1511.482,535.2s3.257-13.494-.431-21.579-12.049-10.58-21.164-10.663c0,0-15.212.011-19.743,7.676s-5.38,14.876-3.211,24.229l.306,1.015,2.655.336a9.162,9.162,0,0,1,8.958-7.344l11.028-13.762,11,13.1s7.2,1.313,8.179,7.668Z" transform="translate(-38.111 -55.994)" fill="#19b6ce"/>
    <path id="Trazado_30545" data-name="Trazado 30545" d="M1456.388,594.032s-22.659-.733-35.493,10.755-12.99,20.53-12.99,20.53l-6.8-21.128s-3.9-5.465-25.728-1.875-17.954,10.069-17.954,10.069l11.092,66.633s4.518,35.74,32.338,34.5,23.494-35.931,23.494-35.931a104.782,104.782,0,0,1,.8,24.722c-1.236,12.927-5.114,43.2-8.535,58.027s-4.667,18.588-4.667,18.588h114.086s-8.327-32.777-10.685-53.652-3.837-35.54-2.617-42.525c0,0,1.116,28.239,24.146,30.745s30.858-26.179,32.533-34.24,10.953-66.31,10.953-66.31,1.674-7.17-22.317-11.026c-19.7-3.166-21.325,2.685-21.325,2.685l-6.647,20.182s-5.77-16.894-18.442-24c-14.661-8.219-30.438-7.244-30.438-7.244Z" transform="translate(-16.326 -74.152)" fill="#1a1a1a"/>
    <path id="Trazado_30546" data-name="Trazado 30546" d="M1643.66,284.119V223.728s-26.954-.708-43.788,18.81-16.6,41.581-16.6,41.581Z" transform="translate(-61.669)" fill="#19b6ce"/>
    <path id="Trazado_30547" data-name="Trazado 30547" d="M1785.287,515.469l.365,3.7-5.4,8.1.141,30.847.856-.872s-5.4,70.15-5.745,80.061l26.807-78,2.213,3.641,16.707-35.677-8.074-8.532-1.5-19.831s7.717,2.624,10.418-2.86.417-11.912-4.225-12.886-9.3,2.7-9.3,2.7-9.674-11.619-10.32-18.982c0,0-9.189,11.253-22.6,6.7,0,0-.6,22.278-.256,26.833S1775.046,514.313,1785.287,515.469Z" transform="translate(-100.172 -48.76)" fill="#fff"/>
    <path id="Trazado_30548" data-name="Trazado 30548" d="M1675.383,445.843s-.4-14.338-.275-17.267a7.22,7.22,0,0,1,5.135-6.717c3.23-1,11.488-5.24,11.17-8.438s-2.565-5.742-5.991-5.248a45.264,45.264,0,0,0-13.2,4.462,55.255,55.255,0,0,1-8.054,3.486s-10.222-12.193-16.114-17.466-10.69-5.384-12.147-3.157c0,0-5.142-1.668-6.889,1.521,0,0-4.005-1.518-6.732.3s-1.715,6.879,3.762,14.633,14.609,12.509,15.753,14.214,4.321,10.033,2.607,14.02c0,0,1.016,2.482,11.93,4.145A124.672,124.672,0,0,0,1675.383,445.843Z" transform="translate(-69.201 -34.171)" fill="#fff"/>
    <path id="Trazado_30549" data-name="Trazado 30549" d="M1648.611,444.975s-4.077.863-4.654,2.447,4.654,3.4,4.654,3.4Z" transform="translate(-73.83 -44.367)" fill="#1a1a1a"/>
    <path id="Trazado_30550" data-name="Trazado 30550" d="M1688.6,451.683l.44,6.037s6.541-.03,5.776-2.346S1688.6,451.683,1688.6,451.683Z" transform="translate(-82.79 -45.713)" fill="#1a1a1a"/>
    <path id="Trazado_30551" data-name="Trazado 30551" d="M1476.047,588.269l1.446-21.54s-7.061-6.326-7.291-13.967c0,0-10.586,3.55-11.158-6.1s9.491-7.4,9.491-7.4,2.584-7.92,8.958-7.344l11.028-13.762,10.995,13.1s7.426.767,8.786,8.081c0,0,9.308-2.011,9.722,6.441s-7.851,8.807-10.666,7.433l-.549-.056s-2.965,11.408-7.485,13.362l2.692,21.421s-2.717,4.255-13.428,3.656S1476.047,588.269,1476.047,588.269Z" transform="translate(-36.754 -59.042)" fill="#fff"/>
    <path id="Trazado_30552" data-name="Trazado 30552" d="M1390.815,599.2l-3.769-13.4a20.9,20.9,0,0,0,2.3-11.794c-.835-6.3-.662-15.01-10.432-13.854a104.514,104.514,0,0,1-5.979-15.132,94.4,94.4,0,0,0-3.356-10.172s-3,3.2-5.01,2.933-5.711-1.947-5.653-3.238a32.023,32.023,0,0,0-.081,12.471,63.653,63.653,0,0,0,4.459,14.2s-6.266-4.511-8.452-4.734-9.279,4.738-8.092,9.869c0,0-4.415,3.507-4.639,7.111s5.352,8.857,13.467,14.841c0,0,4.161,6.249,8.066,6.515l1.994,9.347a83.65,83.65,0,0,0,13.412-1.5A49.024,49.024,0,0,0,1390.815,599.2Z" transform="translate(-13.308 -62.328)" fill="#fff"/>
    <path id="Trazado_30553" data-name="Trazado 30553" d="M1588.366,601.231a34.837,34.837,0,0,0,1.595-13.882c-.839-7.01-2.987-16.632-4.119-19.458s-2.251-11.591,3.794-11.829,6.964,3.219,7.564,6.4,2.255,9.16,2.255,9.16l15.252-22.243s8.047-3.968,9.035,3.434v1.206a6.089,6.089,0,0,1,5.875-.248c3.159,1.59,2.272,5.274,2.272,5.274l.391.684s.961-.313,3.952.95,3.092,4.119,1.47,7.25-6.72,12.374-10.644,16.909-6.05,7.553-8.178,13.669-1.995,8.111-1.995,8.111S1601.8,607.282,1588.366,601.231Z" transform="translate(-62.005 -65.09)" fill="#fff"/>
    <path id="Trazado_30554" data-name="Trazado 30554" d="M1373.793,530.6a5.331,5.331,0,1,1-5.332-5.331A5.332,5.332,0,0,1,1373.793,530.6Z" transform="translate(-17.524 -60.47)" fill="#19b6ce"/>
    <path id="Trazado_30555" data-name="Trazado 30555" d="M1508.811,599.551a53.368,53.368,0,0,0-1.977-6.811,27.139,27.139,0,0,0-3.342-4.624h-23.879l-4,4.91s-7.844,23.145,1.641,26.291,13.362-9.454,13.584-10.437,1.062-3.23,1.062-3.23,2.462,16.391,12.656,14.43S1509.476,601.633,1508.811,599.551Z" transform="translate(-39.47 -73.072)" fill="#fff"/>
    <path id="Trazado_30556" data-name="Trazado 30556" d="M1417.866,486a5.331,5.331,0,1,1-5.332-5.331A5.331,5.331,0,0,1,1417.866,486Z" transform="translate(-26.362 -51.525)" fill="#fff"/>
    <path id="Trazado_30557" data-name="Trazado 30557" d="M1439.986,508.287a5.331,5.331,0,1,1-5.332-5.331A5.332,5.332,0,0,1,1439.986,508.287Z" transform="translate(-30.798 -55.994)" fill="#1a1a1a"/>
    <path id="Trazado_30558" data-name="Trazado 30558" d="M1486.121,461.146a5.331,5.331,0,1,1-5.331-5.332A5.331,5.331,0,0,1,1486.121,461.146Z" transform="translate(-40.05 -46.541)" fill="#fff"/>
    <path id="Trazado_30559" data-name="Trazado 30559" d="M1337.437,493.942a5.331,5.331,0,1,1-5.331-5.331A5.331,5.331,0,0,1,1337.437,493.942Z" transform="translate(-10.234 -53.118)" fill="#1a1a1a"/>
    <path id="Trazado_30560" data-name="Trazado 30560" d="M1791.994,561.12l-8.086,10.945,1.064,9.4-5.3,11.435-4.108,63.308,19.152-56.473-1.376-17.266,6.264-8.815Z" transform="translate(-100.23 -67.658)" fill="#1a1a1a"/>
    <path id="Trazado_30561" data-name="Trazado 30561" d="M1819.772,480.859s6.429-8.366,3.613-16.471-7.789-12.625-20.427-10.033c0,0-6.521-7.425-14.7-6.5s-17.539,4.31-19.406,13.418,4.962,16.46,4.962,16.46l.466-7.983s16.259,3.407,22.032-7.089l.569.39s6,17.139,10.32,18.982C1807.2,482.029,1812.024,475.667,1819.772,480.859Z" transform="translate(-98.819 -44.928)" fill="#1a1a1a"/>
    <rect id="Rect치ngulo_6055" data-name="Rect치ngulo 6055" width="27.718" height="27.718" transform="translate(1500.105 410.959)" fill="#1a1a1a"/>
    <rect id="Rect치ngulo_6056" data-name="Rect치ngulo 6056" width="19.75" height="19.75" transform="translate(1544.676 460.103)" fill="#19b6ce"/>
    <path id="Trazado_30562" data-name="Trazado 30562" d="M1663.889,244.018v60.391H1603.5a60.39,60.39,0,1,0,60.391-60.391Z" transform="translate(-65.725 -4.069)" fill="#1a1a1a"/>
    <path id="Trazado_30563" data-name="Trazado 30563" d="M1794.638,564.424l-6.415,8.262,1.384,9.482-10.868,33.6,1.571-22.87,5.3-11.435-.591-9.979,7.613-10.362Z" transform="translate(-100.867 -67.658)" fill="#fff"/>
    <path id="Trazado_30564" data-name="Trazado 30564" d="M1791.716,448.727c.723-.1,1.391-.211,2.021-.321a13.562,13.562,0,0,0-5.477-.555c-8.177.919-17.539,4.31-19.406,13.418s4.962,16.46,4.962,16.46l.466-7.983s.906.188,2.355.34l.055-.34S1769.911,451.874,1791.716,448.727Z" transform="translate(-98.819 -44.929)" fill="#fff"/>
    <path id="Trazado_30565" data-name="Trazado 30565" d="M1489.887,502.956s-15.212.011-19.743,7.676-5.38,14.876-3.211,24.229l.281.93c1.056.014,2.306.066,2.756.086a10.044,10.044,0,0,1,1.7-3.5c-.349-3.837-3.843-26.448,17.511-28.234,1.581-.132,5.208-.585,6.321-.771A42.189,42.189,0,0,0,1489.887,502.956Z" transform="translate(-38.111 -55.994)" fill="#fff"/>
    <path id="Trazado_30566" data-name="Trazado 30566" d="M1456.349,573.9c.418,7.3,10.707,11.4,18.239,11.205l.385-1.144s-14.338-1.042-14.227-10.9c.1-9.236,5.894-10.463,5.894-10.463l-1.469-.368a3.821,3.821,0,0,1-3.139-.787S1455.9,566.014,1456.349,573.9Z" transform="translate(-36.213 -67.723)" fill="#fff"/>
    <path id="Trazado_30567" data-name="Trazado 30567" d="M1803.963,465.93s8.21,15.864,14.614,16.594l-4.534,3.49S1806.977,474.352,1803.963,465.93Z" transform="translate(-105.925 -48.57)" fill="#fff"/>
    <path id="Trazado_30568" data-name="Trazado 30568" d="M1389.094,733.34s4.85-11.092,16.551-11.326a23.383,23.383,0,0,1,18.194,8.418s-3.984,8.367-16.585,8.855S1389.094,733.34,1389.094,733.34Z" transform="translate(-22.731 -99.921)" fill="#19b6ce"/>
    <path id="Trazado_30569" data-name="Trazado 30569" d="M1560.99,730.3s6.239-9.778,18.294-8.182a20.713,20.713,0,0,1,16.166,11.448s-5.5,7.029-17.7,5.679S1560.99,730.3,1560.99,730.3Z" transform="translate(-57.201 -99.909)" fill="#19b6ce"/>
    <g id="Grupo_28055" data-name="Grupo 28055" transform="translate(1722.736 368.385)">
      <path id="Trazado_30570" data-name="Trazado 30570" d="M1973.271,574.931a.727.727,0,0,1-.3-.067l-4.649-2.2c-3.593-1.705-7.123-3.385-10.67-5a.7.7,0,0,1-.348-.931.715.715,0,0,1,.931-.349c3.551,1.625,7.092,3.3,10.69,5.013l4.2,1.989,3.187-3.216c3.7-3.723,7.519-7.576,11.159-11.444a3.077,3.077,0,0,0,.156-2.444c-1.29-2.881-2.673-5.782-4.01-8.587-1.233-2.587-2.465-5.171-3.645-7.781a5.763,5.763,0,0,1-.265-4c2.043-5.9,4.014-11.135,6.022-16.017a6.456,6.456,0,0,1,3.2-3.26c5.818-2.355,11.658-4.423,16.093-5.959a2.147,2.147,0,0,0,1.747-2.534c-.119-6.508-.119-12.441,0-18.137.031-1.555-.411-2.16-1.991-2.7-4.706-1.625-10.259-3.59-15.787-5.86a6.936,6.936,0,0,1-3.343-3.466c-1.908-4.415-3.775-9.144-6.052-15.336a5.673,5.673,0,0,1,.021-3.944c1.242-2.766,2.547-5.506,3.853-8.244,1.373-2.891,2.75-5.784,4.056-8.707a2.955,2.955,0,0,0-.3-2.4c-2.423-2.59-4.965-5.158-7.426-7.644-1.892-1.911-3.785-3.825-5.641-5.763a1.9,1.9,0,0,0-2.736-.432c-6.187,3.065-11.382,5.53-16.353,7.752a6.094,6.094,0,0,1-4.243.189c-5.283-1.9-10.551-3.961-15.656-6.122a6.535,6.535,0,0,1-3.323-3.1c-1.867-4.638-3.686-9.6-5.911-16.1-.505-1.489-.968-2.046-2.455-2.046-5.948.146-11.891.148-18.312.008-1.482-.1-2.148.416-2.689,2.009-.879,2.566-1.815,5.109-2.75,7.654-.993,2.709-1.991,5.42-2.917,8.153a5.388,5.388,0,0,1-3.817,3.671c-5.106,1.772-10.025,3.742-14.632,5.852a5.414,5.414,0,0,1-5.277-.052c-2.73-1.375-5.492-2.7-8.252-4.017-2.579-1.233-5.158-2.465-7.712-3.746a2.088,2.088,0,0,0-3.01.524c-4.633,4.836-8.829,9.029-12.828,12.82-1.179,1.115-1.133,1.83-.41,3.283,2.334,4.727,5.059,10.334,7.586,16.093a6.2,6.2,0,0,1-.1,4.487c-2.2,5.142-4.587,10.274-7.076,15.25a7.218,7.218,0,0,1-3.427,3.363c-.676.26-1.363.516-2.049.769a.7.7,0,0,1-.9-.416.7.7,0,0,1,.416-.9c.687-.252,1.362-.509,2.038-.763a5.742,5.742,0,0,0,2.667-2.681c2.485-4.952,4.852-10.058,7.046-15.175a4.791,4.791,0,0,0,.1-3.372c-2.511-5.73-5.225-11.32-7.555-16.031-.889-1.788-1.082-3.236.7-4.926,3.983-3.775,8.163-7.952,12.786-12.773a3.422,3.422,0,0,1,4.643-.806c2.553,1.274,5.121,2.5,7.7,3.734,2.766,1.326,5.538,2.649,8.278,4.029a4.065,4.065,0,0,0,4.061.032c4.644-2.132,9.609-4.119,14.757-5.9a4,4,0,0,0,2.943-2.8c.931-2.742,1.934-5.465,2.932-8.184.931-2.535,1.861-5.069,2.735-7.625a3.784,3.784,0,0,1,4.05-2.959c6.4.138,12.318.146,18.08,0,2.5,0,3.359,1.15,3.989,2.995,2.209,6.471,4.024,11.416,5.88,16.028a5.146,5.146,0,0,0,2.574,2.338c5.075,2.151,10.321,4.2,15.583,6.094a4.742,4.742,0,0,0,3.192-.149c4.956-2.218,10.135-4.675,16.3-7.732a3.269,3.269,0,0,1,4.373.718c1.851,1.933,3.738,3.841,5.626,5.748,2.465,2.493,5.013,5.069,7.451,7.672a4.2,4.2,0,0,1,.557,3.929c-1.31,2.935-2.689,5.837-4.072,8.738-1.3,2.729-2.594,5.46-3.838,8.218a4.293,4.293,0,0,0,.021,2.883c2.267,6.167,4.125,10.873,6.021,15.263a5.606,5.606,0,0,0,2.585,2.722c5.5,2.257,11.028,4.217,15.713,5.835,2.158.74,2.985,1.88,2.938,4.061-.12,5.675-.12,11.59,0,18.079a3.518,3.518,0,0,1-2.693,3.887c-4.419,1.532-10.232,3.59-16.021,5.933a4.973,4.973,0,0,0-2.433,2.493c-2,4.859-3.957,10.074-6,15.947a4.416,4.416,0,0,0,.223,2.959c1.175,2.6,2.4,5.179,3.634,7.755,1.341,2.813,2.73,5.725,4.019,8.621a4.271,4.271,0,0,1-.416,3.977c-3.65,3.881-7.482,7.74-11.185,11.473l-3.53,3.567A.712.712,0,0,1,1973.271,574.931Zm-84.048-50.224a.7.7,0,0,1-.488-.2A34.8,34.8,0,0,1,1878.247,499a35.658,35.658,0,0,1,10.467-25.427,36.055,36.055,0,0,1,61.5,25.515,34.563,34.563,0,0,1-10.508,25.424.7.7,0,0,1-.978-1.009,33.174,33.174,0,0,0,10.083-24.415,34.581,34.581,0,1,0-69.161-.088,33.429,33.429,0,0,0,10.061,24.505.7.7,0,0,1,.016.993A.712.712,0,0,1,1889.223,524.707Z" transform="translate(-1834.855 -404.67)"/>
    </g>
    <g id="Grupo_28060" data-name="Grupo 28060" transform="translate(1551.095 359.127)">
      <g id="Grupo_28056" data-name="Grupo 28056" transform="translate(28.135 14.169)">
        <path id="Trazado_30571" data-name="Trazado 30571" d="M1682.341,450.226a.7.7,0,0,1-.7-.626c-.209-1.964-1.945-19.254,1.326-22.192a28.759,28.759,0,0,1,8.007-4.9c.895-.409,1.762-.8,2.594-1.243,2.98-1.591,4.451-3.655,4.035-5.665-.374-1.788-2.22-3.169-4.5-3.354-4.836-.421-12.687,3.8-18.412,6.861l-.54.291c-4.919,2.624-17.8-1.983-18.339-2.181a.7.7,0,0,1,.478-1.321c3.551,1.287,13.581,4.2,17.195,2.265l.546-.292c6.213-3.319,13.92-7.456,19.187-7.022,2.891.233,5.256,2.072,5.756,4.469.26,1.258.323,4.479-4.747,7.186-.858.456-1.753.863-2.672,1.282a27.228,27.228,0,0,0-7.654,4.672c-2.064,1.851-1.628,13.863-.868,21a.7.7,0,0,1-.625.772C1682.387,450.224,1682.367,450.226,1682.341,450.226Z" transform="translate(-1655.354 -410.813)"/>
      </g>
      <g id="Grupo_28057" data-name="Grupo 28057" transform="translate(0 2.366)">
        <path id="Trazado_30572" data-name="Trazado 30572" d="M1644.229,441.716a.719.719,0,0,1-.7-.791c.016-.119,1.461-12.019-3.591-14.879-5.007-2.832-20.466-15.953-19.756-25.736a4.405,4.405,0,0,1,2.428-3.746,6.527,6.527,0,0,1,6.344.761c3.312,2.169,13.392,12.662,14.851,14.185,1.991.357,15.05,2.988,19.3,11.523a.7.7,0,0,1-1.259.624c-4.181-8.406-18.357-10.779-18.5-10.8a.677.677,0,0,1-.395-.208c-.114-.119-11.4-11.943-14.765-14.146a5.139,5.139,0,0,0-4.95-.678,2.993,2.993,0,0,0-1.653,2.592c-.617,8.512,13.243,21.129,19.049,24.41,5.868,3.322,4.36,15.75,4.292,16.277A.706.706,0,0,1,1644.229,441.716Z" transform="translate(-1620.162 -396.049)"/>
      </g>
      <g id="Grupo_28058" data-name="Grupo 28058" transform="translate(7.709 0.903)">
        <path id="Trazado_30573" data-name="Trazado 30573" d="M1657.417,415.834a.694.694,0,0,1-.52-.232c-6.994-7.736-18.374-19.421-21.062-19.893a4.228,4.228,0,0,0-4.7,2.144.712.712,0,0,1-.938.323.7.7,0,0,1-.325-.934,5.681,5.681,0,0,1,6.205-2.917c4.022.71,20.045,18.329,21.857,20.337a.7.7,0,0,1-.52,1.172Z" transform="translate(-1629.805 -394.219)"/>
      </g>
      <g id="Grupo_28059" data-name="Grupo 28059" transform="translate(14.913)">
        <path id="Trazado_30574" data-name="Trazado 30574" d="M1667.778,416.615a.7.7,0,0,1-.536-.247c-.068-.078-6.786-7.958-8.366-9.5-.79-.775-1.708-1.758-2.711-2.832-3.289-3.518-7.381-7.893-10.719-9.055-3.984-1.389-5.317.665-5.333.686a.7.7,0,1,1-1.19-.743c.075-.122,1.952-3.021,6.986-1.269,3.663,1.274,7.888,5.792,11.28,9.422.989,1.059,1.893,2.025,2.67,2.787,1.625,1.591,8.175,9.271,8.455,9.6a.7.7,0,0,1-.536,1.157Z" transform="translate(-1638.816 -393.09)"/>
      </g>
    </g>
    <g id="Grupo_28063" data-name="Grupo 28063" transform="translate(1531.099 234.111)">
      <g id="Grupo_28061" data-name="Grupo 28061" transform="translate(0)">
        <path id="Trazado_30575" data-name="Trazado 30575" d="M1656.242,298.512h-60.389a.7.7,0,1,1,0-1.4h59.688v-59.69a.7.7,0,1,1,1.4,0V297.81A.7.7,0,0,1,1656.242,298.512Z" transform="translate(-1595.151 -236.716)"/>
      </g>
      <g id="Grupo_28062" data-name="Grupo 28062" transform="translate(0)">
        <path id="Trazado_30576" data-name="Trazado 30576" d="M1656.242,358.9a61.092,61.092,0,1,1,41.2-15.981.7.7,0,1,1-.946-1.035,59.529,59.529,0,1,0-29.961,14.728.692.692,0,0,1,.812.572.7.7,0,0,1-.572.811A61.764,61.764,0,0,1,1656.242,358.9Z" transform="translate(-1595.151 -236.716)"/>
      </g>
    </g>
    <g id="Grupo_28064" data-name="Grupo 28064" transform="translate(1522.312 490.152)">
      <path id="Trazado_30577" data-name="Trazado 30577" d="M1588.53,603.235a.7.7,0,0,1-.647-.972c1.329-3.171,2.763-14.648-1.625-28.1-2.438-7.48-2.743-12.175-.957-14.77,1.022-1.49,2.725-2.275,5.208-2.4,5.985-.288,6.9,5.031,7.729,9.734.608,3.439,1.238,7,3.574,8.634,6.325,4.43,4.729,12.237,4.659,12.568a.683.683,0,0,1-.832.537.7.7,0,0,1-.54-.831c.062-.293,1.46-7.235-4.093-11.125-2.813-1.971-3.495-5.818-4.151-9.539-.837-4.728-1.573-8.795-6.273-8.573-2.046.1-3.356.673-4.123,1.793-1.5,2.176-1.127,6.6,1.135,13.538,4.111,12.6,3.375,24.8,1.584,29.076A.7.7,0,0,1,1588.53,603.235Z" transform="translate(-1584.16 -556.98)"/>
    </g>
    <g id="Grupo_28065" data-name="Grupo 28065" transform="translate(1537.15 482.359)">
      <path id="Trazado_30578" data-name="Trazado 30578" d="M1612.7,577.258a.715.715,0,0,1-.432-.148.7.7,0,0,1-.122-.986,182.787,182.787,0,0,0,13.72-21.479,5.779,5.779,0,0,0,.694-1.625,3.52,3.52,0,0,0-1.432-3.237,5.231,5.231,0,0,0-5.256-.762c-1.243.494-2.527,1.789-3.926,3.955-1.768,2.741-3.359,5.046-4.762,7.082a90.335,90.335,0,0,0-7.137,11.544.69.69,0,0,1-.941.312.7.7,0,0,1-.312-.941,92.533,92.533,0,0,1,7.233-11.71c1.4-2.028,2.984-4.326,4.739-7.046,1-1.547,2.556-3.694,4.587-4.5a6.659,6.659,0,0,1,6.66.975,4.931,4.931,0,0,1,1.927,4.591,6.963,6.963,0,0,1-.845,2.043,179.377,179.377,0,0,1-13.84,21.662A.7.7,0,0,1,1612.7,577.258Z" transform="translate(-1602.719 -547.232)"/>
    </g>
    <g id="Grupo_28066" data-name="Grupo 28066" transform="translate(1554.935 487.28)">
      <path id="Trazado_30579" data-name="Trazado 30579" d="M1625.667,583.411a.7.7,0,0,1-.554-1.134,143.561,143.561,0,0,0,13.795-21.75,4.45,4.45,0,0,0,.692-2.114,3.939,3.939,0,0,0-1.853-2.756,5.046,5.046,0,0,0-5.907.169.7.7,0,1,1-.811-1.143,6.48,6.48,0,0,1,7.483-.205,5.337,5.337,0,0,1,2.494,3.879,5.734,5.734,0,0,1-.853,2.821,145.124,145.124,0,0,1-13.93,21.964A.7.7,0,0,1,1625.667,583.411Z" transform="translate(-1624.965 -553.388)"/>
    </g>
    <g id="Grupo_28067" data-name="Grupo 28067" transform="translate(1553.849 493.765)">
      <path id="Trazado_30580" data-name="Trazado 30580" d="M1624.308,610.235a.712.712,0,0,1-.7-.749c.382-5.595,3.156-13.41,6.06-17.068,4.279-5.392,12.058-15.2,15.417-22.718a6.261,6.261,0,0,0,.77-3.663,3.757,3.757,0,0,0-2.178-2.486,4.584,4.584,0,0,0-3.845-.374.7.7,0,0,1-.912-.393.7.7,0,0,1,.393-.912,6,6,0,0,1,4.942.4,5.113,5.113,0,0,1,2.974,3.47,7.42,7.42,0,0,1-.86,4.529c-3.43,7.68-11.284,17.575-15.5,22.894-2.808,3.539-5.5,11.149-5.859,16.413A.7.7,0,0,1,1624.308,610.235Z" transform="translate(-1623.607 -561.499)"/>
    </g>
    <g id="Grupo_28068" data-name="Grupo 28068" transform="translate(1407 418.581)">
      <path id="Trazado_30581" data-name="Trazado 30581" d="M1440.624,497.882a.7.7,0,0,1-.5-.205.7.7,0,0,1,0-.993l29.021-29.02a.7.7,0,0,1,.993.994l-29.022,29.019A.7.7,0,0,1,1440.624,497.882Z" transform="translate(-1439.924 -467.457)"/>
    </g>
    <g id="Grupo_28069" data-name="Grupo 28069" transform="translate(1388.98 437.781)">
      <path id="Trazado_30582" data-name="Trazado 30582" d="M1427.905,502.7a.7.7,0,0,1-.5-.205l-9.82-9.82a.7.7,0,1,1,.993-.993l9.82,9.82a.7.7,0,0,1-.5,1.2Z" transform="translate(-1417.384 -491.472)"/>
    </g>
    <g id="Grupo_28070" data-name="Grupo 28070" transform="translate(1354.379 437.667)">
      <path id="Trazado_30583" data-name="Trazado 30583" d="M1374.805,520.187a.7.7,0,0,1-.5-1.2l27.454-27.452a.7.7,0,0,1,.993.993L1375.3,519.982A.7.7,0,0,1,1374.805,520.187Z" transform="translate(-1374.104 -491.33)"/>
    </g>
    <g id="Grupo_28071" data-name="Grupo 28071" transform="translate(1324.983 444.345)">
      <path id="Trazado_30584" data-name="Trazado 30584" d="M1359.307,522.363a.7.7,0,0,1-.5-.206l-21.272-21.275a.7.7,0,0,1,.994-.993l21.271,21.275a.7.7,0,0,1-.5,1.2Z" transform="translate(-1337.334 -499.683)"/>
    </g>
    <g id="Grupo_28072" data-name="Grupo 28072" transform="translate(1380.141 428.441)">
      <path id="Trazado_30585" data-name="Trazado 30585" d="M1412.358,491.858a6.034,6.034,0,1,1,6.034-6.034A6.039,6.039,0,0,1,1412.358,491.858Zm0-10.664a4.631,4.631,0,1,0,4.63,4.631A4.634,4.634,0,0,0,1412.358,481.194Z" transform="translate(-1406.327 -479.79)"/>
    </g>
    <g id="Grupo_28073" data-name="Grupo 28073" transform="translate(1397.824 446.26)">
      <path id="Trazado_30586" data-name="Trazado 30586" d="M1434.478,514.145a6.033,6.033,0,1,1,6.034-6.034A6.04,6.04,0,0,1,1434.478,514.145Zm0-10.662a4.629,4.629,0,1,0,4.63,4.627A4.632,4.632,0,0,0,1434.478,503.483Z" transform="translate(-1428.446 -502.079)"/>
    </g>
    <g id="Grupo_28074" data-name="Grupo 28074" transform="translate(1434.54 408.57)">
      <path id="Trazado_30587" data-name="Trazado 30587" d="M1480.4,467a6.033,6.033,0,1,1,6.034-6.032A6.039,6.039,0,0,1,1480.4,467Zm0-10.662a4.629,4.629,0,1,0,4.63,4.63A4.634,4.634,0,0,0,1480.4,456.34Z" transform="translate(-1474.371 -454.935)"/>
    </g>
    <g id="Grupo_28075" data-name="Grupo 28075" transform="translate(1344.905 464.103)">
      <path id="Trazado_30588" data-name="Trazado 30588" d="M1368.284,536.463a6.063,6.063,0,0,1-5.966-5.145,5.91,5.91,0,0,1-.065-.889,6.033,6.033,0,1,1,6.031,6.034Zm0-10.662a4.631,4.631,0,0,0-4.627,4.628,4.729,4.729,0,0,0,.049.684,4.63,4.63,0,1,0,4.578-5.312Z" transform="translate(-1362.253 -524.397)"/>
    </g>
    <g id="Grupo_28076" data-name="Grupo 28076" transform="translate(1315.838 434.79)">
      <path id="Trazado_30589" data-name="Trazado 30589" d="M1331.931,499.8a6.034,6.034,0,1,1,6.031-6.034A6.041,6.041,0,0,1,1331.931,499.8Zm0-10.665a4.63,4.63,0,1,0,4.627,4.63A4.635,4.635,0,0,0,1331.931,489.135Z" transform="translate(-1325.896 -487.731)"/>
    </g>
    <g id="Grupo_28077" data-name="Grupo 28077" transform="translate(1454.878 472.126)">
      <path id="Trazado_30590" data-name="Trazado 30590" d="M1508.5,556.3c-4.789,0-8.685-4.9-8.685-10.933s3.9-10.935,8.685-10.935,8.69,4.906,8.69,10.935S1513.288,556.3,1508.5,556.3Zm0-20.463c-4.016,0-7.282,4.276-7.282,9.531s3.266,9.529,7.282,9.529,7.285-4.275,7.285-9.529S1512.513,535.837,1508.5,535.837Z" transform="translate(-1499.811 -534.432)"/>
    </g>
    <g id="Grupo_28078" data-name="Grupo 28078" transform="translate(1431.331 472.126)">
      <path id="Trazado_30591" data-name="Trazado 30591" d="M1479.044,556.3c-4.79,0-8.686-4.9-8.686-10.933s3.9-10.935,8.686-10.935,8.685,4.906,8.685,10.935S1483.833,556.3,1479.044,556.3Zm0-20.463c-4.017,0-7.282,4.276-7.282,9.531s3.265,9.529,7.282,9.529,7.281-4.275,7.281-9.529S1483.061,535.837,1479.044,535.837Z" transform="translate(-1470.358 -534.432)"/>
    </g>
    <g id="Grupo_28079" data-name="Grupo 28079" transform="translate(1447.346 480.511)">
      <path id="Trazado_30592" data-name="Trazado 30592" d="M1498.332,548.162a.693.693,0,0,1-.481-.192,5.079,5.079,0,0,0-3.627-1.64,4.022,4.022,0,0,0-2.584,1.349.7.7,0,0,1-1.1-.871,5.381,5.381,0,0,1,3.565-1.877,6.237,6.237,0,0,1,4.708,2.02.7.7,0,0,1-.481,1.211Z" transform="translate(-1490.39 -544.92)"/>
    </g>
    <g id="Grupo_28085" data-name="Grupo 28085" transform="translate(1340.359 519.351)">
      <g id="Grupo_28080" data-name="Grupo 28080" transform="translate(0.018 18.161)">
        <path id="Trazado_30593" data-name="Trazado 30593" d="M1398.5,718.863c-24.943,0-30.725-33.278-32.665-44.434-2.839-16.314-9.169-56.988-9.235-57.4a.7.7,0,0,1,.585-.8.673.673,0,0,1,.8.588c.062.409,6.393,41.073,9.229,57.373,1.942,11.174,7.885,45.123,33.465,43.183,11.419-.894,23.539-9.869,23.31-32.373a.734.734,0,0,1,.7-.71.7.7,0,0,1,.7.694c.24,23.472-12.555,32.844-24.6,33.787C1400.011,718.835,1399.244,718.863,1398.5,718.863Z" transform="translate(-1356.59 -616.22)"/>
      </g>
      <g id="Grupo_28081" data-name="Grupo 28081" transform="translate(43.715 9.984)">
        <path id="Trazado_30594" data-name="Trazado 30594" d="M1428.281,673.374a.7.7,0,0,1-.7-.64,185.749,185.749,0,0,0-4.082-24.766,346.971,346.971,0,0,0-12.206-41.023.7.7,0,1,1,1.31-.5,349.1,349.1,0,0,1,12.264,41.21,187.081,187.081,0,0,1,4.113,24.959.7.7,0,0,1-.636.761A.408.408,0,0,1,1428.281,673.374Z" transform="translate(-1411.247 -605.991)"/>
      </g>
      <g id="Grupo_28082" data-name="Grupo 28082" transform="translate(54.559 43.692)">
        <path id="Trazado_30595" data-name="Trazado 30595" d="M1425.513,790.583a.688.688,0,0,1-.309-.073.7.7,0,0,1-.32-.938c3.535-7.176,17.218-78.609,12.708-99.08-4.6-20.877,2.788-41.668,2.862-41.876a.712.712,0,0,1,.9-.421.7.7,0,0,1,.421.9c-.076.2-7.322,20.624-2.81,41.1,4.552,20.664-9.253,92.759-12.823,100A.7.7,0,0,1,1425.513,790.583Z" transform="translate(-1424.811 -648.155)"/>
      </g>
      <g id="Grupo_28083" data-name="Grupo 28083" transform="translate(0 7.202)">
        <path id="Trazado_30596" data-name="Trazado 30596" d="M1368.738,618.493a40.133,40.133,0,0,1-4.285-.213c-4.754-.512-7.466-1.882-7.843-3.965-.412-2.285,2.152-4.872,7.035-7.1a.712.712,0,0,1,.93.349.7.7,0,0,1-.349.931c-4.063,1.851-6.512,4.04-6.234,5.571.242,1.346,2.715,2.4,6.612,2.818a57.178,57.178,0,0,0,15.6-.905c9.687-1.747,18.277-5.312,19.982-8.288a1.359,1.359,0,0,0,.19-1.165c-1.063-2.9-5.584-2.868-9.185-2.337a.7.7,0,0,1-.2-1.389c7.454-1.1,9.937,1.154,10.7,3.243a2.7,2.7,0,0,1-.289,2.347c-1.922,3.352-10.733,7.127-20.949,8.972A67.178,67.178,0,0,1,1368.738,618.493Z" transform="translate(-1356.567 -602.512)"/>
      </g>
      <g id="Grupo_28084" data-name="Grupo 28084" transform="translate(50.521)">
        <path id="Trazado_30597" data-name="Trazado 30597" d="M1420.46,625.485c-.588-.159-.787-.554-.665-.923,1.464-4.43,6.307-12.235,6.512-12.565,13.525-20.333,38.186-18.45,38.431-18.445a.7.7,0,0,1-.119,1.4c-.232-.021-24.093-1.8-37.131,17.807-.038.062-4.947,7.976-6.361,12.248A.7.7,0,0,1,1420.46,625.485Z" transform="translate(-1419.76 -593.503)"/>
      </g>
    </g>
    <g id="Grupo_28091" data-name="Grupo 28091" transform="translate(1467.089 518.978)">
      <g id="Grupo_28086" data-name="Grupo 28086" transform="translate(29.047 18.535)">
        <path id="Trazado_30598" data-name="Trazado 30598" d="M1578.319,718.863c-.749,0-1.51-.028-2.293-.091-12.05-.943-24.841-10.316-24.605-33.787a.7.7,0,0,1,1.4.016c-.227,22.5,11.891,31.479,23.309,32.373,25.65,2.08,31.523-32.009,33.468-43.183,2.835-16.3,9.165-56.965,9.227-57.373a.7.7,0,1,1,1.388.213c-.065.411-6.4,41.085-9.231,57.4C1609.046,685.583,1603.255,718.863,1578.319,718.863Z" transform="translate(-1551.418 -616.22)"/>
      </g>
      <g id="Grupo_28087" data-name="Grupo 28087" transform="translate(36.423 10.361)">
        <path id="Trazado_30599" data-name="Trazado 30599" d="M1561.347,673.375a.716.716,0,0,1-.7-.764,188.187,188.187,0,0,1,4.116-24.959,348.681,348.681,0,0,1,12.263-41.21.714.714,0,0,1,.908-.4.7.7,0,0,1,.4.907,347.068,347.068,0,0,0-12.207,41.023,186.379,186.379,0,0,0-4.084,24.766A.7.7,0,0,1,1561.347,673.375Z" transform="translate(-1560.645 -605.997)"/>
      </g>
      <g id="Grupo_28088" data-name="Grupo 28088" transform="translate(26.312 44.065)">
        <path id="Trazado_30600" data-name="Trazado 30600" d="M1564.3,790.583a.7.7,0,0,1-.629-.393c-3.57-7.235-17.377-79.323-12.823-100,4.513-20.487-2.735-40.893-2.81-41.1a.7.7,0,1,1,1.321-.479c.075.208,7.462,21,2.862,41.876-4.513,20.482,9.172,91.906,12.708,99.08a.7.7,0,0,1-.32.938A.69.69,0,0,1,1564.3,790.583Z" transform="translate(-1547.997 -648.155)"/>
      </g>
      <g id="Grupo_28089" data-name="Grupo 28089" transform="translate(52.605 7.937)">
        <path id="Trazado_30601" data-name="Trazado 30601" d="M1614.08,618.579a68.233,68.233,0,0,1-11.814-1.126c-10.368-1.874-18.979-5.561-20.939-8.966a2.729,2.729,0,0,1-.3-2.35c1.09-3.016,5.018-3.107,7.128-3.156l.51-.016c.442.058.712.291.725.679a.7.7,0,0,1-.679.725l-.525.014c-1.9.044-5.078.119-5.839,2.233a1.362,1.362,0,0,0,.194,1.172c1.714,2.975,10.3,6.536,19.972,8.283,12.48,2.265,21.721.806,22.216-1.913.226-1.256-1.669-3.492-6.419-5.657a.706.706,0,0,1-.349-.931.713.713,0,0,1,.931-.348c5,2.28,7.63,4.9,7.219,7.186C1625.579,617.347,1620.509,618.579,1614.08,618.579Z" transform="translate(-1580.885 -602.964)"/>
      </g>
      <g id="Grupo_28090" data-name="Grupo 28090" transform="translate(0)">
        <path id="Trazado_30602" data-name="Trazado 30602" d="M1561.741,625.391a.7.7,0,0,1-.665-.481c-1.415-4.274-6.323-12.185-6.372-12.264-13.431-20.632-38.581-18.123-38.84-18.1a.714.714,0,0,1-.775-.619.7.7,0,0,1,.619-.775c.253-.045,26.277-2.629,40.178,18.736.213.341,5.057,8.146,6.521,12.576a.7.7,0,0,1-.444.887A.669.669,0,0,1,1561.741,625.391Z" transform="translate(-1515.085 -593.036)"/>
      </g>
    </g>
    <g id="Grupo_28092" data-name="Grupo 28092" transform="translate(1427.646 245.733)">
      <path id="Trazado_30603" data-name="Trazado 30603" d="M1575.876,265.71a.7.7,0,0,1-.366-.1l-.263-.157a.7.7,0,0,1-.252-.959.713.713,0,0,1,.959-.252l.289.172a.7.7,0,0,1-.367,1.3Zm-109.424-.447a.7.7,0,0,1-.294-1.338c2.447-1.131,4.955-2.211,7.454-3.206a.7.7,0,1,1,.52,1.3c-2.477.986-4.961,2.054-7.386,3.175A.691.691,0,0,1,1466.452,265.263Zm101.9-3.283a.714.714,0,0,1-.279-.057c-2.4-1.038-4.922-2.008-7.489-2.889a.7.7,0,1,1,.457-1.326c2.6.892,5.153,1.874,7.589,2.924a.7.7,0,0,1-.277,1.347Zm-86.89-2.673a.7.7,0,0,1-.222-1.368c2.574-.855,5.193-1.641,7.776-2.33a.7.7,0,1,1,.364,1.357c-2.561.682-5.15,1.457-7.7,2.3A.645.645,0,0,1,1481.458,259.307Zm71.617-2.581c-2.737-.707-5.368-1.316-8-1.83a.7.7,0,0,1-.554-.824.677.677,0,0,1,.824-.554c2.667.522,5.329,1.136,7.916,1.828a.7.7,0,0,1-.182,1.381Zm-56.019-1.578a.7.7,0,0,1-.138-1.391c2.636-.533,5.33-.987,8.005-1.352a.681.681,0,0,1,.791.6.7.7,0,0,1-.6.79c-2.647.362-5.312.815-7.922,1.342A.836.836,0,0,1,1497.056,255.147Zm40.173-1.524c-2.735-.343-5.424-.592-8.081-.754a.7.7,0,0,1-.657-.741.651.651,0,0,1,.741-.657c2.689.158,5.41.413,8.085.754a.7.7,0,0,1-.088,1.4Zm-24.179-.655a.7.7,0,0,1-.049-1.4c2.68-.193,5.413-.3,8.114-.314a.7.7,0,1,1,.01,1.4c-2.673.015-5.374.119-8.026.309A.335.335,0,0,1,1513.051,252.969Z" transform="translate(-1465.749 -251.253)"/>
    </g>
    <g id="Grupo_28093" data-name="Grupo 28093" transform="translate(1370.44 275.131)">
      <path id="Trazado_30604" data-name="Trazado 30604" d="M1400.2,400.022a.706.706,0,0,1-.66-.461,76.153,76.153,0,0,1-2.22-7.859.7.7,0,0,1,.522-.845.692.692,0,0,1,.845.523,74.918,74.918,0,0,0,2.174,7.7.7.7,0,0,1-.421.9A.684.684,0,0,1,1400.2,400.022Zm-3.762-15.706a.7.7,0,0,1-.691-.59c-.434-2.675-.778-5.387-1.027-8.059a.7.7,0,0,1,.635-.764.67.67,0,0,1,.765.634c.244,2.641.585,5.322,1.011,7.966a.7.7,0,0,1-.58.8A.558.558,0,0,1,1396.435,384.316Zm-1.5-16.077a.7.7,0,0,1-.7-.684c-.026-.983-.038-1.984-.038-2.992q0-2.512.112-5.129a.752.752,0,0,1,.733-.671.7.7,0,0,1,.67.733q-.113,2.582-.111,5.067,0,1.5.039,2.956a.7.7,0,0,1-.683.72Zm.731-16.124a.716.716,0,0,1-.7-.785c.322-2.717.748-5.417,1.269-8.031a.7.7,0,0,1,.826-.551.705.705,0,0,1,.552.827c-.516,2.577-.936,5.241-1.254,7.922A.7.7,0,0,1,1395.665,352.114Zm3.141-15.83c-.565-.133-.78-.52-.677-.891.739-2.608,1.592-5.208,2.535-7.729a.712.712,0,0,1,.9-.411.7.7,0,0,1,.411.9c-.933,2.482-1.772,5.046-2.5,7.615A.7.7,0,0,1,1398.806,336.284Zm5.667-15.1a.689.689,0,0,1-.3-.068.7.7,0,0,1-.333-.936c1.154-2.43,2.431-4.851,3.8-7.19a.692.692,0,0,1,.959-.253.7.7,0,0,1,.252.959c-1.347,2.306-2.6,4.69-3.742,7.087A.7.7,0,0,1,1404.474,321.182Zm8.13-13.936a.7.7,0,0,1-.575-1.1c1.541-2.2,3.205-4.37,4.94-6.458a.7.7,0,1,1,1.081.9c-1.713,2.056-3.351,4.2-4.872,6.364A.7.7,0,0,1,1412.6,307.246Zm10.308-12.411a.7.7,0,0,1-.5-1.189c.285-.3.577-.592.871-.887,1.321-1.326,2.732-2.513,4.1-3.661l1.071-.9a.7.7,0,0,1,.91,1.066l-1.079.913c-1.344,1.128-2.733,2.3-4.012,3.58-.291.289-.572.577-.852.866A.7.7,0,0,1,1422.911,294.835Z" transform="translate(-1394.194 -288.026)"/>
    </g>
    <g id="Grupo_28094" data-name="Grupo 28094" transform="translate(1405.047 256.354)">
      <path id="Trazado_30605" data-name="Trazado 30605" d="M1448.977,287.481a11.887,11.887,0,0,1-1.386-.08,11.495,11.495,0,1,1,1.386.08Zm-.045-21.539a10.092,10.092,0,1,0,1.217.073A9.987,9.987,0,0,0,1448.933,265.941Z" transform="translate(-1437.48 -264.539)"/>
    </g>
    <g id="Grupo_28095" data-name="Grupo 28095" transform="translate(1652.287 255.433)">
      <path id="Trazado_30606" data-name="Trazado 30606" d="M1747.437,284.5a.7.7,0,0,1-.432-1.255l.266-.2a.7.7,0,1,1,.832,1.134l-.233.174A.717.717,0,0,1,1747.437,284.5Zm7.061-4.539a.7.7,0,0,1-.349-1.31c2.283-1.308,4.711-2.569,7.217-3.754a.7.7,0,0,1,.6,1.269c-2.475,1.17-4.872,2.415-7.123,3.7A.7.7,0,0,1,1754.5,279.957Zm14.595-6.923a.7.7,0,0,1-.255-1.355c2.512-.983,5.091-1.888,7.665-2.7a.7.7,0,1,1,.416,1.342c-2.538.8-5.085,1.692-7.571,2.66A.69.69,0,0,1,1769.093,273.034Zm87.037-1.137c-2.8-.9-5.387-1.681-7.908-2.368a.7.7,0,0,1-.494-.86.708.708,0,0,1,.858-.492c2.548.692,5.163,1.485,7.768,2.353a.7.7,0,0,1-.224,1.367Zm-71.631-3.7a.7.7,0,0,1-.166-1.383c2.647-.636,5.324-1.19,7.955-1.648a.682.682,0,0,1,.811.572.7.7,0,0,1-.573.811c-2.6.45-5.246,1-7.861,1.628A.626.626,0,0,1,1784.5,268.192Zm56.058-.545c-2.782-.576-5.439-1.059-8.054-1.451a.7.7,0,0,1,.207-1.388c2.642.4,5.33.887,7.992,1.45a.7.7,0,0,1-.146,1.389Zm-40.152-2.2a.7.7,0,0,1-.073-1.4c2.662-.283,5.387-.483,8.1-.592a.7.7,0,1,1,.051,1.4c-2.673.106-5.366.3-8,.582C1800.453,265.439,1800.432,265.442,1800.406,265.442Zm24.189-.2c-2.725-.237-5.423-.39-8.08-.456a.7.7,0,0,1,.016-1.4c2.7.067,5.433.221,8.127.457a.7.7,0,0,1-.062,1.4Z" transform="translate(-1746.736 -263.386)"/>
    </g>
    <g id="Grupo_28096" data-name="Grupo 28096" transform="translate(1785.912 276.661)">
      <path id="Trazado_30607" data-name="Trazado 30607" d="M1955.383,398.052c-.542-.111-.775-.491-.682-.868a76.8,76.8,0,0,0,1.305-7.888.744.744,0,0,1,.78-.613.7.7,0,0,1,.614.78,75.088,75.088,0,0,1-1.336,8.054A.7.7,0,0,1,1955.383,398.052Zm1.991-16.02a.712.712,0,0,1-.7-.736c.093-1.905.14-3.884.146-5.881,0-.7-.006-1.419-.021-2.147a.7.7,0,0,1,1.4-.031c.015.739.021,1.466.021,2.182-.005,2.02-.052,4.019-.146,5.946A.7.7,0,0,1,1957.374,382.032Zm-.292-16.145a.7.7,0,0,1-.7-.642c-.234-2.67-.556-5.35-.968-7.971a.7.7,0,0,1,.583-.8.7.7,0,0,1,.8.584c.417,2.652.749,5.366.978,8.07a.7.7,0,0,1-.635.759A.539.539,0,0,1,1957.082,365.887Zm-2.517-15.948a.7.7,0,0,1-.681-.543c-.613-2.615-1.325-5.218-2.127-7.735a.7.7,0,0,1,1.342-.426c.805,2.553,1.529,5.192,2.147,7.844a.7.7,0,0,1-.52.843A.722.722,0,0,1,1954.566,349.939Zm-4.877-15.38a.7.7,0,0,1-.65-.437c-1.015-2.489-2.137-4.942-3.327-7.29a.7.7,0,1,1,1.247-.635c1.212,2.382,2.351,4.87,3.38,7.394a.7.7,0,0,1-.385.915A.693.693,0,0,1,1949.689,334.559Zm-7.311-14.383a.7.7,0,0,1-.6-.333c-1.414-2.285-2.927-4.514-4.509-6.624a.7.7,0,0,1,1.123-.843c1.6,2.145,3.146,4.41,4.581,6.728a.7.7,0,0,1-.6,1.071Zm-9.624-12.942a.7.7,0,0,1-.526-.237c-1.735-1.967-3.6-3.916-5.547-5.787a.7.7,0,0,1,.978-1.009c1.97,1.9,3.857,3.872,5.62,5.866a.7.7,0,0,1-.062.991A.679.679,0,0,1,1932.754,307.235Zm-11.622-11.192a.72.72,0,0,1-.447-.159l-.947-.772c-1.429-1.144-2.947-2.155-4.414-3.132l-1.134-.759a.7.7,0,0,1-.192-.975.711.711,0,0,1,.972-.189l1.134.756c1.492.994,3.036,2.023,4.508,3.2l.966.783a.7.7,0,0,1,.094.987A.692.692,0,0,1,1921.132,296.043Z" transform="translate(-1913.878 -289.939)"/>
    </g>
    <g id="Grupo_28097" data-name="Grupo 28097" transform="translate(1762.941 259.186)">
      <path id="Trazado_30608" data-name="Trazado 30608" d="M1896.6,291.019a11.468,11.468,0,1,1,9.77-5.423A11.389,11.389,0,0,1,1896.6,291.019Zm.041-21.537a10.086,10.086,0,0,0-2.319.27,10.067,10.067,0,0,0-3.005,18.358,10.068,10.068,0,1,0,5.325-18.628Z" transform="translate(-1885.146 -268.081)"/>
    </g>
    <g id="Grupo_28098" data-name="Grupo 28098" transform="translate(1421.576 479.176)">
      <path id="Trazado_30609" data-name="Trazado 30609" d="M1466.18,559.285c-.172,0-.343-.006-.512-.018a8.013,8.013,0,1,1,3.474-15.443.7.7,0,0,1-.52,1.3,6.528,6.528,0,0,0-2.038-.458,6.778,6.778,0,0,0-4.786,1.641,6.612,6.612,0,0,0,3.96,11.557,6.643,6.643,0,0,0,3.455-.728.709.709,0,0,1,.946.3.7.7,0,0,1-.3.947A7.965,7.965,0,0,1,1466.18,559.285Z" transform="translate(-1458.156 -543.251)"/>
    </g>
    <g id="Grupo_28099" data-name="Grupo 28099" transform="translate(1426.763 482.36)">
      <path id="Trazado_30610" data-name="Trazado 30610" d="M1465.861,556.48a.7.7,0,0,1-.469-1.224l3.778-3.372-4.262-3.4a.7.7,0,0,1,.874-1.1l4.911,3.921a.694.694,0,0,1,.265.53.706.706,0,0,1-.234.541l-4.4,3.923A.7.7,0,0,1,1465.861,556.48Z" transform="translate(-1464.644 -547.234)"/>
    </g>
    <g id="Grupo_28100" data-name="Grupo 28100" transform="translate(1469.902 479.178)">
      <path id="Trazado_30611" data-name="Trazado 30611" d="M1522.664,559.286a8,8,0,0,1-3.681-.9.7.7,0,0,1,.645-1.248,6.753,6.753,0,0,0,3.46.731,6.611,6.611,0,0,0,3.96-11.557,6.708,6.708,0,0,0-4.789-1.641,4.19,4.19,0,0,0-1.734.344.7.7,0,0,1-.546-1.29,5.507,5.507,0,0,1,2.194-.452,8.008,8.008,0,0,1,8.5,7.5,8.019,8.019,0,0,1-7.5,8.5C1523.005,559.28,1522.836,559.286,1522.664,559.286Z" transform="translate(-1518.604 -543.253)"/>
    </g>
    <g id="Grupo_28101" data-name="Grupo 28101" transform="translate(1470.24 482.361)">
      <path id="Trazado_30612" data-name="Trazado 30612" d="M1524.367,556.48a.692.692,0,0,1-.453-.166l-4.638-3.924a.7.7,0,0,1,.029-1.094l5.156-3.921a.7.7,0,1,1,.848,1.117l-4.459,3.391,3.969,3.359a.7.7,0,0,1-.452,1.237Z" transform="translate(-1519.026 -547.235)"/>
    </g>
    <g id="Grupo_28102" data-name="Grupo 28102" transform="translate(1432.253 487.14)">
      <path id="Trazado_30613" data-name="Trazado 30613" d="M1491.034,577.011c-3.518,0-8.556-.671-12.578-3.866-3.094-2.457-5.145-6.405-6.265-12.076a70.491,70.491,0,0,1-.679-7.118.706.706,0,0,1,.666-.739.668.668,0,0,1,.738.666,68.208,68.208,0,0,0,.652,6.92c1.053,5.328,2.938,9.007,5.762,11.25,3.7,2.94,8.41,3.559,11.7,3.559a.7.7,0,0,1,0,1.4Z" transform="translate(-1471.511 -553.212)"/>
    </g>
    <g id="Grupo_28103" data-name="Grupo 28103" transform="translate(1451.074 487.707)">
      <path id="Trazado_30614" data-name="Trazado 30614" d="M1495.755,577.154a.7.7,0,0,1,0-1.4c3.294,0,8-.619,11.7-3.559,2.823-2.243,4.705-5.922,5.758-11.25a46.514,46.514,0,0,0,.577-6.345.7.7,0,0,1,.7-.673.711.711,0,0,1,.7.73,48.2,48.2,0,0,1-.6,6.56c-1.121,5.667-3.169,9.619-6.263,12.076C1504.311,576.483,1499.273,577.154,1495.755,577.154Z" transform="translate(-1495.053 -553.922)"/>
    </g>
    <g id="Grupo_28104" data-name="Grupo 28104" transform="translate(1451.282 458.082)">
      <path id="Trazado_30615" data-name="Trazado 30615" d="M1507.21,532.1a.7.7,0,0,1-.481-.19,77.051,77.051,0,0,1-11.312-13.974.7.7,0,0,1,1.2-.733,75.615,75.615,0,0,0,11.078,13.682.7.7,0,0,1-.481,1.215Z" transform="translate(-1495.313 -516.865)"/>
    </g>
    <g id="Grupo_28105" data-name="Grupo 28105" transform="translate(1439.869 458.083)">
      <path id="Trazado_30616" data-name="Trazado 30616" d="M1481.739,532.1a.7.7,0,0,1-.481-1.215,82.174,82.174,0,0,0,11.3-13.693.713.713,0,0,1,.97-.216.7.7,0,0,1,.215.97,84.016,84.016,0,0,1-11.524,13.963A.7.7,0,0,1,1481.739,532.1Z" transform="translate(-1481.038 -516.867)"/>
    </g>
    <g id="Grupo_28106" data-name="Grupo 28106" transform="translate(1462.108 506.619)">
      <path id="Trazado_30617" data-name="Trazado 30617" d="M1510.422,586.7a.705.705,0,0,1-.7-.634c-.483-5.062-.858-7.664-.86-7.691a.7.7,0,0,1,.592-.8.715.715,0,0,1,.8.592c0,.026.382,2.657.871,7.758a.7.7,0,0,1-.632.767A.5.5,0,0,1,1510.422,586.7Z" transform="translate(-1508.854 -577.578)"/>
    </g>
    <g id="Grupo_28107" data-name="Grupo 28107" transform="translate(1439.444 506.622)">
      <path id="Trazado_30618" data-name="Trazado 30618" d="M1481.206,586.219a.711.711,0,0,1-.7-.746c.318-5.156.588-7.2.6-7.286a.725.725,0,0,1,.791-.6.7.7,0,0,1,.6.787c0,.022-.278,2.093-.593,7.186A.7.7,0,0,1,1481.206,586.219Z" transform="translate(-1480.505 -577.582)"/>
    </g>
    <g id="Grupo_28108" data-name="Grupo 28108" transform="translate(1426.825 446.674)">
      <path id="Trazado_30619" data-name="Trazado 30619" d="M1467.023,536.505a.7.7,0,0,1-.663-.471c-.174-.5-4.227-12.455,1.105-22.873,4.762-9.31,13.769-10.566,21.95-10.566,9.284,0,18.672.915,22.515,11.834,1.677,4.771,1.685,10.212.031,20.8a.719.719,0,0,1-.8.585.7.7,0,0,1-.584-.8c1.614-10.332,1.621-15.6.031-20.118-3.205-9.115-10.2-10.9-21.188-10.9-7.758,0-16.283,1.165-20.7,9.8-5.061,9.887-1.068,21.654-1.026,21.771a.7.7,0,0,1-.432.895A.741.741,0,0,1,1467.023,536.505Z" transform="translate(-1464.722 -502.596)"/>
    </g>
    <g id="Grupo_28109" data-name="Grupo 28109" transform="translate(1449.207 494.173)">
      <path id="Trazado_30620" data-name="Trazado 30620" d="M1496.264,569.024a10.932,10.932,0,0,1-3.063-.453.7.7,0,0,1-.45-.884.694.694,0,0,1,.884-.452c.034.01,3.427,1.081,5.628-.409a5.107,5.107,0,0,0,1.927-4.16.7.7,0,0,1,.7-.658.708.708,0,0,1,.7.747c-.15,2.43-1.006,4.193-2.542,5.236A6.687,6.687,0,0,1,1496.264,569.024Z" transform="translate(-1492.717 -562.009)"/>
    </g>
    <g id="Grupo_28116" data-name="Grupo 28116" transform="translate(1328.069 470.7)">
      <g id="Grupo_28110" data-name="Grupo 28110" transform="translate(15.714)">
        <path id="Trazado_30621" data-name="Trazado 30621" d="M1367.4,562.328a.7.7,0,0,1-.639-.416c-4.267-9.549-8.018-22.85-4.544-28.91a.7.7,0,1,1,1.217.7c-3,5.247.15,17.664,4.607,27.642a.7.7,0,0,1-.64.988Z" transform="translate(-1360.85 -532.649)"/>
      </g>
      <g id="Grupo_28111" data-name="Grupo 28111" transform="translate(27.076 0.814)">
        <path id="Trazado_30622" data-name="Trazado 30622" d="M1385.244,560.67a.7.7,0,0,1-.6-.343c-2.09-3.518-3.444-8.353-4.754-13.03-1.373-4.908-2.67-9.544-4.7-12.534a.7.7,0,1,1,1.159-.79c2.161,3.182,3.49,7.924,4.893,12.947,1.284,4.59,2.613,9.334,4.609,12.69a.7.7,0,0,1-.244.962A.689.689,0,0,1,1385.244,560.67Z" transform="translate(-1375.063 -533.667)"/>
      </g>
      <g id="Grupo_28112" data-name="Grupo 28112" transform="translate(11.434 26.416)">
        <path id="Trazado_30623" data-name="Trazado 30623" d="M1392.967,605.694a.7.7,0,0,1-.679-.52l-3.426-12.766a.7.7,0,0,1,.255-.74c1.682-1.277,4.367-15.334-.942-22.751-2.737-3.822-17.793-1.084-26.331,3.721-3.7,2.085-5.454,4.16-4.8,5.693a8.163,8.163,0,0,0,5.32,4.651c4.828,1.531,11.894.091,18-3.674a.7.7,0,0,1,.739,1.2c-6.441,3.973-13.959,5.472-19.161,3.814a9.612,9.612,0,0,1-6.185-5.436c-.7-1.63-.326-4.245,5.4-7.467,8.6-4.838,24.631-8.244,28.159-3.315,5.457,7.621,3.24,21.433,1.007,24.321l3.325,12.388a.706.706,0,0,1-.5.861A.738.738,0,0,1,1392.967,605.694Z" transform="translate(-1355.497 -565.692)"/>
      </g>
      <g id="Grupo_28113" data-name="Grupo 28113" transform="translate(4.668 22.746)">
        <path id="Trazado_30624" data-name="Trazado 30624" d="M1372.26,590.966a13.7,13.7,0,0,1-2.906-.322c-3.708-.806-7.527-2.795-12.019-6.257a44.268,44.268,0,0,1-7.355-7.179c-1.338-1.661-3.1-4.215-2.935-7.194a7.745,7.745,0,0,1,.611-2.553c1.331-3.146,4.6-6.425,8.19-6.359,2.072.044,3.556,1.206,4.991,2.329l.465.362c1.849,1.425,3.209,2.514,4.85,3.886a.7.7,0,0,1,.088.988.693.693,0,0,1-.988.088c-1.628-1.359-2.974-2.438-4.806-3.849l-.474-.37c-1.313-1.027-2.55-2-4.156-2.03-2.878,0-5.712,2.777-6.864,5.5a6.37,6.37,0,0,0-.5,2.087c-.1,1.9.731,3.879,2.625,6.232a42.672,42.672,0,0,0,7.121,6.947c4.321,3.333,7.96,5.238,11.458,6a10.329,10.329,0,0,0,5.683-.213,5.811,5.811,0,0,0,2.805-2.007c1.55-2.173.438-4.646-.366-5.927l-.19-.3c-.112-.177-.167-.262-.377-.546a.7.7,0,0,1,1.128-.837c.244.33.307.432.437.635l.187.293c1.711,2.735,1.823,5.392.325,7.5a7.161,7.161,0,0,1-3.474,2.511A10.47,10.47,0,0,1,1372.26,590.966Z" transform="translate(-1347.034 -561.101)"/>
      </g>
      <g id="Grupo_28114" data-name="Grupo 28114" transform="translate(0 32.616)">
        <path id="Trazado_30625" data-name="Trazado 30625" d="M1367.192,600.17c-.445,0-.9-.023-1.36-.065-3.777-.353-7.807-1.869-12.684-4.768a44.319,44.319,0,0,1-8.163-6.245c-1.529-1.487-3.583-3.8-3.775-6.791a7.58,7.58,0,0,1,.3-2.607,9.608,9.608,0,0,1,4.745-6.175.7.7,0,0,1,.624,1.258,8.265,8.265,0,0,0-4.022,5.306,6.258,6.258,0,0,0-.247,2.13c.125,1.9,1.191,3.77,3.355,5.871a42.752,42.752,0,0,0,7.9,6.047c4.692,2.789,8.535,4.243,12.1,4.575a10.272,10.272,0,0,0,5.616-.891,5.874,5.874,0,0,0,2.545-2.33,3.566,3.566,0,0,0,.349-3.2.7.7,0,1,1,1.326-.452,4.966,4.966,0,0,1-.442,4.326,7.163,7.163,0,0,1-3.148,2.912A11.113,11.113,0,0,1,1367.192,600.17Z" transform="translate(-1341.195 -573.446)"/>
      </g>
      <g id="Grupo_28115" data-name="Grupo 28115" transform="translate(13.497 54.571)">
        <path id="Trazado_30626" data-name="Trazado 30626" d="M1368.722,618.169a.7.7,0,0,1-.687-.556l-1.874-8.809c-3.359-.954-5.554-3.325-7.958-6.8a.7.7,0,0,1,.177-.978.715.715,0,0,1,.978.177c2.319,3.351,4.391,5.582,7.562,6.349a.7.7,0,0,1,.523.536l1.966,9.232a.7.7,0,0,1-.541.831A.716.716,0,0,1,1368.722,618.169Z" transform="translate(-1358.078 -600.908)"/>
      </g>
    </g>
    <g id="Grupo_28117" data-name="Grupo 28117" transform="translate(1609.91 409.449)">
      <path id="Trazado_30627" data-name="Trazado 30627" d="M1743.39,526.6c-16.639,0-32.919-3.7-40.011-14.3-3.572-5.337-6.115-11.762-7.773-19.639a98.529,98.529,0,0,1-.427-36.029.648.648,0,0,1,.812-.575.7.7,0,0,1,.572.809,97.191,97.191,0,0,0,.416,35.5c1.623,7.7,4.1,13.964,7.566,19.15,9.2,13.743,36.72,15.849,59.942,11.835a.666.666,0,0,1,.811.572.7.7,0,0,1-.572.812A127.335,127.335,0,0,1,1743.39,526.6Z" transform="translate(-1693.73 -456.034)"/>
    </g>
    <g id="Grupo_28118" data-name="Grupo 28118" transform="translate(1567.83 402.359)">
      <path id="Trazado_30628" data-name="Trazado 30628" d="M1711.257,574.425c-25.473,0-38.534-11.629-46.321-20.773-28.382-33.337-24.4-89.463-22.5-105.871a.711.711,0,0,1,.777-.616.7.7,0,0,1,.616.778c-1.88,16.264-5.843,71.893,22.174,104.8,8.356,9.812,22.92,22.572,53.078,19.928a.688.688,0,0,1,.759.64.7.7,0,0,1-.634.759Q1715.043,574.432,1711.257,574.425Z" transform="translate(-1641.095 -447.165)"/>
    </g>
    <g id="Grupo_28119" data-name="Grupo 28119" transform="translate(1569.156 400.155)">
      <path id="Trazado_30629" data-name="Trazado 30629" d="M1677.958,457.015a93.605,93.605,0,0,1-14.213-1.333c-7.532-1.269-21.61-4.677-20.971-8.488.229-1.345,2.743-2.785,6.118-2.785a.7.7,0,0,1,0,1.4c-3.14,0-4.638,1.294-4.737,1.625-.193,1.154,6.627,4.636,19.824,6.861s20.776,1.165,20.978,0c.026-.146.073-1.466-5.626-3.445a.7.7,0,0,1-.436-.891.719.719,0,0,1,.894-.434c4.706,1.633,6.848,3.271,6.552,5C1686.027,456.394,1682.429,457.015,1677.958,457.015Z" transform="translate(-1642.753 -444.409)"/>
    </g>
    <g id="Grupo_28120" data-name="Grupo 28120" transform="translate(1275.741 703.998)">
      <path id="Trazado_30630" data-name="Trazado 30630" d="M1836.521,825.868H1276.443a.7.7,0,1,1,0-1.4h560.078a.7.7,0,1,1,0,1.4Z" transform="translate(-1275.741 -824.465)"/>
    </g>
    <path id="Trazado_30631" data-name="Trazado 30631" d="M1801.5,487.318c-.561-.085-.934.158-1.082,2.178-.163,2.252.423,2.645.927,2.621s1.006-.722.97-2.33S1802.233,487.428,1801.5,487.318Z" transform="translate(-105.208 -52.856)"/>
    <path id="Trazado_30632" data-name="Trazado 30632" d="M1781.009,487.694c-.564-.07-.931.183-1.024,2.206-.1,2.255.492,2.633,1,2.6s.987-.748.908-2.354S1781.747,487.785,1781.009,487.694Z" transform="translate(-101.114 -52.932)"/>
    <g id="Grupo_28121" data-name="Grupo 28121" transform="translate(1710.786 449.447)">
      <path id="Trazado_30633" data-name="Trazado 30633" d="M1821.777,527.667a.7.7,0,0,1-.7-.66l-1.165-20.2a.7.7,0,0,1,.66-.742.712.712,0,0,1,.744.659l1.165,20.2a.7.7,0,0,1-.66.741A.287.287,0,0,1,1821.777,527.667Z" transform="translate(-1819.909 -506.065)"/>
    </g>
    <g id="Grupo_28122" data-name="Grupo 28122" transform="translate(1674.501 424.118)">
      <path id="Trazado_30634" data-name="Trazado 30634" d="M1787.014,517.732c-3.661,0-7.43-.494-9.812-4.068-2.506-3.762-2.558-8.686-2.6-13.031-.011-.954-.021-1.89-.058-2.793-.115-2.958.218-21.961.234-22.769a.7.7,0,1,1,1.4.026c-.005.2-.348,19.769-.234,22.691.036.915.046,1.864.052,2.832.046,4.349.094,8.85,2.365,12.263,2.413,3.626,6.645,3.518,10.727,3.408.526-.013,1.045-.029,1.555-.034a40.632,40.632,0,0,0,8.881-.943.687.687,0,0,1,.843.524.7.7,0,0,1-.52.843,42.138,42.138,0,0,1-9.183.979c-.509.005-1.019.018-1.539.034C1788.439,517.713,1787.727,517.732,1787.014,517.732Z" transform="translate(-1774.522 -474.382)"/>
    </g>
    <g id="Grupo_28123" data-name="Grupo 28123" transform="translate(1706.326 433.251)">
      <path id="Trazado_30635" data-name="Trazado 30635" d="M1822.972,504.169a9.137,9.137,0,0,1-5.528-1.867.7.7,0,0,1-.14-.983.712.712,0,0,1,.982-.135,7.771,7.771,0,1,0,5.387-13.94,7.583,7.583,0,0,0-5.678,1.768,7.739,7.739,0,0,0-2.3,3.26.7.7,0,0,1-1.32-.484,9.164,9.164,0,1,1,8.6,12.381Z" transform="translate(-1814.33 -485.806)"/>
    </g>
    <g id="Grupo_28124" data-name="Grupo 28124" transform="translate(1674.935 428.657)">
      <path id="Trazado_30636" data-name="Trazado 30636" d="M1775.768,483.614a.72.72,0,0,1-.3-.065.7.7,0,0,1-.343-.926c.015-.031,1.711-3.546,6.676-2.293a.707.707,0,0,1,.509.853.72.72,0,0,1-.853.509c-3.832-.97-5.007,1.417-5.059,1.519A.706.706,0,0,1,1775.768,483.614Z" transform="translate(-1775.064 -480.061)"/>
    </g>
    <g id="Grupo_28125" data-name="Grupo 28125" transform="translate(1691.53 428.163)">
      <path id="Trazado_30637" data-name="Trazado 30637" d="M1804.119,483.716a.7.7,0,0,1-.551-.265c-3.286-4.146-6.531-2.155-6.667-2.069a.7.7,0,0,1-.764-1.178c.052-.029,4.435-2.787,8.533,2.374a.7.7,0,0,1-.551,1.138Z" transform="translate(-1795.822 -479.442)"/>
    </g>
    <g id="Grupo_28126" data-name="Grupo 28126" transform="translate(1684.753 466.038)">
      <path id="Trazado_30638" data-name="Trazado 30638" d="M1788.073,531.886a.706.706,0,0,1-.7-.7l-.026-3.666a.7.7,0,0,1,1.4-.01l.027,3.666a.707.707,0,0,1-.7.708Z" transform="translate(-1787.345 -526.817)"/>
    </g>
    <g id="Grupo_28127" data-name="Grupo 28127" transform="translate(1703.429 408.042)">
      <path id="Trazado_30639" data-name="Trazado 30639" d="M1828.23,482.866a.7.7,0,0,1-.515-1.178c.089-.1.177-.2.265-.3,3.4-4.025,4.627-10.457,3.052-16.01-1.274-4.5-4.155-7.68-8.106-8.969a17.052,17.052,0,0,0-7.113-.619c-1.446.148-4.259.265-4.373.27a.677.677,0,0,1-.733-.673.7.7,0,0,1,.671-.731c.031,0,2.886-.12,4.29-.265a18.853,18.853,0,0,1,7.7.68c4.409,1.441,7.612,4.966,9.021,9.924,1.7,5.982.358,12.935-3.334,17.294-.1.12-.2.237-.306.351A.7.7,0,0,1,1828.23,482.866Z" transform="translate(-1810.706 -454.275)"/>
    </g>
    <g id="Grupo_28128" data-name="Grupo 28128" transform="translate(1710.377 436.741)">
      <path id="Trazado_30640" data-name="Trazado 30640" d="M1826.7,500.946a.7.7,0,0,1-.306-.07l-6.6-3.214a.7.7,0,0,1-.2-1.118l5.938-6.157a.7.7,0,1,1,1.008.973l-5.267,5.462,5.735,2.79a.7.7,0,0,1-.307,1.333Z" transform="translate(-1819.397 -490.172)"/>
    </g>
    <g id="Grupo_28129" data-name="Grupo 28129" transform="translate(1700.024 408.375)">
      <path id="Trazado_30641" data-name="Trazado 30641" d="M1807.149,460.4a.7.7,0,0,1-.552-1.138l3.411-4.3a.7.7,0,0,1,1.1.873l-3.411,4.3A.7.7,0,0,1,1807.149,460.4Z" transform="translate(-1806.447 -454.691)"/>
    </g>
    <g id="Grupo_28130" data-name="Grupo 28130" transform="translate(1674.758 417.024)">
      <path id="Trazado_30642" data-name="Trazado 30642" d="M1808.47,486.288a.7.7,0,0,1-.5-.216c-5.517-5.719-9.078-15.125-10.217-18.453-2.418,2.592-9.968,9.175-22.359,6.369a.707.707,0,0,1-.53-.839.719.719,0,0,1,.843-.528c14.252,3.224,21.454-6.406,21.755-6.817a.674.674,0,0,1,.681-.281.7.7,0,0,1,.556.486c.036.122,3.869,12.443,10.279,19.09a.7.7,0,0,1-.5,1.188Z" transform="translate(-1774.844 -465.509)"/>
    </g>
    <g id="Grupo_28131" data-name="Grupo 28131" transform="translate(1640.28 511.649)">
      <path id="Trazado_30643" data-name="Trazado 30643" d="M1732.419,741.047a.7.7,0,0,1-.7-.7c0-71.461,2.132-120.989,6.712-155.865a.7.7,0,1,1,1.393.182c-4.57,34.815-6.7,84.284-6.7,155.683A.7.7,0,0,1,1732.419,741.047Z" transform="translate(-1731.717 -583.869)"/>
    </g>
    <g id="Grupo_28132" data-name="Grupo 28132" transform="translate(1679.189 469.277)">
      <path id="Trazado_30644" data-name="Trazado 30644" d="M1805.932,577.1a.7.7,0,0,1-.6-.338l-12.541-20.63-10.914,15.388a.686.686,0,0,1-.786.262.7.7,0,0,1-.489-.663l-.219-30.724a.708.708,0,0,1,.12-.395l5.589-8.4a.677.677,0,0,1,.7-.3.691.691,0,0,1,.562.509l5.829,21.628,20.491-22.346a.689.689,0,0,1,.51-.228.7.7,0,0,1,.515.221l8.07,8.533a.692.692,0,0,1,.13.769l-16.327,36.3a.7.7,0,0,1-.6.411A.228.228,0,0,1,1805.932,577.1Zm-12.219-22.159,12.126,19.952,15.588-34.651L1814.2,532.6ZM1781.79,540.6l.2,28.333,10.082-14.214-5.672-21.046Z" transform="translate(-1780.386 -530.869)"/>
    </g>
    <g id="Grupo_28133" data-name="Grupo 28133" transform="translate(1674.635 509.848)">
      <path id="Trazado_30645" data-name="Trazado 30645" d="M1775.391,662.707c-.573-.141-.786-.53-.672-.9,4.348-14.558,26.591-79.069,26.815-79.718a.7.7,0,0,1,1.331.457c-.229.65-22.463,65.131-26.8,79.661A.7.7,0,0,1,1775.391,662.707Z" transform="translate(-1774.69 -581.617)"/>
    </g>
    <g id="Grupo_28134" data-name="Grupo 28134" transform="translate(1672.518 507.449)">
      <path id="Trazado_30646" data-name="Trazado 30646" d="M1772.743,739.994a.7.7,0,0,1-.7-.7c0-35.873,2.1-77.509,2.116-77.925.261-17.72,5.694-81.466,5.751-82.108a.741.741,0,0,1,.754-.639.7.7,0,0,1,.639.759c-.051.642-5.485,64.338-5.74,82.035-.021.442-2.116,42.042-2.116,77.878A.7.7,0,0,1,1772.743,739.994Z" transform="translate(-1772.041 -578.615)"/>
    </g>
    <g id="Grupo_28135" data-name="Grupo 28135" transform="translate(1683.45 503.112)">
      <path id="Trazado_30647" data-name="Trazado 30647" d="M1795.323,585.669c-.062,0-8.06-.7-8.06-.7a.7.7,0,0,1-.635-.637l-.91-10.361a.7.7,0,0,1,.634-.761.686.686,0,0,1,.759.636l.864,9.776,7.009.616,6.084-8.57a.7.7,0,1,1,1.143.812l-6.317,8.9A.7.7,0,0,1,1795.323,585.669Z" transform="translate(-1785.715 -573.19)"/>
    </g>
    <g id="Grupo_28136" data-name="Grupo 28136" transform="translate(1692.357 514.187)">
      <path id="Trazado_30648" data-name="Trazado 30648" d="M1798.986,605.632a.7.7,0,0,1-.7-.645l-1.43-17.185a.7.7,0,1,1,1.393-.114l1.43,17.185a.7.7,0,0,1-.64.756A.444.444,0,0,1,1798.986,605.632Z" transform="translate(-1796.856 -587.044)"/>
    </g>
    <g id="Grupo_28137" data-name="Grupo 28137" transform="translate(1678.971 513.483)">
      <path id="Trazado_30649" data-name="Trazado 30649" d="M1780.815,598.576a.692.692,0,0,1-.307-.073.7.7,0,0,1-.322-.939l5.387-11.008a.692.692,0,0,1,.936-.319.7.7,0,0,1,.322.938l-5.387,11.008A.7.7,0,0,1,1780.815,598.576Z" transform="translate(-1780.114 -586.163)"/>
    </g>
    <g id="Grupo_28138" data-name="Grupo 28138" transform="translate(1687.663 450.95)">
      <path id="Trazado_30650" data-name="Trazado 30650" d="M1793.946,513.724a7.67,7.67,0,0,1-2.486-.457.7.7,0,1,1,.457-1.326,4.457,4.457,0,0,0,3.832-.093,5.269,5.269,0,0,0,2.076-3.312.666.666,0,0,1,.806-.58.7.7,0,0,1,.576.8,6.6,6.6,0,0,1-2.729,4.29A4.834,4.834,0,0,1,1793.946,513.724Z" transform="translate(-1790.986 -507.945)"/>
    </g>
    <g id="Grupo_28139" data-name="Grupo 28139" transform="translate(1680.231 431.446)">
      <path id="Trazado_30651" data-name="Trazado 30651" d="M1787.948,502.359c-1.669,0-4.388-.221-5.61-1.56a2.51,2.51,0,0,1-.6-2.2c.613-3.5,3.822-14.1,3.957-14.551a.685.685,0,0,1,.873-.469.7.7,0,0,1,.468.874c-.03.11-3.317,10.966-3.915,14.39a1.112,1.112,0,0,0,.255,1.006c1.066,1.17,4.628,1.152,5.8,1.059a.688.688,0,0,1,.754.642.7.7,0,0,1-.64.756C1789.138,502.323,1788.629,502.359,1787.948,502.359Z" transform="translate(-1781.689 -483.549)"/>
    </g>
    <g id="Grupo_28140" data-name="Grupo 28140" transform="translate(1669.362 402.232)">
      <path id="Trazado_30652" data-name="Trazado 30652" d="M1773.73,478.277a.711.711,0,0,1-.568-.285c-.109-.151-10.856-15.066-.722-24.376,9.5-8.733,21.7-8.817,30.34-.224a.7.7,0,1,1-.988.993c-8.08-8.028-19.494-7.919-28.406.265-9.2,8.46.806,22.372.91,22.51a.7.7,0,0,1-.566,1.117Z" transform="translate(-1768.094 -447.006)"/>
    </g>
    <g id="Grupo_28141" data-name="Grupo 28141" transform="translate(1537.52 487.018)">
      <path id="Trazado_30653" data-name="Trazado 30653" d="M1894.358,734.869H1620.63c-8.637,0-16.464-7.516-17.445-16.756a.7.7,0,0,1,.621-.772.683.683,0,0,1,.772.622c.91,8.548,8.109,15.5,16.051,15.5h273.727a16.156,16.156,0,0,0,16.139-16.14V570.6a16.156,16.156,0,0,0-16.139-16.14H1820.5a.7.7,0,0,1,0-1.4h73.862A17.565,17.565,0,0,1,1911.9,570.6V717.325A17.565,17.565,0,0,1,1894.358,734.869Z" transform="translate(-1603.182 -553.06)"/>
    </g>
    <g id="Grupo_28142" data-name="Grupo 28142" transform="translate(1297.793 393)">
      <path id="Trazado_30654" data-name="Trazado 30654" d="M1594.6,695.157H1320.869a17.563,17.563,0,0,1-17.545-17.544V453a17.564,17.564,0,0,1,17.545-17.544h258.41a.7.7,0,1,1,0,1.4h-258.41A16.159,16.159,0,0,0,1304.728,453v224.61a16.159,16.159,0,0,0,16.141,16.14H1594.6a16.157,16.157,0,0,0,16.137-16.14v-114.3a.7.7,0,0,1,1.4,0v114.3A17.561,17.561,0,0,1,1594.6,695.157Z" transform="translate(-1303.324 -435.459)"/>
    </g>
    <g id="Grupo_28143" data-name="Grupo 28143" transform="translate(1419.44 493.022)">
      <path id="Trazado_30655" data-name="Trazado 30655" d="M1472.72,585.491c-3.242,0-14.059-.637-16.625-8.988-2.954-9.61,5.753-15.753,5.841-15.813a.7.7,0,0,1,.8,1.154c-.328.226-7.945,5.631-5.3,14.247,2.641,8.6,15.964,7.984,16.112,7.976a.792.792,0,0,1,.736.665.7.7,0,0,1-.661.739C1473.542,585.475,1473.223,585.491,1472.72,585.491Z" transform="translate(-1455.483 -560.569)"/>
    </g>
    <g id="Grupo_28144" data-name="Grupo 28144" transform="translate(1465.008 493.018)">
      <path id="Trazado_30656" data-name="Trazado 30656" d="M1513.185,585.43a.7.7,0,0,1-.028-1.4c.146-.006,14.736-.72,17.392-9.365,2.621-8.529-5.586-12.593-5.938-12.763a.7.7,0,0,1,.606-1.266c.1.046,9.654,4.745,6.674,14.439-2.948,9.594-18.035,10.329-18.677,10.358Z" transform="translate(-1512.483 -560.564)"/>
    </g>
    <g id="Grupo_28145" data-name="Grupo 28145" transform="translate(1445.576 475.74)">
      <path id="Trazado_30657" data-name="Trazado 30657" d="M1492.4,557.193a4.493,4.493,0,0,1-4.131-2.072.7.7,0,0,1,.07-.808,24.159,24.159,0,0,0,4.594-14.657.7.7,0,1,1,1.4,0,25.754,25.754,0,0,1-4.588,15.133c1.487,1.724,4.8.682,4.83.671a.7.7,0,0,1,.437,1.334A9.061,9.061,0,0,1,1492.4,557.193Z" transform="translate(-1488.175 -538.953)"/>
    </g>
    <g id="Grupo_28146" data-name="Grupo 28146" transform="translate(1720.359 477.809)">
      <path id="Trazado_30658" data-name="Trazado 30658" d="M1904.409,732.559a.7.7,0,0,1-.7-.707c.01-1.043.692-104.693-8.757-145.112-9.343-39.981-61.88-43.764-62.411-43.8a.7.7,0,0,1,.047-1.4c.582.037,54.149,3.879,63.727,44.881,9.489,40.578,8.8,144.4,8.8,145.439A.7.7,0,0,1,1904.409,732.559Z" transform="translate(-1831.883 -541.541)"/>
    </g>
    <g id="Grupo_28147" data-name="Grupo 28147" transform="translate(1738.994 528.21)">
      <path id="Trazado_30659" data-name="Trazado 30659" d="M1860.419,745.2a.7.7,0,0,1-.7-.712c.988-61.3-4.467-138.384-4.523-139.156a.7.7,0,0,1,.65-.748.715.715,0,0,1,.754.65c.052.772,5.512,77.912,4.524,139.276A.7.7,0,0,1,1860.419,745.2Z" transform="translate(-1855.192 -604.584)"/>
    </g>
    <g id="Grupo_28148" data-name="Grupo 28148" transform="translate(1432.347 513.855)">
      <path id="Trazado_30660" data-name="Trazado 30660" d="M1479.894,620.482a9.821,9.821,0,0,1-1.419-.1,6.806,6.806,0,0,1-4.987-3.234c-4.505-7.162.564-23.568.78-24.262.117-.221,4.6-5.982,4.6-5.982a.7.7,0,0,1,1.074-.039l12.521,13.871a.7.7,0,0,1,.18.535c-.05.509-1.254,12.536-7.321,17.3A8.6,8.6,0,0,1,1479.894,620.482Zm-4.32-27.061c-.453,1.5-4.873,16.659-.9,22.977a5.392,5.392,0,0,0,4,2.593,7.361,7.361,0,0,0,5.779-1.524c5.1-4,6.534-14.146,6.757-16.028l-11.749-13.015Z" transform="translate(-1471.628 -586.629)"/>
    </g>
    <g id="Grupo_28149" data-name="Grupo 28149" transform="translate(1451.366 514.342)">
      <path id="Trazado_30661" data-name="Trazado 30661" d="M1507.457,620.614c-8.244,0-11.143-10.332-12.027-14.98a.7.7,0,0,1,.558-.819.686.686,0,0,1,.82.56c.863,4.529,3.757,14.943,11.982,13.737a5.163,5.163,0,0,0,3.879-2.533c3.877-6.349-1.1-21.826-1.589-23.308l-3.361-4.216-10.463,12.713a.7.7,0,1,1-1.081-.89l11.01-13.383a.7.7,0,0,1,1.089.007l3.981,4.992c.359.918,6.006,17.622,1.612,24.816a6.577,6.577,0,0,1-4.874,3.19A10.648,10.648,0,0,1,1507.457,620.614Z" transform="translate(-1495.418 -587.237)"/>
    </g>
    <g id="Grupo_28150" data-name="Grupo 28150" transform="translate(1492.685 416.175)">
      <path id="Trazado_30662" data-name="Trazado 30662" d="M1575.52,493.57H1547.8a.7.7,0,0,1-.7-.7V465.15a.7.7,0,0,1,.7-.7h27.718a.7.7,0,0,1,.7.7v27.719A.7.7,0,0,1,1575.52,493.57Zm-27.016-1.4h26.313V465.851H1548.5Z" transform="translate(-1547.101 -464.447)"/>
    </g>
    <g id="Grupo_28151" data-name="Grupo 28151" transform="translate(1535.884 452.152)">
      <path id="Trazado_30663" data-name="Trazado 30663" d="M1621.585,530.6h-19.748a.7.7,0,0,1-.7-.7V510.15a.7.7,0,0,1,.7-.7h19.748a.7.7,0,0,1,.7.7V529.9A.7.7,0,0,1,1621.585,530.6Zm-19.046-1.4h18.344V510.852h-18.344Z" transform="translate(-1601.135 -509.448)"/>
    </g>
    <g id="Grupo_28152" data-name="Grupo 28152" transform="translate(1366.203 621.391)">
      <path id="Trazado_30664" data-name="Trazado 30664" d="M1389.595,733.865a.7.7,0,0,1-.65-.967c2.862-7.035,10.306-11.762,18.521-11.762,7.266,0,13.649,3.359,17.078,8.988a.7.7,0,1,1-1.2.727c-3.175-5.2-9.11-8.311-15.882-8.311-7.651,0-14.573,4.375-17.221,10.888A.7.7,0,0,1,1389.595,733.865Z" transform="translate(-1388.893 -721.137)"/>
    </g>
    <g id="Grupo_28153" data-name="Grupo 28153" transform="translate(1503.532 621.391)">
      <path id="Trazado_30665" data-name="Trazado 30665" d="M1595.651,734.11a.7.7,0,0,1-.656-.447c-2.582-6.653-9.538-11.122-17.309-11.122a18.678,18.678,0,0,0-15.732,8.075.7.7,0,0,1-1.17-.775,20.081,20.081,0,0,1,16.9-8.7c8.345,0,15.828,4.83,18.62,12.016a.7.7,0,0,1-.655.957Z" transform="translate(-1560.669 -721.137)"/>
    </g>
  </g>
</svg>
